<?xml version="1.0" encoding="utf-8"?>
<!-- Generator: Adobe Illustrator 19.2.0, SVG Export Plug-In . SVG Version: 6.00 Build 0)  -->
<svg version="1.1" id="Capa_1" xmlns="http://www.w3.org/2000/svg" xmlns:xlink="http://www.w3.org/1999/xlink" x="0px" y="0px"
	 viewBox="0 0 42.7 25.4" style="enable-background:new 0 0 42.7 25.4;" xml:space="preserve">
<style type="text/css">
	.st0{opacity:0.28;fill:#2D1269;}
	.st1{fill:#D8E3FF;}
	.st2{fill:#DEF5FF;}
	.st3{fill:#E9FFFF;}
	.st4{fill:#C9CCEC;}
	.st5{fill:#00074A;}
	.st6{fill:#004695;}
	.st7{fill:#A3B4D2;}
	.st8{fill:#B1C6DE;}
	.st9{fill:#FFFFFF;}
	.st10{fill:#C6CFE6;}
	.st11{fill:#E6F3FF;}
	.st12{fill:#E9F2FF;}
	.st13{fill:#E5F4FF;}
	.st14{fill:#C2C6DE;}
	.st15{fill:#00B3FF;}
	.st16{fill:#37F0FF;}
	.st17{fill:#00DBFF;}
	.st18{fill:#008BEF;}
	.st19{fill:#FFE400;}
	.st20{fill:#FFFB5F;}
	.st21{fill:#FF3D5B;}
	.st22{fill:#FF6D9A;}
	.st23{fill:#00E4A0;}
	.st24{fill:#4CFBD0;}
	.st25{fill:#00FBD0;}
	.st26{fill:#0060FF;}
	.st27{fill:#FF61E3;}
	.st28{fill:#FF648F;}
	.st29{fill:#FFCC00;}
	.st30{opacity:0.34;}
	.st31{opacity:0.2;fill:#FFFFFF;}
	.st32{opacity:0.53;fill:#FFFFFF;}
	.st33{opacity:0.3;fill:#00B3FF;}
	.st34{opacity:0.4;fill:#00E6FF;}
	.st35{opacity:0.81;fill:url(#SVGID_1_);}
	.st36{opacity:0.3;fill:#0042C0;}
	.st37{fill:#FF3D40;}
	.st38{fill:#FF8D8E;}
	.st39{fill:#C32717;}
	.st40{fill:#FFCD00;}
	.st41{fill:#FFEC00;}
	.st42{fill:#FFA600;}
	.st43{fill:#FFBC00;}
	.st44{fill:#45D788;}
	.st45{fill:#91F6AB;}
	.st46{fill:#11AB6B;}
	.st47{fill:none;stroke:#00DA8F;stroke-width:0.1295;stroke-linecap:round;stroke-linejoin:round;stroke-miterlimit:10;}
	.st48{fill:#00DA8F;}
	.st49{fill:none;stroke:#00FCFF;stroke-width:0.1295;stroke-linecap:round;stroke-linejoin:round;stroke-miterlimit:10;}
	.st50{fill:none;stroke:#FF4F92;stroke-width:0.1295;stroke-linecap:round;stroke-linejoin:round;stroke-miterlimit:10;}
	.st51{fill:none;stroke:#FFD600;stroke-width:0.1295;stroke-linecap:round;stroke-linejoin:round;stroke-miterlimit:10;}
	.st52{opacity:0.28;fill:#FFFFFF;}
	.st53{opacity:0.81;fill:url(#SVGID_2_);}
	.st54{fill:#00FCFF;}
	.st55{fill:#FF4F92;}
	.st56{fill:#FFD600;}
	.st57{opacity:0.81;fill:url(#SVGID_3_);}
</style>
<g>
	<g>
		<g>
			<g>
				<path class="st0" d="M27.9,23.6H14.8c-0.5,0-0.9-0.4-0.9-0.9v-7.6c0-0.5,0.4-0.9,0.9-0.9h13.2c0.5,0,0.9,0.4,0.9,0.9v7.6
					C28.8,23.2,28.4,23.6,27.9,23.6z"/>
				<path class="st1" d="M28.1,23.3H14.6c-0.5,0-0.9-0.4-0.9-0.9v-7.8c0-0.5,0.4-0.9,0.9-0.9h13.5c0.5,0,0.9,0.4,0.9,0.9v7.8
					C29,22.9,28.6,23.3,28.1,23.3z"/>
				<path class="st2" d="M28.1,23.2H14.6c-0.5,0-0.9-0.4-0.9-0.9v0.1c0,0.5,0.4,0.9,0.9,0.9h13.5c0.5,0,0.9-0.4,0.9-0.9v-0.1
					C29,22.8,28.6,23.2,28.1,23.2z"/>
				<g>
					<path class="st3" d="M27.5,20.4H15.2c-0.2,0-0.3-0.1-0.3-0.3v-5c0-0.2,0.1-0.3,0.3-0.3h12.2c0.2,0,0.3,0.1,0.3,0.3v5
						C27.8,20.3,27.6,20.4,27.5,20.4z"/>
					<path class="st4" d="M27.5,20.3H15.2c-0.2,0-0.3-0.1-0.3-0.3v-4.9c0-0.2,0.1-0.3,0.3-0.3h12.2c0.2,0,0.3,0.1,0.3,0.3V20
						C27.8,20.2,27.6,20.3,27.5,20.3z"/>
				</g>
			</g>
			<path class="st5" d="M20.6,19.1h0.6c0,0,0.1,0,0.1-0.1v-0.6c0,0,0-0.1-0.1-0.1h-0.6c0,0-0.1,0-0.1,0.1L20.6,19.1
				C20.5,19.1,20.5,19.1,20.6,19.1z M19.5,19.1h0.6c0,0,0.1,0,0.1-0.1v-0.6c0,0,0-0.1-0.1-0.1h-0.6c0,0-0.1,0-0.1,0.1L19.5,19.1
				C19.5,19.1,19.5,19.1,19.5,19.1z M15.5,16.4h0.6c0,0,0.1,0,0.1-0.1v-0.6c0,0,0-0.1-0.1-0.1h-0.6c0,0-0.1,0-0.1,0.1L15.5,16.4
				C15.4,16.4,15.4,16.4,15.5,16.4z M19.5,17.2h0.6c0,0,0.1,0,0.1-0.1v-0.6c0,0,0-0.1-0.1-0.1h-0.6c0,0-0.1,0-0.1,0.1L19.5,17.2
				C19.5,17.2,19.5,17.2,19.5,17.2z M19.5,18.2h0.6c0,0,0.1,0,0.1-0.1v-0.6c0,0,0-0.1-0.1-0.1h-0.6c0,0-0.1,0-0.1,0.1L19.5,18.2
				C19.5,18.1,19.5,18.2,19.5,18.2z M19.5,15.6h0.6c0,0,0.1,0,0.1-0.1v-0.3c0,0,0-0.1-0.1-0.1h-0.6c0,0-0.1,0-0.1,0.1L19.5,15.6
				C19.5,15.5,19.5,15.6,19.5,15.6z M19.5,16.4h0.6c0,0,0.1,0,0.1-0.1v-0.6c0,0,0-0.1-0.1-0.1h-0.6c0,0-0.1,0-0.1,0.1L19.5,16.4
				C19.5,16.4,19.5,16.4,19.5,16.4z M15.5,15.6h0.6c0,0,0.1,0,0.1-0.1v-0.3c0,0,0-0.1-0.1-0.1h-0.6c0,0-0.1,0-0.1,0.1L15.5,15.6
				C15.4,15.5,15.4,15.6,15.5,15.6z M17.1,16.5h-1.6c0,0-0.1,0-0.1,0.1v0.6c0,0,0,0.1,0.1,0.1h1.6c0,0,0.1,0,0.1-0.1L17.1,16.5
				C17.2,16.6,17.1,16.5,17.1,16.5z M17.1,17.5h-0.6c0,0-0.1,0-0.1,0.1v0.6c0,0,0,0.1,0.1,0.1h0.6c0,0,0.1,0,0.1-0.1L17.1,17.5
				C17.2,17.5,17.1,17.5,17.1,17.5z M16.1,18.4h-0.6c0,0-0.1,0-0.1,0.1V19c0,0,0,0.1,0.1,0.1h0.6c0,0,0.1,0,0.1-0.1L16.1,18.4
				C16.2,18.4,16.1,18.4,16.1,18.4z M17.1,15.7h-0.6c0,0-0.1,0-0.1,0.1v0.6c0,0,0,0.1,0.1,0.1h0.6c0,0,0.1,0,0.1-0.1L17.1,15.7
				C17.2,15.7,17.1,15.7,17.1,15.7z M17.1,18.4h-0.6c0,0-0.1,0-0.1,0.1V19c0,0,0,0.1,0.1,0.1h0.6c0,0,0.1,0,0.1-0.1L17.1,18.4
				C17.2,18.4,17.1,18.4,17.1,18.4z M16.1,17.5h-0.6c0,0-0.1,0-0.1,0.1v0.6c0,0,0,0.1,0.1,0.1h0.6c0,0,0.1,0,0.1-0.1L16.1,17.5
				C16.2,17.5,16.1,17.5,16.1,17.5z M17.1,19.3h-0.6c0,0-0.1,0-0.1,0.1v0.6c0,0,0,0.1,0.1,0.1h0.6c0,0,0.1,0,0.1-0.1L17.1,19.3
				C17.2,19.3,17.1,19.3,17.1,19.3z M22.6,18.2h0.6c0,0,0.1,0,0.1-0.1v-0.6c0,0,0-0.1-0.1-0.1h-0.6c0,0-0.1,0-0.1,0.1L22.6,18.2
				C22.5,18.1,22.6,18.2,22.6,18.2z M20.6,18.2h0.6c0,0,0.1,0,0.1-0.1v-0.6c0,0,0-0.1-0.1-0.1h-0.6c0,0-0.1,0-0.1,0.1L20.6,18.2
				C20.5,18.1,20.5,18.2,20.6,18.2z M22.6,17.2h0.6c0,0,0.1,0,0.1-0.1v-0.6c0,0,0-0.1-0.1-0.1h-0.6c0,0-0.1,0-0.1,0.1L22.6,17.2
				C22.5,17.2,22.6,17.2,22.6,17.2z M21.6,15.6h0.6c0,0,0.1,0,0.1-0.1v-0.3c0,0,0-0.1-0.1-0.1h-0.6c0,0-0.1,0-0.1,0.1L21.6,15.6
				C21.5,15.5,21.5,15.6,21.6,15.6z M22.6,19.1h0.6c0,0,0.1,0,0.1-0.1v-0.6c0,0,0-0.1-0.1-0.1h-0.6c0,0-0.1,0-0.1,0.1L22.6,19.1
				C22.5,19.1,22.6,19.1,22.6,19.1z M25.7,15.6h0.6c0,0,0.1,0,0.1-0.1v-0.3c0,0,0-0.1-0.1-0.1h-0.6c0,0-0.1,0-0.1,0.1L25.7,15.6
				C25.6,15.5,25.6,15.6,25.7,15.6z M22.6,15.6h0.6c0,0,0.1,0,0.1-0.1v-0.3c0,0,0-0.1-0.1-0.1h-0.6c0,0-0.1,0-0.1,0.1L22.6,15.6
				C22.5,15.5,22.6,15.6,22.6,15.6z M22.6,16.4h0.6c0,0,0.1,0,0.1-0.1v-0.6c0,0,0-0.1-0.1-0.1h-0.6c0,0-0.1,0-0.1,0.1L22.6,16.4
				C22.5,16.4,22.6,16.4,22.6,16.4z M17.1,15.1h-0.6c0,0-0.1,0-0.1,0.1v0.3c0,0,0,0.1,0.1,0.1h0.6c0,0,0.1,0,0.1-0.1L17.1,15.1
				C17.2,15.2,17.1,15.1,17.1,15.1z M20.6,16.4h0.6c0,0,0.1,0,0.1-0.1v-0.6c0,0,0-0.1-0.1-0.1h-0.6c0,0-0.1,0-0.1,0.1L20.6,16.4
				C20.5,16.4,20.5,16.4,20.6,16.4z M21.6,16.4h0.6c0,0,0.1,0,0.1-0.1v-0.6c0,0,0-0.1-0.1-0.1h-0.6c0,0-0.1,0-0.1,0.1L21.6,16.4
				C21.5,16.4,21.5,16.4,21.6,16.4z M20.6,17.2h0.6c0,0,0.1,0,0.1-0.1v-0.6c0,0,0-0.1-0.1-0.1h-0.6c0,0-0.1,0-0.1,0.1L20.6,17.2
				C20.5,17.2,20.5,17.2,20.6,17.2z M20.6,15.6h0.6c0,0,0.1,0,0.1-0.1v-0.3c0,0,0-0.1-0.1-0.1h-0.6c0,0-0.1,0-0.1,0.1L20.6,15.6
				C20.5,15.5,20.5,15.6,20.6,15.6z M21.6,19.1h0.6c0,0,0.1,0,0.1-0.1v-0.6c0,0,0-0.1-0.1-0.1h-0.6c0,0-0.1,0-0.1,0.1L21.6,19.1
				C21.5,19.1,21.5,19.1,21.6,19.1z M21.6,17.2h0.6c0,0,0.1,0,0.1-0.1v-0.6c0,0,0-0.1-0.1-0.1h-0.6c0,0-0.1,0-0.1,0.1L21.6,17.2
				C21.5,17.2,21.5,17.2,21.6,17.2z M21.6,18.2h0.6c0,0,0.1,0,0.1-0.1v-0.6c0,0,0-0.1-0.1-0.1h-0.6c0,0-0.1,0-0.1,0.1L21.6,18.2
				C21.5,18.1,21.5,18.2,21.6,18.2z M16.1,19.3h-0.6c0,0-0.1,0-0.1,0.1v0.6c0,0,0,0.1,0.1,0.1h0.6c0,0,0.1,0,0.1-0.1L16.1,19.3
				C16.2,19.3,16.1,19.3,16.1,19.3z M25.3,17.5h-0.6c0,0-0.1,0-0.1,0.1v0.6c0,0,0,0.1,0.1,0.1h0.6c0,0,0.1,0,0.1-0.1L25.3,17.5
				C25.3,17.5,25.3,17.5,25.3,17.5z M25.3,16.5h-0.6c0,0-0.1,0-0.1,0.1v0.6c0,0,0,0.1,0.1,0.1h0.6c0,0,0.1,0,0.1-0.1L25.3,16.5
				C25.3,16.6,25.3,16.5,25.3,16.5z M26.3,19.3h-0.6c0,0-0.1,0-0.1,0.1v0.6c0,0,0,0.1,0.1,0.1h0.6c0,0,0.1,0,0.1-0.1L26.3,19.3
				C26.3,19.3,26.3,19.3,26.3,19.3z M25.3,15.1h-0.6c0,0-0.1,0-0.1,0.1v0.3c0,0,0,0.1,0.1,0.1h0.6c0,0,0.1,0,0.1-0.1L25.3,15.1
				C25.3,15.2,25.3,15.1,25.3,15.1z M25.3,15.7h-0.6c0,0-0.1,0-0.1,0.1v0.6c0,0,0,0.1,0.1,0.1h0.6c0,0,0.1,0,0.1-0.1L25.3,15.7
				C25.3,15.7,25.3,15.7,25.3,15.7z M24.2,15.7h-0.6c0,0-0.1,0-0.1,0.1v0.6c0,0,0,0.1,0.1,0.1h0.6c0,0,0.1,0,0.1-0.1L24.2,15.7
				C24.3,15.7,24.3,15.7,24.2,15.7z M24.2,15.1h-0.6c0,0-0.1,0-0.1,0.1v0.3c0,0,0,0.1,0.1,0.1h0.6c0,0,0.1,0,0.1-0.1L24.2,15.1
				C24.3,15.2,24.3,15.1,24.2,15.1z M25.3,19.3h-0.6c0,0-0.1,0-0.1,0.1v0.6c0,0,0,0.1,0.1,0.1h0.6c0,0,0.1,0,0.1-0.1L25.3,19.3
				C25.3,19.3,25.3,19.3,25.3,19.3z M25.3,18.4h-0.6c0,0-0.1,0-0.1,0.1V19c0,0,0,0.1,0.1,0.1h0.6c0,0,0.1,0,0.1-0.1L25.3,18.4
				C25.3,18.4,25.3,18.4,25.3,18.4z M27.3,15.7h-1.6c0,0-0.1,0-0.1,0.1v0.6c0,0,0,0.1,0.1,0.1h1.6c0,0,0.1,0,0.1-0.1L27.3,15.7
				C27.4,15.7,27.3,15.7,27.3,15.7z M27.3,15.1h-0.6c0,0-0.1,0-0.1,0.1v0.3c0,0,0,0.1,0.1,0.1h0.6c0,0,0.1,0,0.1-0.1L27.3,15.1
				C27.4,15.2,27.3,15.1,27.3,15.1z M27.3,16.5h-1.6c0,0-0.1,0-0.1,0.1v0.6c0,0,0,0.1,0.1,0.1h0.9c0,0,0.1,0,0.1,0.1v0.8
				c0,0,0,0.1,0.1,0.1h0.6c0,0,0.1,0,0.1-0.1L27.3,16.5C27.4,16.6,27.3,16.5,27.3,16.5z M18.1,19.3h-0.6c0,0-0.1,0-0.1,0.1v0.6
				c0,0,0,0.1,0.1,0.1h0.6c0,0,0.1,0,0.1-0.1L18.1,19.3C18.2,19.3,18.2,19.3,18.1,19.3z M26.3,18.4h-0.6c0,0-0.1,0-0.1,0.1V19
				c0,0,0,0.1,0.1,0.1h0.6c0,0,0.1,0,0.1-0.1L26.3,18.4C26.3,18.4,26.3,18.4,26.3,18.4z M26.3,17.5h-0.6c0,0-0.1,0-0.1,0.1v0.6
				c0,0,0,0.1,0.1,0.1h0.6c0,0,0.1,0,0.1-0.1L26.3,17.5C26.3,17.5,26.3,17.5,26.3,17.5z M27.3,19.3h-0.6c0,0-0.1,0-0.1,0.1v0.6
				c0,0,0,0.1,0.1,0.1h0.6c0,0,0.1,0,0.1-0.1L27.3,19.3C27.4,19.3,27.3,19.3,27.3,19.3z M27.3,18.4h-0.6c0,0-0.1,0-0.1,0.1V19
				c0,0,0,0.1,0.1,0.1h0.6c0,0,0.1,0,0.1-0.1L27.3,18.4C27.4,18.4,27.3,18.4,27.3,18.4z M19.1,18.4h-0.6c0,0-0.1,0-0.1,0.1V19
				c0,0,0,0.1,0.1,0.1h0.6c0,0,0.1,0,0.1-0.1L19.1,18.4C19.2,18.4,19.2,18.4,19.1,18.4z M18.1,15.7h-0.6c0,0-0.1,0-0.1,0.1v0.6
				c0,0,0,0.1,0.1,0.1h0.6c0,0,0.1,0,0.1-0.1L18.1,15.7C18.2,15.7,18.2,15.7,18.1,15.7z M19.1,19.3h-0.6c0,0-0.1,0-0.1,0.1v0.6
				c0,0,0,0.1,0.1,0.1h0.6c0,0,0.1,0,0.1-0.1L19.1,19.3C19.2,19.3,19.2,19.3,19.1,19.3z M18.1,15.1h-0.6c0,0-0.1,0-0.1,0.1v0.3
				c0,0,0,0.1,0.1,0.1h0.6c0,0,0.1,0,0.1-0.1L18.1,15.1C18.2,15.2,18.2,15.1,18.1,15.1z M24.2,16.5h-0.6c0,0-0.1,0-0.1,0.1v0.6
				c0,0,0,0.1,0.1,0.1h0.6c0,0,0.1,0,0.1-0.1L24.2,16.5C24.3,16.6,24.3,16.5,24.2,16.5z M18.1,18.4h-0.6c0,0-0.1,0-0.1,0.1V19
				c0,0,0,0.1,0.1,0.1h0.6c0,0,0.1,0,0.1-0.1L18.1,18.4C18.2,18.4,18.2,18.4,18.1,18.4z M18.1,17.5h-0.6c0,0-0.1,0-0.1,0.1v0.6
				c0,0,0,0.1,0.1,0.1h0.6c0,0,0.1,0,0.1-0.1L18.1,17.5C18.2,17.5,18.2,17.5,18.1,17.5z M18.1,16.5h-0.6c0,0-0.1,0-0.1,0.1v0.6
				c0,0,0,0.1,0.1,0.1h0.6c0,0,0.1,0,0.1-0.1L18.1,16.5C18.2,16.6,18.2,16.5,18.1,16.5z M19.1,17.5h-0.6c0,0-0.1,0-0.1,0.1v0.6
				c0,0,0,0.1,0.1,0.1h0.6c0,0,0.1,0,0.1-0.1L19.1,17.5C19.2,17.5,19.2,17.5,19.1,17.5z M24.2,17.5h-0.6c0,0-0.1,0-0.1,0.1v0.6
				c0,0,0,0.1,0.1,0.1h0.6c0,0,0.1,0,0.1-0.1L24.2,17.5C24.3,17.5,24.3,17.5,24.2,17.5z M24.2,19.3h-4.7c0,0-0.1,0-0.1,0.1v0.6
				c0,0,0,0.1,0.1,0.1h4.7c0,0,0.1,0,0.1-0.1L24.2,19.3C24.3,19.3,24.3,19.3,24.2,19.3z M24.2,18.4h-0.6c0,0-0.1,0-0.1,0.1V19
				c0,0,0,0.1,0.1,0.1h0.6c0,0,0.1,0,0.1-0.1L24.2,18.4C24.3,18.4,24.3,18.4,24.2,18.4z M19.1,16.5h-0.6c0,0-0.1,0-0.1,0.1v0.6
				c0,0,0,0.1,0.1,0.1h0.6c0,0,0.1,0,0.1-0.1L19.1,16.5C19.2,16.6,19.2,16.5,19.1,16.5z M19.1,15.7h-0.6c0,0-0.1,0-0.1,0.1v0.6
				c0,0,0,0.1,0.1,0.1h0.6c0,0,0.1,0,0.1-0.1L19.1,15.7C19.2,15.7,19.2,15.7,19.1,15.7z M19.1,15.1h-0.6c0,0-0.1,0-0.1,0.1v0.3
				c0,0,0,0.1,0.1,0.1h0.6c0,0,0.1,0,0.1-0.1L19.1,15.1C19.2,15.2,19.2,15.1,19.1,15.1z"/>
			<g>
				<path class="st6" d="M15.5,15.1h0.6c0,0,0.1,0,0.1,0.1v0c0,0,0-0.1-0.1-0.1L15.5,15.1C15.4,15.1,15.4,15.2,15.5,15.1L15.5,15.1
					C15.4,15.2,15.4,15.1,15.5,15.1z"/>
				<path class="st6" d="M15.5,15.7h0.6c0,0,0.1,0,0.1,0.1v0c0,0,0-0.1-0.1-0.1L15.5,15.7C15.4,15.7,15.4,15.7,15.5,15.7L15.5,15.7
					C15.4,15.7,15.4,15.7,15.5,15.7z"/>
				<path class="st6" d="M19.5,18.4h0.6c0,0,0.1,0,0.1,0.1v0c0,0,0-0.1-0.1-0.1L19.5,18.4C19.5,18.4,19.5,18.4,19.5,18.4L19.5,18.4
					C19.5,18.4,19.5,18.4,19.5,18.4z"/>
				<path class="st6" d="M19.5,16.5h0.6c0,0,0.1,0,0.1,0.1v0c0,0,0-0.1-0.1-0.1L19.5,16.5C19.5,16.5,19.5,16.6,19.5,16.5L19.5,16.5
					C19.5,16.6,19.5,16.5,19.5,16.5z"/>
				<path class="st6" d="M19.5,15.7h0.6c0,0,0.1,0,0.1,0.1v0c0,0,0-0.1-0.1-0.1L19.5,15.7C19.5,15.7,19.5,15.7,19.5,15.7L19.5,15.7
					C19.5,15.7,19.5,15.7,19.5,15.7z"/>
				<path class="st6" d="M19.5,17.5h0.6c0,0,0.1,0,0.1,0.1v0c0,0,0-0.1-0.1-0.1L19.5,17.5C19.5,17.5,19.5,17.5,19.5,17.5L19.5,17.5
					C19.5,17.5,19.5,17.5,19.5,17.5z"/>
				<path class="st6" d="M16.1,19.3h-0.6c0,0-0.1,0-0.1,0.1v0c0,0,0-0.1,0.1-0.1L16.1,19.3C16.1,19.3,16.2,19.3,16.1,19.3L16.1,19.3
					C16.2,19.3,16.1,19.3,16.1,19.3z"/>
				<path class="st6" d="M17.1,17.5h-0.6c0,0-0.1,0-0.1,0.1v0c0,0,0-0.1,0.1-0.1L17.1,17.5C17.1,17.5,17.2,17.5,17.1,17.5L17.1,17.5
					C17.2,17.5,17.1,17.5,17.1,17.5z"/>
				<path class="st6" d="M16.1,18.4h-0.6c0,0-0.1,0-0.1,0.1v0c0,0,0-0.1,0.1-0.1L16.1,18.4C16.1,18.4,16.2,18.4,16.1,18.4L16.1,18.4
					C16.2,18.4,16.1,18.4,16.1,18.4z"/>
				<path class="st6" d="M19.5,15.1h0.6c0,0,0.1,0,0.1,0.1v0c0,0,0-0.1-0.1-0.1L19.5,15.1C19.5,15.1,19.5,15.2,19.5,15.1L19.5,15.1
					C19.5,15.2,19.5,15.1,19.5,15.1z"/>
				<path class="st6" d="M17.1,15.7h-0.6c0,0-0.1,0-0.1,0.1v0c0,0,0-0.1,0.1-0.1L17.1,15.7C17.1,15.7,17.2,15.7,17.1,15.7L17.1,15.7
					C17.2,15.7,17.1,15.7,17.1,15.7z"/>
				<path class="st6" d="M17.1,16.5h-1.6c0,0-0.1,0-0.1,0.1v0c0,0,0-0.1,0.1-0.1L17.1,16.5C17.1,16.5,17.2,16.6,17.1,16.5L17.1,16.5
					C17.2,16.6,17.1,16.5,17.1,16.5z"/>
				<path class="st6" d="M16.1,17.5h-0.6c0,0-0.1,0-0.1,0.1v0c0,0,0-0.1,0.1-0.1L16.1,17.5C16.1,17.5,16.2,17.5,16.1,17.5L16.1,17.5
					C16.2,17.5,16.1,17.5,16.1,17.5z"/>
				<path class="st6" d="M17.1,19.3h-0.6c0,0-0.1,0-0.1,0.1v0c0,0,0-0.1,0.1-0.1L17.1,19.3C17.1,19.3,17.2,19.3,17.1,19.3L17.1,19.3
					C17.2,19.3,17.1,19.3,17.1,19.3z"/>
				<path class="st6" d="M17.1,18.4h-0.6c0,0-0.1,0-0.1,0.1v0c0,0,0-0.1,0.1-0.1L17.1,18.4C17.1,18.4,17.2,18.4,17.1,18.4L17.1,18.4
					C17.2,18.4,17.1,18.4,17.1,18.4z"/>
				<path class="st6" d="M22.6,18.4h0.6c0,0,0.1,0,0.1,0.1v0c0,0,0-0.1-0.1-0.1L22.6,18.4C22.6,18.4,22.5,18.4,22.6,18.4L22.6,18.4
					C22.5,18.4,22.6,18.4,22.6,18.4z"/>
				<path class="st6" d="M22.6,16.5h0.6c0,0,0.1,0,0.1,0.1v0c0,0,0-0.1-0.1-0.1L22.6,16.5C22.6,16.5,22.5,16.6,22.6,16.5L22.6,16.5
					C22.5,16.6,22.6,16.5,22.6,16.5z"/>
				<path class="st6" d="M22.6,17.5h0.6c0,0,0.1,0,0.1,0.1v0c0,0,0-0.1-0.1-0.1L22.6,17.5C22.6,17.5,22.5,17.5,22.6,17.5L22.6,17.5
					C22.5,17.5,22.6,17.5,22.6,17.5z"/>
				<path class="st6" d="M17.1,15.1h-0.6c0,0-0.1,0-0.1,0.1v0c0,0,0-0.1,0.1-0.1L17.1,15.1C17.1,15.1,17.2,15.2,17.1,15.1L17.1,15.1
					C17.2,15.2,17.1,15.1,17.1,15.1z"/>
				<path class="st6" d="M21.6,15.1h0.6c0,0,0.1,0,0.1,0.1v0c0,0,0-0.1-0.1-0.1L21.6,15.1C21.5,15.1,21.5,15.2,21.6,15.1L21.6,15.1
					C21.5,15.2,21.5,15.1,21.6,15.1z"/>
				<path class="st6" d="M21.6,15.7h0.6c0,0,0.1,0,0.1,0.1v0c0,0,0-0.1-0.1-0.1L21.6,15.7C21.5,15.7,21.5,15.7,21.6,15.7L21.6,15.7
					C21.5,15.7,21.5,15.7,21.6,15.7z"/>
				<path class="st6" d="M25.7,15.1h0.6c0,0,0.1,0,0.1,0.1v0c0,0,0-0.1-0.1-0.1L25.7,15.1C25.6,15.1,25.6,15.2,25.7,15.1L25.7,15.1
					C25.6,15.2,25.6,15.1,25.7,15.1z"/>
				<path class="st6" d="M22.6,15.7h0.6c0,0,0.1,0,0.1,0.1v0c0,0,0-0.1-0.1-0.1L22.6,15.7C22.6,15.7,22.5,15.7,22.6,15.7L22.6,15.7
					C22.5,15.7,22.6,15.7,22.6,15.7z"/>
				<path class="st6" d="M22.6,15.1h0.6c0,0,0.1,0,0.1,0.1v0c0,0,0-0.1-0.1-0.1L22.6,15.1C22.6,15.1,22.5,15.2,22.6,15.1L22.6,15.1
					C22.5,15.2,22.6,15.1,22.6,15.1z"/>
				<path class="st6" d="M21.6,16.5h0.6c0,0,0.1,0,0.1,0.1v0c0,0,0-0.1-0.1-0.1L21.6,16.5C21.5,16.5,21.5,16.6,21.6,16.5L21.6,16.5
					C21.5,16.6,21.5,16.5,21.6,16.5z"/>
				<path class="st6" d="M20.6,15.7h0.6c0,0,0.1,0,0.1,0.1v0c0,0,0-0.1-0.1-0.1L20.6,15.7C20.5,15.7,20.5,15.7,20.6,15.7L20.6,15.7
					C20.5,15.7,20.5,15.7,20.6,15.7z"/>
				<path class="st6" d="M20.6,16.5h0.6c0,0,0.1,0,0.1,0.1v0c0,0,0-0.1-0.1-0.1L20.6,16.5C20.5,16.5,20.5,16.6,20.6,16.5L20.6,16.5
					C20.5,16.6,20.5,16.5,20.6,16.5z"/>
				<path class="st6" d="M20.6,17.5h0.6c0,0,0.1,0,0.1,0.1v0c0,0,0-0.1-0.1-0.1L20.6,17.5C20.5,17.5,20.5,17.5,20.6,17.5L20.6,17.5
					C20.5,17.5,20.5,17.5,20.6,17.5z"/>
				<path class="st6" d="M21.6,17.5h0.6c0,0,0.1,0,0.1,0.1v0c0,0,0-0.1-0.1-0.1L21.6,17.5C21.5,17.5,21.5,17.5,21.6,17.5L21.6,17.5
					C21.5,17.5,21.5,17.5,21.6,17.5z"/>
				<path class="st6" d="M20.6,18.4h0.6c0,0,0.1,0,0.1,0.1v0c0,0,0-0.1-0.1-0.1L20.6,18.4C20.5,18.4,20.5,18.4,20.6,18.4L20.6,18.4
					C20.5,18.4,20.5,18.4,20.6,18.4z"/>
				<path class="st6" d="M20.6,15.1h0.6c0,0,0.1,0,0.1,0.1v0c0,0,0-0.1-0.1-0.1L20.6,15.1C20.5,15.1,20.5,15.2,20.6,15.1L20.6,15.1
					C20.5,15.2,20.5,15.1,20.6,15.1z"/>
				<path class="st6" d="M21.6,18.4h0.6c0,0,0.1,0,0.1,0.1v0c0,0,0-0.1-0.1-0.1L21.6,18.4C21.5,18.4,21.5,18.4,21.6,18.4L21.6,18.4
					C21.5,18.4,21.5,18.4,21.6,18.4z"/>
				<path class="st6" d="M24.2,19.3h-4.7c0,0-0.1,0-0.1,0.1v0c0,0,0-0.1,0.1-0.1L24.2,19.3C24.3,19.3,24.3,19.3,24.2,19.3L24.2,19.3
					C24.3,19.3,24.3,19.3,24.2,19.3z"/>
				<path class="st6" d="M26.3,19.3h-0.6c0,0-0.1,0-0.1,0.1v0c0,0,0-0.1,0.1-0.1L26.3,19.3C26.3,19.3,26.3,19.3,26.3,19.3L26.3,19.3
					C26.3,19.3,26.3,19.3,26.3,19.3z"/>
				<path class="st6" d="M25.3,15.1h-0.6c0,0-0.1,0-0.1,0.1v0c0,0,0-0.1,0.1-0.1L25.3,15.1C25.3,15.1,25.3,15.2,25.3,15.1L25.3,15.1
					C25.3,15.2,25.3,15.1,25.3,15.1z"/>
				<path class="st6" d="M25.3,16.5h-0.6c0,0-0.1,0-0.1,0.1v0c0,0,0-0.1,0.1-0.1L25.3,16.5C25.3,16.5,25.3,16.6,25.3,16.5L25.3,16.5
					C25.3,16.6,25.3,16.5,25.3,16.5z"/>
				<path class="st6" d="M25.3,15.7h-0.6c0,0-0.1,0-0.1,0.1v0c0,0,0-0.1,0.1-0.1L25.3,15.7C25.3,15.7,25.3,15.7,25.3,15.7L25.3,15.7
					C25.3,15.7,25.3,15.7,25.3,15.7z"/>
				<path class="st6" d="M25.3,17.5h-0.6c0,0-0.1,0-0.1,0.1v0c0,0,0-0.1,0.1-0.1L25.3,17.5C25.3,17.5,25.3,17.5,25.3,17.5L25.3,17.5
					C25.3,17.5,25.3,17.5,25.3,17.5z"/>
				<path class="st6" d="M25.3,19.3h-0.6c0,0-0.1,0-0.1,0.1v0c0,0,0-0.1,0.1-0.1L25.3,19.3C25.3,19.3,25.3,19.3,25.3,19.3L25.3,19.3
					C25.3,19.3,25.3,19.3,25.3,19.3z"/>
				<path class="st6" d="M25.3,18.4h-0.6c0,0-0.1,0-0.1,0.1v0c0,0,0-0.1,0.1-0.1L25.3,18.4C25.3,18.4,25.3,18.4,25.3,18.4L25.3,18.4
					C25.3,18.4,25.3,18.4,25.3,18.4z"/>
				<path class="st6" d="M27.3,15.1h-0.6c0,0-0.1,0-0.1,0.1v0c0,0,0-0.1,0.1-0.1L27.3,15.1C27.3,15.1,27.4,15.2,27.3,15.1L27.3,15.1
					C27.4,15.2,27.3,15.1,27.3,15.1z"/>
				<path class="st6" d="M26.3,18.4h-0.6c0,0-0.1,0-0.1,0.1v0c0,0,0-0.1,0.1-0.1L26.3,18.4C26.3,18.4,26.3,18.4,26.3,18.4L26.3,18.4
					C26.3,18.4,26.3,18.4,26.3,18.4z"/>
				<path class="st6" d="M24.2,15.1h-0.6c0,0-0.1,0-0.1,0.1v0c0,0,0-0.1,0.1-0.1L24.2,15.1C24.3,15.1,24.3,15.2,24.2,15.1L24.2,15.1
					C24.3,15.2,24.3,15.1,24.2,15.1z"/>
				<path class="st6" d="M27.3,16.5h-1.6c0,0-0.1,0-0.1,0.1v0c0,0,0-0.1,0.1-0.1L27.3,16.5C27.3,16.5,27.4,16.6,27.3,16.5L27.3,16.5
					C27.4,16.6,27.3,16.5,27.3,16.5z"/>
				<path class="st6" d="M27.3,15.7h-1.6c0,0-0.1,0-0.1,0.1v0c0,0,0-0.1,0.1-0.1L27.3,15.7C27.3,15.7,27.4,15.7,27.3,15.7L27.3,15.7
					C27.4,15.7,27.3,15.7,27.3,15.7z"/>
				<path class="st6" d="M27.3,18.4h-0.6c0,0-0.1,0-0.1,0.1v0c0,0,0-0.1,0.1-0.1L27.3,18.4C27.3,18.4,27.4,18.4,27.3,18.4L27.3,18.4
					C27.4,18.4,27.3,18.4,27.3,18.4z"/>
				<path class="st6" d="M26.3,17.5h-0.6c0,0-0.1,0-0.1,0.1v0c0,0,0-0.1,0.1-0.1L26.3,17.5C26.3,17.5,26.3,17.5,26.3,17.5L26.3,17.5
					C26.3,17.5,26.3,17.5,26.3,17.5z"/>
				<path class="st6" d="M27.3,19.3h-0.6c0,0-0.1,0-0.1,0.1v0c0,0,0-0.1,0.1-0.1L27.3,19.3C27.3,19.3,27.4,19.3,27.3,19.3L27.3,19.3
					C27.4,19.3,27.3,19.3,27.3,19.3z"/>
				<path class="st6" d="M19.1,18.4h-0.6c0,0-0.1,0-0.1,0.1v0c0,0,0-0.1,0.1-0.1L19.1,18.4C19.2,18.4,19.2,18.4,19.1,18.4L19.1,18.4
					C19.2,18.4,19.2,18.4,19.1,18.4z"/>
				<path class="st6" d="M18.1,15.1h-0.6c0,0-0.1,0-0.1,0.1v0c0,0,0-0.1,0.1-0.1L18.1,15.1C18.2,15.1,18.2,15.2,18.1,15.1L18.1,15.1
					C18.2,15.2,18.2,15.1,18.1,15.1z"/>
				<path class="st6" d="M19.1,19.3h-0.6c0,0-0.1,0-0.1,0.1v0c0,0,0-0.1,0.1-0.1L19.1,19.3C19.2,19.3,19.2,19.3,19.1,19.3L19.1,19.3
					C19.2,19.3,19.2,19.3,19.1,19.3z"/>
				<path class="st6" d="M18.1,19.3h-0.6c0,0-0.1,0-0.1,0.1v0c0,0,0-0.1,0.1-0.1L18.1,19.3C18.2,19.3,18.2,19.3,18.1,19.3L18.1,19.3
					C18.2,19.3,18.2,19.3,18.1,19.3z"/>
				<path class="st6" d="M18.1,15.7h-0.6c0,0-0.1,0-0.1,0.1v0c0,0,0-0.1,0.1-0.1L18.1,15.7C18.2,15.7,18.2,15.7,18.1,15.7L18.1,15.7
					C18.2,15.7,18.2,15.7,18.1,15.7z"/>
				<path class="st6" d="M18.1,18.4h-0.6c0,0-0.1,0-0.1,0.1v0c0,0,0-0.1,0.1-0.1L18.1,18.4C18.2,18.4,18.2,18.4,18.1,18.4L18.1,18.4
					C18.2,18.4,18.2,18.4,18.1,18.4z"/>
				<path class="st6" d="M18.1,16.5h-0.6c0,0-0.1,0-0.1,0.1v0c0,0,0-0.1,0.1-0.1L18.1,16.5C18.2,16.5,18.2,16.6,18.1,16.5L18.1,16.5
					C18.2,16.6,18.2,16.5,18.1,16.5z"/>
				<path class="st6" d="M18.1,17.5h-0.6c0,0-0.1,0-0.1,0.1v0c0,0,0-0.1,0.1-0.1L18.1,17.5C18.2,17.5,18.2,17.5,18.1,17.5L18.1,17.5
					C18.2,17.5,18.2,17.5,18.1,17.5z"/>
				<path class="st6" d="M24.2,17.5h-0.6c0,0-0.1,0-0.1,0.1v0c0,0,0-0.1,0.1-0.1L24.2,17.5C24.3,17.5,24.3,17.5,24.2,17.5L24.2,17.5
					C24.3,17.5,24.3,17.5,24.2,17.5z"/>
				<path class="st6" d="M24.2,18.4h-0.6c0,0-0.1,0-0.1,0.1v0c0,0,0-0.1,0.1-0.1L24.2,18.4C24.3,18.4,24.3,18.4,24.2,18.4L24.2,18.4
					C24.3,18.4,24.3,18.4,24.2,18.4z"/>
				<path class="st6" d="M24.2,15.7h-0.6c0,0-0.1,0-0.1,0.1v0c0,0,0-0.1,0.1-0.1L24.2,15.7C24.3,15.7,24.3,15.7,24.2,15.7L24.2,15.7
					C24.3,15.7,24.3,15.7,24.2,15.7z"/>
				<path class="st6" d="M24.2,16.5h-0.6c0,0-0.1,0-0.1,0.1v0c0,0,0-0.1,0.1-0.1L24.2,16.5C24.3,16.5,24.3,16.6,24.2,16.5L24.2,16.5
					C24.3,16.6,24.3,16.5,24.2,16.5z"/>
				<path class="st6" d="M19.1,15.1h-0.6c0,0-0.1,0-0.1,0.1v0c0,0,0-0.1,0.1-0.1L19.1,15.1C19.2,15.1,19.2,15.2,19.1,15.1L19.1,15.1
					C19.2,15.2,19.2,15.1,19.1,15.1z"/>
				<path class="st6" d="M19.1,16.5h-0.6c0,0-0.1,0-0.1,0.1v0c0,0,0-0.1,0.1-0.1L19.1,16.5C19.2,16.5,19.2,16.6,19.1,16.5L19.1,16.5
					C19.2,16.6,19.2,16.5,19.1,16.5z"/>
				<path class="st6" d="M19.1,15.7h-0.6c0,0-0.1,0-0.1,0.1v0c0,0,0-0.1,0.1-0.1L19.1,15.7C19.2,15.7,19.2,15.7,19.1,15.7L19.1,15.7
					C19.2,15.7,19.2,15.7,19.1,15.7z"/>
				<path class="st6" d="M19.1,17.5h-0.6c0,0-0.1,0-0.1,0.1v0c0,0,0-0.1,0.1-0.1L19.1,17.5C19.2,17.5,19.2,17.5,19.1,17.5L19.1,17.5
					C19.2,17.5,19.2,17.5,19.1,17.5z"/>
			</g>
			<g>
				<g>
					<path class="st3" d="M22.9,22.9h-3.2c-0.2,0-0.3-0.1-0.3-0.3v-1.6c0-0.2,0.1-0.3,0.3-0.3h3.2c0.2,0,0.3,0.1,0.3,0.3v1.6
						C23.3,22.7,23.1,22.9,22.9,22.9z"/>
					<path class="st4" d="M22.9,22.8h-3.2c-0.2,0-0.3-0.1-0.3-0.3v-1.6c0-0.2,0.1-0.3,0.3-0.3h3.2c0.2,0,0.3,0.1,0.3,0.3v1.6
						C23.3,22.7,23.1,22.8,22.9,22.8z"/>
				</g>
				<rect x="19.4" y="22.4" class="st3" width="3.8" height="0"/>
				<rect x="19.4" y="22.4" class="st7" width="3.8" height="0"/>
			</g>
		</g>
		<g>
			<path class="st8" d="M28.7,13.6H14c-0.1,0-0.3-0.1-0.3-0.2l-1.3-3.4c0-0.3,0.2-0.5,0.4-0.5h17.1c0.3,0,0.4,0.3,0.4,0.5L29,13.3
				C28.9,13.5,28.8,13.6,28.7,13.6z"/>
		</g>
		<path class="st9" d="M12.8,9.5h17.1c0.2,0,0.4,0.2,0.4,0.4c0-0.2-0.2-0.4-0.4-0.4L12.8,9.5c-0.2,0-0.4,0.2-0.4,0.4
			C12.4,9.6,12.6,9.5,12.8,9.5z"/>
		<g>
			<path class="st10" d="M28.7,13.7H14c-0.1,0-0.3-0.1-0.3-0.2L12.4,10c-0.1-0.2,0.1-0.4,0.3-0.4H30c0.2,0,0.4,0.2,0.3,0.4L29,13.5
				C29,13.6,28.9,13.7,28.7,13.7z"/>
		</g>
		<g>
			<path class="st5" d="M30,9.6H12.7c-0.2,0-0.4,0.2-0.3,0.4l1.2,3.3h15.5l1.2-3.3C30.4,9.8,30.2,9.6,30,9.6z"/>
		</g>
		<g>
			<polygon class="st11" points="12.8,10 13.9,13.2 28.7,13.2 29.9,10 			"/>
		</g>
		<g>
			<path class="st9" d="M29.4,12.2l0.9-2.2c0.1-0.2-0.1-0.4-0.3-0.4H12.7c-0.2,0-0.3,0.2-0.3,0.4l0.8,2.1L12.5,10c0-0.1,0-0.2,0-0.2
				c0.1-0.1,0.1-0.1,0.2-0.1H30c0.1,0,0.2,0,0.2,0.1c0.1,0.1,0.1,0.2,0,0.2L29.4,12.2z"/>
		</g>
		<g>
			<path class="st12" d="M30,9.7c0.1,0,0.2,0,0.2,0.1c0.1,0.1,0.1,0.2,0,0.2L29,13.5c0,0.1-0.1,0.2-0.3,0.2H14
				c-0.1,0-0.2-0.1-0.3-0.2L12.5,10c0-0.1,0-0.2,0-0.2c0.1-0.1,0.1-0.1,0.2-0.1H30 M30,9.6H12.7c-0.2,0-0.4,0.2-0.3,0.4l1.2,3.5
				c0,0.1,0.2,0.2,0.3,0.2h14.7c0.1,0,0.3-0.1,0.3-0.2l1.2-3.5C30.4,9.8,30.2,9.6,30,9.6L30,9.6z"/>
		</g>
		<ellipse class="st13" cx="27.9" cy="14.3" rx="0.3" ry="0.3"/>
		<circle class="st14" cx="27.9" cy="14.3" r="0.3"/>
		<circle class="st1" cx="27.9" cy="14.3" r="0.3"/>
		<path class="st13" d="M27.9,14.6c-0.1,0-0.3-0.1-0.3-0.3c0,0,0,0,0,0C27.6,14.5,27.7,14.6,27.9,14.6c0.2,0,0.3-0.1,0.3-0.3
			c0,0,0,0,0,0C28.1,14.5,28,14.6,27.9,14.6z"/>
		<g>
			<polygon class="st15" points="13.1,10.9 29.6,10.9 29.9,10 12.8,10 			"/>
		</g>
		<g>
			<polygon class="st16" points="29.9,10 29.9,10 12.8,10 12.8,10 			"/>
		</g>
		<g>
			<g>
				<g>
					<path class="st17" d="M13.6,10.5c0,0.1,0,0.2-0.2,0.2c-0.1,0-0.3-0.1-0.3-0.2c0-0.1,0-0.2,0.2-0.2
						C13.5,10.2,13.6,10.3,13.6,10.5z"/>
				</g>
				<g>
					<path class="st18" d="M13.6,10.4c0,0.1,0,0.2-0.2,0.2s-0.3-0.1-0.3-0.2c0-0.1,0-0.2,0.2-0.2C13.5,10.2,13.6,10.3,13.6,10.4z"/>
				</g>
				<g>
					<path class="st19" d="M13.6,10.4c0,0.1,0,0.2-0.1,0.2c-0.1,0-0.2-0.1-0.2-0.2c0-0.1,0-0.2,0.1-0.2S13.5,10.4,13.6,10.4z"/>
				</g>
				<g>
					<path class="st20" d="M13.4,10.3c0.1,0,0.2,0.1,0.2,0.2c0,0,0,0,0,0C13.5,10.4,13.5,10.3,13.4,10.3c-0.1,0-0.1,0.1-0.1,0.1
						c0,0,0,0,0,0C13.2,10.4,13.3,10.3,13.4,10.3z"/>
				</g>
			</g>
			<g>
				<g>
					<path class="st17" d="M14.2,10.5c0,0.1,0,0.2-0.2,0.2s-0.3-0.1-0.3-0.2c0-0.1,0-0.2,0.2-0.2S14.2,10.3,14.2,10.5z"/>
				</g>
				<g>
					<path class="st18" d="M14.2,10.4c0,0.1,0,0.2-0.2,0.2s-0.3-0.1-0.3-0.2c0-0.1,0-0.2,0.2-0.2S14.2,10.3,14.2,10.4z"/>
				</g>
				<g>
					<path class="st21" d="M14.2,10.4c0,0.1,0,0.2-0.1,0.2c-0.1,0-0.2-0.1-0.2-0.2c0-0.1,0-0.2,0.1-0.2
						C14.1,10.3,14.2,10.4,14.2,10.4z"/>
				</g>
				<g>
					<path class="st22" d="M14,10.3c0.1,0,0.2,0.1,0.2,0.2c0,0,0,0,0,0C14.2,10.4,14.1,10.3,14,10.3c-0.1,0-0.1,0.1-0.1,0.1
						c0,0,0,0,0,0C13.8,10.4,13.9,10.3,14,10.3z"/>
				</g>
			</g>
			<g>
				<g>
					<path class="st17" d="M14.8,10.5c0,0.1,0,0.2-0.2,0.2c-0.1,0-0.3-0.1-0.3-0.2c0-0.1,0-0.2,0.2-0.2S14.8,10.3,14.8,10.5z"/>
				</g>
				<g>
					<path class="st18" d="M14.8,10.4c0,0.1,0,0.2-0.2,0.2c-0.1,0-0.3-0.1-0.3-0.2c0-0.1,0-0.2,0.2-0.2S14.8,10.3,14.8,10.4z"/>
				</g>
				<g>
					<path class="st23" d="M14.8,10.4c0,0.1,0,0.2-0.1,0.2s-0.2-0.1-0.2-0.2c0-0.1,0-0.2,0.1-0.2C14.7,10.3,14.8,10.4,14.8,10.4z"/>
				</g>
				<g>
					<path class="st24" d="M14.6,10.3c0.1,0,0.2,0.1,0.2,0.2c0,0,0,0,0,0C14.8,10.4,14.7,10.3,14.6,10.3c-0.1,0-0.1,0.1-0.1,0.1
						c0,0,0,0,0,0C14.4,10.4,14.5,10.3,14.6,10.3z"/>
				</g>
			</g>
		</g>
		<g>
			<line class="st25" x1="21.6" y1="11.7" x2="21.6" y2="11.3"/>
		</g>
		<g>
			<path class="st25" d="M20.6,11.4h-6.7c-0.1,0-0.1,0-0.1-0.1s0-0.1,0.1-0.1h6.7C20.6,11.2,20.7,11.3,20.6,11.4
				C20.7,11.4,20.6,11.4,20.6,11.4z"/>
		</g>
		<g>
			<path class="st26" d="M21.9,11.4h-0.8c-0.1,0-0.1,0-0.1-0.1s0-0.1,0.1-0.1h0.8C21.9,11.2,22,11.3,21.9,11.4
				C22,11.4,21.9,11.4,21.9,11.4z"/>
		</g>
		<g>
			<path class="st25" d="M24.6,11.4h-2.2c-0.1,0-0.1,0-0.1-0.1s0-0.1,0.1-0.1h2.2C24.6,11.2,24.7,11.3,24.6,11.4
				C24.7,11.4,24.6,11.4,24.6,11.4z"/>
		</g>
		<g>
			<path class="st27" d="M26,11.4h-0.4c-0.1,0-0.1,0-0.1-0.1s0-0.1,0.1-0.1H26C26,11.2,26.1,11.3,26,11.4C26.1,11.4,26,11.4,26,11.4
				z"/>
		</g>
		<g>
			<path class="st27" d="M26.7,11.4h-0.4c-0.1,0-0.1,0-0.1-0.1s0-0.1,0.1-0.1h0.4C26.8,11.2,26.8,11.3,26.7,11.4
				C26.8,11.4,26.8,11.4,26.7,11.4z"/>
		</g>
		<g>
			<path class="st26" d="M15.1,11.9H14c-0.1,0-0.1,0-0.1-0.1c0-0.1,0-0.1,0.1-0.1h1.1C15.2,11.7,15.2,11.7,15.1,11.9
				C15.2,11.9,15.2,11.9,15.1,11.9z"/>
		</g>
		<g>
			<path class="st25" d="M18.1,11.9h-2.3c-0.1,0-0.1,0-0.1-0.1c0-0.1,0-0.1,0.1-0.1h2.3C18.1,11.7,18.2,11.7,18.1,11.9
				C18.2,11.9,18.1,11.9,18.1,11.9z"/>
		</g>
		<g>
			<path class="st26" d="M22.5,11.9h-3.8c-0.1,0-0.1,0-0.1-0.1c0-0.1,0-0.1,0.1-0.1h3.8C22.6,11.7,22.6,11.7,22.5,11.9
				C22.6,11.9,22.6,11.9,22.5,11.9z"/>
		</g>
		<g>
			<path class="st28" d="M16.6,12.5h-2.5c-0.1,0-0.1,0-0.1-0.1c0-0.1,0-0.1,0.1-0.1h2.5C16.7,12.3,16.7,12.3,16.6,12.5
				C16.7,12.4,16.7,12.5,16.6,12.5z"/>
		</g>
		<g>
			<path class="st28" d="M17.4,12.5h-0.3c-0.1,0-0.1,0-0.1-0.1c0-0.1,0-0.1,0.1-0.1h0.3C17.5,12.3,17.5,12.3,17.4,12.5
				C17.5,12.4,17.5,12.5,17.4,12.5z"/>
		</g>
		<g>
			<path class="st28" d="M18.5,12.5h-0.4c-0.1,0-0.1,0-0.1-0.1c0-0.1,0-0.1,0.1-0.1h0.4C18.5,12.3,18.6,12.3,18.5,12.5
				C18.6,12.4,18.5,12.5,18.5,12.5z"/>
		</g>
		<g>
			<path class="st28" d="M19.5,12.5h-0.6c-0.1,0-0.1,0-0.1-0.1c0-0.1,0-0.1,0.1-0.1h0.6C19.5,12.3,19.6,12.3,19.5,12.5
				C19.6,12.4,19.5,12.5,19.5,12.5z"/>
		</g>
		<g>
			<path class="st28" d="M23.7,11.9H23c-0.1,0-0.1,0-0.1-0.1c0-0.1,0-0.1,0.1-0.1h0.7C23.8,11.7,23.8,11.7,23.7,11.9
				C23.8,11.9,23.8,11.9,23.7,11.9z"/>
		</g>
		<g>
			<path class="st28" d="M25.7,11.9h-1.6c-0.1,0-0.1,0-0.1-0.1c0-0.1,0-0.1,0.1-0.1h1.6C25.8,11.7,25.8,11.7,25.7,11.9
				C25.8,11.9,25.8,11.9,25.7,11.9z"/>
		</g>
		<g>
			<path class="st29" d="M16.1,13h-1.8c-0.1,0-0.1,0-0.1-0.1s0-0.1,0.1-0.1h1.8C16.1,12.8,16.2,12.8,16.1,13
				C16.2,12.9,16.1,13,16.1,13z"/>
		</g>
		<g>
			<path class="st29" d="M28.5,12.6h-3.9c-0.1,0-0.1,0-0.1-0.1s0-0.1,0.1-0.1h3.9C28.6,12.4,28.6,12.4,28.5,12.6
				C28.6,12.5,28.6,12.6,28.5,12.6z"/>
		</g>
		<g>
			<path class="st29" d="M28.3,13h-0.6c-0.1,0-0.1,0-0.1-0.1s0-0.1,0.1-0.1h0.6C28.3,12.8,28.4,12.8,28.3,13
				C28.4,12.9,28.3,13,28.3,13z"/>
		</g>
		<g>
			<path class="st29" d="M27.4,13h-0.5c-0.1,0-0.1,0-0.1-0.1s0-0.1,0.1-0.1h0.5C27.4,12.8,27.5,12.8,27.4,13
				C27.5,12.9,27.4,13,27.4,13z"/>
		</g>
		<g class="st30">
			<polygon class="st11" points="23.9,10 18,10 14.8,13.2 20.7,13.2 			"/>
			<polygon class="st11" points="28.1,10 25.7,10 22.5,13.2 24.9,13.2 			"/>
			<polygon class="st11" points="29.9,10.1 29.9,10 29.3,10 26.1,13.2 26.7,13.2 			"/>
		</g>
	</g>
	<g>
		<g>
			<path class="st31" d="M22.6,10.5H9.9c-0.2,0-0.3-0.1-0.3-0.3v-8c0-0.2,0.1-0.3,0.3-0.3h12.7c0.2,0,0.3,0.1,0.3,0.3v8
				C22.9,10.4,22.8,10.5,22.6,10.5z"/>
			<path class="st32" d="M22.6,10.5H9.9c-0.2,0-0.3-0.1-0.3-0.3v0c0,0.2,0.1,0.3,0.3,0.3L22.6,10.5c0.2,0,0.3-0.1,0.3-0.3v0
				C22.9,10.4,22.8,10.5,22.6,10.5z"/>
			<path class="st33" d="M22.6,1.8H10C9.8,1.8,9.6,2,9.6,2.2v0.1C9.6,2,9.8,1.9,10,1.9L22.6,1.8c0.2,0.1,0.4,0.3,0.4,0.5V2.2
				C22.9,2,22.8,1.8,22.6,1.8z"/>
			<path class="st33" d="M22.6,1.9H10C9.8,1.9,9.6,2,9.6,2.3v1h13.4v-1C22.9,2,22.8,1.9,22.6,1.9z"/>
			<path class="st34" d="M22.6,1.9H10C9.8,1.9,9.6,2,9.6,2.3v0c0-0.2,0.2-0.4,0.4-0.4L22.6,1.9c0.2,0,0.4,0.2,0.4,0.4v0
				C22.9,2,22.8,1.9,22.6,1.9z"/>
			<rect x="9.6" y="3.2" class="st34" width="13.4" height="0.1"/>
			<linearGradient id="SVGID_1_" gradientUnits="userSpaceOnUse" x1="10.1225" y1="6.8883" x2="22.4273" y2="6.8883">
				<stop  offset="0" style="stop-color:#22115B"/>
				<stop  offset="1" style="stop-color:#401B89"/>
			</linearGradient>
			<path class="st35" d="M22.2,10.1H10.4c-0.1,0-0.3-0.1-0.3-0.3V4c0-0.1,0.1-0.3,0.3-0.3h11.8c0.1,0,0.3,0.1,0.3,0.3v5.9
				C22.4,10,22.3,10.1,22.2,10.1z"/>
			<circle class="st36" cx="10.3" cy="2.6" r="0.4"/>
			<path class="st34" d="M10.3,2.9c-0.2,0-0.4-0.2-0.4-0.4c0,0,0,0,0,0C10,2.8,10.1,2.9,10.3,2.9c0.2,0,0.4-0.2,0.4-0.4c0,0,0,0,0,0
				C10.7,2.8,10.5,2.9,10.3,2.9z"/>
			<circle class="st33" cx="10.3" cy="2.6" r="0.3"/>
			<circle class="st37" cx="10.3" cy="2.6" r="0.2"/>
			<path class="st38" d="M10.3,2.3c0.1,0,0.2,0.1,0.2,0.2c0,0,0,0,0,0C10.6,2.4,10.5,2.3,10.3,2.3c-0.1,0-0.2,0.1-0.2,0.2
				c0,0,0,0,0,0C10.1,2.4,10.2,2.3,10.3,2.3z"/>
			<circle class="st39" cx="10.3" cy="2.6" r="0.1"/>
			<path class="st38" d="M10.3,2.4c0.1,0,0.1,0.1,0.1,0.1c0,0,0,0,0,0C10.5,2.5,10.4,2.4,10.3,2.4c-0.1,0-0.1,0.1-0.1,0.1
				c0,0,0,0,0,0C10.2,2.5,10.3,2.4,10.3,2.4z"/>
			<circle class="st36" cx="11.4" cy="2.6" r="0.4"/>
			<path class="st34" d="M11.4,2.9c-0.2,0-0.4-0.2-0.4-0.4c0,0,0,0,0,0C11,2.8,11.2,2.9,11.4,2.9c0.2,0,0.4-0.2,0.4-0.4c0,0,0,0,0,0
				C11.8,2.8,11.6,2.9,11.4,2.9z"/>
			<circle class="st33" cx="11.4" cy="2.6" r="0.3"/>
			<circle class="st40" cx="11.4" cy="2.6" r="0.2"/>
			<path class="st41" d="M11.4,2.3c0.1,0,0.2,0.1,0.2,0.2c0,0,0,0,0,0C11.7,2.4,11.6,2.3,11.4,2.3c-0.1,0-0.2,0.1-0.2,0.2
				c0,0,0,0,0,0C11.2,2.4,11.3,2.3,11.4,2.3z"/>
			<circle class="st42" cx="11.4" cy="2.6" r="0.1"/>
			<path class="st43" d="M11.4,2.4c0.1,0,0.1,0.1,0.1,0.1c0,0,0,0,0,0C11.6,2.5,11.5,2.4,11.4,2.4c-0.1,0-0.1,0.1-0.1,0.1
				c0,0,0,0,0,0C11.3,2.5,11.3,2.4,11.4,2.4z"/>
			<circle class="st36" cx="12.5" cy="2.6" r="0.4"/>
			<path class="st34" d="M12.5,2.9c-0.2,0-0.4-0.2-0.4-0.4c0,0,0,0,0,0C12.1,2.8,12.3,2.9,12.5,2.9c0.2,0,0.4-0.2,0.4-0.4
				c0,0,0,0,0,0C12.9,2.8,12.7,2.9,12.5,2.9z"/>
			<circle class="st33" cx="12.5" cy="2.6" r="0.3"/>
			<circle class="st44" cx="12.5" cy="2.6" r="0.2"/>
			<path class="st45" d="M12.5,2.3c0.1,0,0.2,0.1,0.2,0.2c0,0,0,0,0,0C12.8,2.4,12.7,2.3,12.5,2.3c-0.1,0-0.2,0.1-0.2,0.2
				c0,0,0,0,0,0C12.3,2.4,12.4,2.3,12.5,2.3z"/>
			<circle class="st46" cx="12.5" cy="2.6" r="0.1"/>
			<path class="st45" d="M12.5,2.4c0.1,0,0.1,0.1,0.1,0.1c0,0,0,0,0,0C12.7,2.5,12.6,2.4,12.5,2.4c-0.1,0-0.1,0.1-0.1,0.1
				c0,0,0,0,0,0C12.4,2.5,12.4,2.4,12.5,2.4z"/>
			<polyline class="st47" points="10.8,4.1 10.5,4.4 10.8,4.7 			"/>
			<polyline class="st47" points="11.5,4.1 11.8,4.4 11.5,4.7 			"/>
			<line class="st47" x1="11" y1="4.7" x2="11.2" y2="4.1"/>
			<circle class="st48" cx="12.1" cy="4.7" r="0.1"/>
			<circle class="st48" cx="12.5" cy="4.7" r="0.1"/>
			<circle class="st48" cx="12.8" cy="4.7" r="0.1"/>
			<line class="st47" x1="10.6" y1="5.3" x2="19.5" y2="5.3"/>
			<line class="st47" x1="20" y1="5.3" x2="20.7" y2="5.3"/>
			<line class="st47" x1="21.1" y1="5.3" x2="21.9" y2="5.3"/>
			<line class="st49" x1="10.6" y1="6" x2="16.2" y2="6"/>
			<line class="st49" x1="17" y1="6" x2="18" y2="6"/>
			<line class="st49" x1="18" y1="6.4" x2="15.3" y2="6.4"/>
			<line class="st49" x1="14.9" y1="6.4" x2="14.4" y2="6.4"/>
			<line class="st49" x1="13.9" y1="6.4" x2="13.4" y2="6.4"/>
			<line class="st49" x1="13" y1="6.4" x2="12.4" y2="6.4"/>
			<line class="st49" x1="12" y1="6.4" x2="11.4" y2="6.4"/>
			<line class="st50" x1="19.8" y1="6.9" x2="11.4" y2="6.9"/>
			<line class="st49" x1="10.8" y1="6.4" x2="10.6" y2="6.4"/>
			<line class="st49" x1="10.8" y1="6.9" x2="10.6" y2="6.9"/>
			<line class="st49" x1="10.8" y1="7.4" x2="10.6" y2="7.4"/>
			<line class="st49" x1="10.8" y1="7.9" x2="10.6" y2="7.9"/>
			<line class="st50" x1="20.3" y1="6.9" x2="21.5" y2="6.9"/>
			<line class="st50" x1="11.4" y1="7.4" x2="13.7" y2="7.4"/>
			<line class="st50" x1="11.4" y1="7.9" x2="13.7" y2="7.9"/>
			<line class="st50" x1="11.4" y1="8.4" x2="13.7" y2="8.4"/>
			<line class="st50" x1="11.4" y1="8.9" x2="13.7" y2="8.9"/>
			<line class="st51" x1="15.3" y1="8.9" x2="20" y2="8.9"/>
			<line class="st51" x1="18.1" y1="8.4" x2="20" y2="8.4"/>
			<line class="st51" x1="19.2" y1="7.9" x2="20" y2="7.9"/>
		</g>
		<g>
			<g>
				<path class="st31" d="M30.3,15.5h-5.9c-0.2,0-0.3-0.2-0.3-0.3V5.5c0-0.2,0.2-0.3,0.3-0.3h5.9c0.2,0,0.3,0.2,0.3,0.3v9.6
					C30.6,15.3,30.4,15.5,30.3,15.5z"/>
				<path class="st52" d="M30.3,15.4h-5.9c-0.2,0-0.3-0.1-0.3-0.3v0c0,0.2,0.1,0.3,0.3,0.3L30.3,15.4c0.2,0,0.3-0.1,0.3-0.3v0
					C30.6,15.3,30.4,15.4,30.3,15.4z"/>
				<path class="st33" d="M30.3,5.1h-6.1c-0.1,0-0.3,0.1-0.3,0.3v0.1c0-0.1,0.1-0.3,0.3-0.3L30.3,5.1c0.1,0.1,0.3,0.2,0.3,0.3V5.4
					C30.6,5.2,30.5,5.1,30.3,5.1z"/>
				<path class="st33" d="M30.3,5.2h-6.1c-0.1,0-0.3,0.1-0.3,0.3v0.7h6.6V5.4C30.6,5.3,30.5,5.2,30.3,5.2z"/>
				<path class="st34" d="M30.3,5.2h-6.1c-0.1,0-0.3,0.1-0.3,0.3v0c0-0.1,0.1-0.3,0.3-0.3L30.3,5.2c0.1,0,0.3,0.1,0.3,0.3v0
					C30.6,5.3,30.5,5.2,30.3,5.2z"/>
				<rect x="24" y="6.1" class="st34" width="6.6" height="0"/>
				<linearGradient id="SVGID_2_" gradientUnits="userSpaceOnUse" x1="24.3493" y1="10.7759" x2="30.2469" y2="10.7759">
					<stop  offset="0" style="stop-color:#22115B"/>
					<stop  offset="1" style="stop-color:#401B89"/>
				</linearGradient>
				<path class="st53" d="M30,15.2h-5.4c-0.1,0-0.3-0.1-0.3-0.3V6.7c0-0.1,0.1-0.3,0.3-0.3H30c0.1,0,0.3,0.1,0.3,0.3v8.2
					C30.2,15,30.1,15.2,30,15.2z"/>
				<circle class="st36" cx="24.5" cy="5.7" r="0.3"/>
				<path class="st34" d="M24.5,5.9c-0.1,0-0.2-0.1-0.3-0.2c0,0,0,0,0,0C24.2,5.8,24.3,5.9,24.5,5.9c0.1,0,0.3-0.1,0.3-0.2
					c0,0,0,0,0,0C24.7,5.8,24.6,5.9,24.5,5.9z"/>
				<circle class="st33" cx="24.5" cy="5.7" r="0.2"/>
				<circle class="st37" cx="24.5" cy="5.7" r="0.2"/>
				<path class="st38" d="M24.5,5.5c0.1,0,0.2,0.1,0.2,0.2c0,0,0,0,0,0C24.6,5.6,24.6,5.5,24.5,5.5c-0.1,0-0.2,0.1-0.2,0.2
					c0,0,0,0,0,0C24.3,5.6,24.4,5.5,24.5,5.5z"/>
				<circle class="st39" cx="24.5" cy="5.7" r="0.1"/>
				<path class="st38" d="M24.5,5.6C24.5,5.6,24.6,5.6,24.5,5.6C24.6,5.7,24.6,5.7,24.5,5.6C24.6,5.6,24.5,5.6,24.5,5.6
					C24.4,5.6,24.4,5.6,24.5,5.6C24.4,5.7,24.4,5.7,24.5,5.6C24.4,5.6,24.4,5.6,24.5,5.6z"/>
				<circle class="st36" cx="25.2" cy="5.7" r="0.3"/>
				<path class="st34" d="M25.2,5.9c-0.1,0-0.2-0.1-0.3-0.2c0,0,0,0,0,0C25,5.8,25.1,5.9,25.2,5.9c0.1,0,0.3-0.1,0.3-0.2
					c0,0,0,0,0,0C25.5,5.8,25.4,5.9,25.2,5.9z"/>
				<circle class="st33" cx="25.2" cy="5.7" r="0.2"/>
				<circle class="st40" cx="25.2" cy="5.7" r="0.2"/>
				<path class="st41" d="M25.2,5.5c0.1,0,0.2,0.1,0.2,0.2c0,0,0,0,0,0C25.4,5.6,25.3,5.5,25.2,5.5c-0.1,0-0.2,0.1-0.2,0.2
					c0,0,0,0,0,0C25.1,5.6,25.1,5.5,25.2,5.5z"/>
				<circle class="st42" cx="25.2" cy="5.7" r="0.1"/>
				<path class="st43" d="M25.2,5.6C25.3,5.6,25.3,5.6,25.2,5.6C25.3,5.7,25.3,5.7,25.2,5.6C25.3,5.6,25.3,5.6,25.2,5.6
					C25.2,5.6,25.1,5.6,25.2,5.6C25.1,5.7,25.1,5.7,25.2,5.6C25.1,5.6,25.2,5.6,25.2,5.6z"/>
				<circle class="st36" cx="25.9" cy="5.7" r="0.3"/>
				<path class="st34" d="M25.9,5.9c-0.1,0-0.2-0.1-0.3-0.2c0,0,0,0,0,0C25.7,5.8,25.8,5.9,25.9,5.9c0.1,0,0.3-0.1,0.3-0.2
					c0,0,0,0,0,0C26.2,5.8,26.1,5.9,25.9,5.9z"/>
				<circle class="st33" cx="25.9" cy="5.7" r="0.2"/>
				<circle class="st44" cx="25.9" cy="5.7" r="0.2"/>
				<path class="st45" d="M25.9,5.5c0.1,0,0.2,0.1,0.2,0.2c0,0,0,0,0,0C26.1,5.6,26,5.5,25.9,5.5c-0.1,0-0.2,0.1-0.2,0.2
					c0,0,0,0,0,0C25.8,5.6,25.9,5.5,25.9,5.5z"/>
				<circle class="st46" cx="25.9" cy="5.7" r="0.1"/>
				<path class="st45" d="M25.9,5.6C26,5.6,26,5.6,25.9,5.6C26,5.7,26,5.7,25.9,5.6C26,5.6,26,5.6,25.9,5.6
					C25.9,5.6,25.8,5.6,25.9,5.6C25.8,5.7,25.8,5.7,25.9,5.6C25.9,5.6,25.9,5.6,25.9,5.6z"/>
				<g>
					<path class="st48" d="M28.8,7.5h-4.1c0,0,0,0,0,0c0,0,0,0,0,0L28.8,7.5C28.8,7.4,28.8,7.4,28.8,7.5C28.8,7.5,28.8,7.5,28.8,7.5
						z"/>
				</g>
				<g>
					<path class="st48" d="M29.4,7.5h-0.3c0,0,0,0,0,0c0,0,0,0,0,0L29.4,7.5C29.5,7.4,29.5,7.4,29.4,7.5C29.5,7.5,29.5,7.5,29.4,7.5
						z"/>
				</g>
				<g>
					<path class="st48" d="M29.9,7.5h-0.2c0,0,0,0,0,0c0,0,0,0,0,0L29.9,7.5C29.9,7.4,30,7.4,29.9,7.5C30,7.5,29.9,7.5,29.9,7.5z"/>
				</g>
				<g>
					<path class="st54" d="M27,8h-2.3c0,0,0,0,0,0c0,0,0,0,0,0L27,8C27,7.9,27,7.9,27,8C27,8,27,8,27,8z"/>
				</g>
				<g>
					<path class="st54" d="M27.8,8h-0.7c0,0,0,0,0,0c0,0,0,0,0,0L27.8,8C27.8,7.9,27.8,7.9,27.8,8C27.8,8,27.8,8,27.8,8z"/>
				</g>
				<g>
					<path class="st54" d="M27.8,8.3h-0.4c0,0,0,0,0,0c0,0,0,0,0,0L27.8,8.3C27.8,8.2,27.8,8.2,27.8,8.3C27.8,8.2,27.8,8.3,27.8,8.3
						z"/>
				</g>
				<g>
					<path class="st54" d="M27.2,8.3L27.2,8.3C27.1,8.3,27.1,8.2,27.2,8.3C27.1,8.2,27.1,8.2,27.2,8.3L27.2,8.3
						C27.2,8.2,27.2,8.2,27.2,8.3C27.2,8.2,27.2,8.3,27.2,8.3z"/>
				</g>
				<g>
					<path class="st54" d="M26.9,8.3h-0.4c0,0,0,0,0,0c0,0,0,0,0,0L26.9,8.3C26.9,8.2,26.9,8.2,26.9,8.3C26.9,8.2,26.9,8.3,26.9,8.3
						z"/>
				</g>
				<g>
					<path class="st54" d="M26.2,8.3h-0.4c0,0,0,0,0,0c0,0,0,0,0,0L26.2,8.3C26.3,8.2,26.3,8.2,26.2,8.3C26.3,8.2,26.3,8.3,26.2,8.3
						z"/>
				</g>
				<g>
					<path class="st54" d="M25.6,8.3h-0.4c0,0,0,0,0,0c0,0,0,0,0,0L25.6,8.3C25.6,8.2,25.6,8.2,25.6,8.3C25.6,8.2,25.6,8.3,25.6,8.3
						z"/>
				</g>
				<g>
					<path class="st55" d="M29,8.6h-3.8c0,0,0,0,0,0c0,0,0,0,0,0L29,8.6C29,8.5,29.1,8.5,29,8.6C29.1,8.6,29,8.6,29,8.6z"/>
				</g>
				<g>
					<path class="st54" d="M24.8,8.3h-0.1c0,0,0,0,0,0c0,0,0,0,0,0L24.8,8.3C24.8,8.2,24.9,8.2,24.8,8.3C24.9,8.2,24.8,8.3,24.8,8.3
						z"/>
				</g>
				<g>
					<path class="st54" d="M24.8,8.6h-0.1c0,0,0,0,0,0c0,0,0,0,0,0L24.8,8.6C24.8,8.5,24.9,8.5,24.8,8.6C24.9,8.6,24.8,8.6,24.8,8.6
						z"/>
				</g>
				<g>
					<path class="st54" d="M24.8,8.9h-0.1c0,0,0,0,0,0c0,0,0,0,0,0L24.8,8.9C24.8,8.8,24.9,8.8,24.8,8.9C24.9,8.9,24.8,8.9,24.8,8.9
						z"/>
				</g>
				<g>
					<path class="st54" d="M24.8,9.2h-0.1c0,0,0,0,0,0c0,0,0,0,0,0L24.8,9.2C24.8,9.1,24.9,9.1,24.8,9.2C24.9,9.2,24.8,9.2,24.8,9.2
						z"/>
				</g>
				<g>
					<path class="st55" d="M29.8,8.6h-0.5c0,0,0,0,0,0c0,0,0,0,0,0L29.8,8.6C29.9,8.5,29.9,8.5,29.8,8.6C29.9,8.6,29.9,8.6,29.8,8.6
						z"/>
				</g>
				<g>
					<path class="st55" d="M26.8,8.9h-1.5c0,0,0,0,0,0c0,0,0,0,0,0L26.8,8.9C26.8,8.8,26.8,8.8,26.8,8.9C26.8,8.9,26.8,8.9,26.8,8.9
						z"/>
				</g>
				<g>
					<path class="st56" d="M29.1,9.9h-1.8c0,0,0,0,0,0c0,0,0,0,0,0L29.1,9.9C29.2,9.8,29.2,9.8,29.1,9.9C29.2,9.9,29.2,9.9,29.1,9.9
						z"/>
				</g>
				<g>
					<path class="st56" d="M29.1,9.6h-1.3c0,0,0,0,0,0s0,0,0,0L29.1,9.6C29.2,9.5,29.2,9.5,29.1,9.6C29.2,9.5,29.2,9.6,29.1,9.6z"/>
				</g>
				<g>
					<path class="st56" d="M29.1,9.2h-0.5c0,0,0,0,0,0c0,0,0,0,0,0L29.1,9.2C29.2,9.1,29.2,9.1,29.1,9.2C29.2,9.2,29.2,9.2,29.1,9.2
						z"/>
				</g>
			</g>
			<g>
				<path class="st55" d="M26.5,7.1h-1.8c0,0,0,0,0,0c0,0,0,0,0,0L26.5,7.1C26.6,7,26.6,7,26.5,7.1C26.6,7.1,26.6,7.1,26.5,7.1z"/>
			</g>
			<g>
				<path class="st56" d="M27.7,10.7h-3c0,0,0,0,0,0c0,0,0,0,0,0L27.7,10.7C27.7,10.6,27.8,10.6,27.7,10.7
					C27.8,10.7,27.7,10.7,27.7,10.7z"/>
			</g>
			<g>
				<path class="st56" d="M27.7,11.1h-3c0,0,0,0,0,0s0,0,0,0L27.7,11.1C27.7,11,27.8,11,27.7,11.1C27.8,11.1,27.7,11.1,27.7,11.1z"
					/>
			</g>
			<g>
				<path class="st56" d="M27.7,11.5h-3c0,0,0,0,0,0c0,0,0,0,0,0L27.7,11.5C27.7,11.4,27.8,11.4,27.7,11.5
					C27.8,11.5,27.7,11.5,27.7,11.5z"/>
			</g>
			<g>
				<path class="st56" d="M27.7,13.9h-3c0,0,0,0,0,0s0,0,0,0L27.7,13.9C27.7,13.8,27.8,13.8,27.7,13.9
					C27.8,13.8,27.7,13.9,27.7,13.9z"/>
			</g>
			<g>
				<path class="st48" d="M28.4,10.2h-0.8c0,0,0,0,0,0c0,0,0,0,0,0L28.4,10.2C28.4,10.1,28.4,10.1,28.4,10.2
					C28.4,10.2,28.4,10.2,28.4,10.2z"/>
			</g>
			<g>
				<path class="st48" d="M29.9,10.2h-1.1c0,0,0,0,0,0c0,0,0,0,0,0L29.9,10.2C29.9,10.1,30,10.1,29.9,10.2
					C30,10.2,29.9,10.2,29.9,10.2z"/>
			</g>
			<g>
				<path class="st48" d="M29.9,10.7h-1.1c0,0,0,0,0,0c0,0,0,0,0,0L29.9,10.7C29.9,10.6,30,10.6,29.9,10.7
					C30,10.7,29.9,10.7,29.9,10.7z"/>
			</g>
			<g>
				<path class="st48" d="M25.1,14.5h-0.4c0,0,0,0,0,0c0,0,0,0,0,0L25.1,14.5C25.1,14.4,25.1,14.4,25.1,14.5
					C25.1,14.4,25.1,14.5,25.1,14.5z"/>
			</g>
			<g>
				<path class="st48" d="M25.1,14.8h-0.4c0,0,0,0,0,0s0,0,0,0L25.1,14.8C25.1,14.7,25.1,14.7,25.1,14.8
					C25.1,14.7,25.1,14.8,25.1,14.8z"/>
			</g>
			<g>
				<path class="st48" d="M28.1,14.8h-2.8c0,0,0,0,0,0s0,0,0,0L28.1,14.8C28.1,14.7,28.1,14.7,28.1,14.8
					C28.1,14.7,28.1,14.8,28.1,14.8z"/>
			</g>
			<g>
				<path class="st48" d="M25.8,14.5h-0.4c0,0,0,0,0,0c0,0,0,0,0,0L25.8,14.5C25.8,14.4,25.8,14.4,25.8,14.5
					C25.8,14.4,25.8,14.5,25.8,14.5z"/>
			</g>
			<g>
				<path class="st48" d="M26.5,14.5h-0.4c0,0,0,0,0,0c0,0,0,0,0,0L26.5,14.5C26.6,14.4,26.6,14.4,26.5,14.5
					C26.6,14.4,26.6,14.5,26.5,14.5z"/>
			</g>
			<g>
				<path class="st48" d="M27.3,14.5h-0.4c0,0,0,0,0,0c0,0,0,0,0,0L27.3,14.5C27.3,14.4,27.3,14.4,27.3,14.5
					C27.3,14.4,27.3,14.5,27.3,14.5z"/>
			</g>
			<g>
				<path class="st48" d="M28,14.5h-0.4c0,0,0,0,0,0c0,0,0,0,0,0L28,14.5C28,14.4,28,14.4,28,14.5C28,14.4,28,14.5,28,14.5z"/>
			</g>
			<g>
				<path class="st48" d="M28.7,14.5h-0.4c0,0,0,0,0,0c0,0,0,0,0,0L28.7,14.5C28.8,14.4,28.8,14.4,28.7,14.5
					C28.8,14.4,28.8,14.5,28.7,14.5z"/>
			</g>
			<g>
				<path class="st48" d="M29.3,14.5h-0.2c0,0,0,0,0,0c0,0,0,0,0,0L29.3,14.5C29.3,14.4,29.4,14.4,29.3,14.5
					C29.4,14.4,29.3,14.5,29.3,14.5z"/>
			</g>
		</g>
		<g>
			<g>
				<path class="st31" d="M32.9,7h-4.7c-0.1,0-0.2-0.1-0.2-0.2V2.5c0-0.1,0.1-0.2,0.2-0.2h4.7c0.1,0,0.2,0.1,0.2,0.2v4.2
					C33.1,6.9,33,7,32.9,7z"/>
				<path class="st33" d="M32.9,2.3h-4.7c-0.1,0-0.2,0.1-0.2,0.2v0c0-0.1,0.1-0.2,0.2-0.2L32.9,2.3c0.1,0,0.2,0.1,0.2,0.2v0
					C33.1,2.4,33,2.3,32.9,2.3z"/>
				<path class="st33" d="M32.9,2.3h-4.7c-0.1,0-0.2,0.1-0.2,0.2V3h5.1V2.5C33.1,2.4,33,2.3,32.9,2.3z"/>
				<path class="st34" d="M32.9,2.3h-4.7c-0.1,0-0.2,0.1-0.2,0.2v0c0-0.1,0.1-0.2,0.2-0.2L32.9,2.3c0.1,0,0.2,0.1,0.2,0.2v0
					C33.1,2.4,33,2.3,32.9,2.3z"/>
				<rect x="28.1" y="3" class="st34" width="5.1" height="0"/>
				<linearGradient id="SVGID_3_" gradientUnits="userSpaceOnUse" x1="28.3278" y1="4.9952" x2="32.8608" y2="4.9952">
					<stop  offset="0" style="stop-color:#22115B"/>
					<stop  offset="1" style="stop-color:#401B89"/>
				</linearGradient>
				<path class="st57" d="M32.7,6.7h-4.2c-0.1,0-0.2-0.1-0.2-0.2V3.4c0-0.1,0.1-0.2,0.2-0.2h4.2c0.1,0,0.2,0.1,0.2,0.2v3.2
					C32.9,6.7,32.8,6.7,32.7,6.7z"/>
				<circle class="st36" cx="28.4" cy="2.7" r="0.2"/>
				<path class="st34" d="M28.4,2.9c-0.1,0-0.2-0.1-0.2-0.2c0,0,0,0,0,0C28.2,2.8,28.3,2.9,28.4,2.9c0.1,0,0.2-0.1,0.2-0.2
					c0,0,0,0,0,0C28.6,2.8,28.5,2.9,28.4,2.9z"/>
				<circle class="st33" cx="28.4" cy="2.7" r="0.1"/>
				<circle class="st37" cx="28.4" cy="2.7" r="0.1"/>
				<path class="st38" d="M28.4,2.6c0.1,0,0.1,0.1,0.1,0.1c0,0,0,0,0,0C28.6,2.6,28.5,2.6,28.4,2.6c-0.1,0-0.1,0.1-0.1,0.1
					c0,0,0,0,0,0C28.3,2.6,28.4,2.6,28.4,2.6z"/>
				<circle class="st39" cx="28.4" cy="2.7" r="0.1"/>
				<path class="st38" d="M28.4,2.6C28.5,2.6,28.5,2.6,28.4,2.6C28.5,2.7,28.5,2.7,28.4,2.6C28.5,2.6,28.5,2.6,28.4,2.6
					C28.4,2.6,28.4,2.6,28.4,2.6C28.4,2.7,28.4,2.7,28.4,2.6C28.4,2.6,28.4,2.6,28.4,2.6z"/>
				<circle class="st36" cx="29" cy="2.7" r="0.2"/>
				<path class="st34" d="M29,2.9c-0.1,0-0.2-0.1-0.2-0.2c0,0,0,0,0,0C28.8,2.8,28.9,2.9,29,2.9c0.1,0,0.2-0.1,0.2-0.2c0,0,0,0,0,0
					C29.2,2.8,29.1,2.9,29,2.9z"/>
				<circle class="st33" cx="29" cy="2.7" r="0.1"/>
				<circle class="st40" cx="29" cy="2.7" r="0.1"/>
				<path class="st41" d="M29,2.6c0.1,0,0.1,0.1,0.1,0.1c0,0,0,0,0,0C29.1,2.6,29.1,2.6,29,2.6c-0.1,0-0.1,0.1-0.1,0.1c0,0,0,0,0,0
					C28.9,2.6,28.9,2.6,29,2.6z"/>
				<circle class="st42" cx="29" cy="2.7" r="0.1"/>
				<path class="st43" d="M29,2.6C29,2.6,29.1,2.6,29,2.6C29.1,2.7,29.1,2.7,29,2.6C29.1,2.6,29,2.6,29,2.6C29,2.6,28.9,2.6,29,2.6
					C28.9,2.7,28.9,2.7,29,2.6C28.9,2.6,29,2.6,29,2.6z"/>
				<circle class="st36" cx="29.6" cy="2.7" r="0.2"/>
				<path class="st34" d="M29.6,2.9c-0.1,0-0.2-0.1-0.2-0.2c0,0,0,0,0,0C29.4,2.8,29.4,2.9,29.6,2.9c0.1,0,0.2-0.1,0.2-0.2
					c0,0,0,0,0,0C29.7,2.8,29.7,2.9,29.6,2.9z"/>
				<circle class="st33" cx="29.6" cy="2.7" r="0.1"/>
				<circle class="st44" cx="29.6" cy="2.7" r="0.1"/>
				<path class="st45" d="M29.6,2.6c0.1,0,0.1,0.1,0.1,0.1c0,0,0,0,0,0C29.7,2.6,29.6,2.6,29.6,2.6c-0.1,0-0.1,0.1-0.1,0.1
					c0,0,0,0,0,0C29.4,2.6,29.5,2.6,29.6,2.6z"/>
				<circle class="st46" cx="29.6" cy="2.7" r="0.1"/>
				<path class="st45" d="M29.6,2.6C29.6,2.6,29.6,2.6,29.6,2.6C29.6,2.7,29.6,2.7,29.6,2.6C29.6,2.6,29.6,2.6,29.6,2.6
					C29.5,2.6,29.5,2.6,29.6,2.6C29.5,2.7,29.5,2.7,29.6,2.6C29.5,2.6,29.5,2.6,29.6,2.6z"/>
				<g>
					<path class="st48" d="M31.7,4.1h-3.1c0,0,0,0,0,0s0,0,0,0L31.7,4.1C31.7,4,31.8,4.1,31.7,4.1C31.8,4.1,31.7,4.1,31.7,4.1z"/>
				</g>
				<g>
					<path class="st48" d="M32.2,4.1H32c0,0,0,0,0,0s0,0,0,0L32.2,4.1C32.3,4,32.3,4.1,32.2,4.1C32.3,4.1,32.3,4.1,32.2,4.1z"/>
				</g>
				<g>
					<path class="st48" d="M32.6,4.1h-0.2c0,0,0,0,0,0s0,0,0,0L32.6,4.1C32.6,4,32.6,4.1,32.6,4.1C32.6,4.1,32.6,4.1,32.6,4.1z"/>
				</g>
				<g>
					<path class="st54" d="M30.4,4.5h-1.8c0,0,0,0,0,0s0,0,0,0L30.4,4.5C30.4,4.4,30.4,4.4,30.4,4.5C30.4,4.5,30.4,4.5,30.4,4.5z"/>
				</g>
				<g>
					<path class="st54" d="M31,4.5h-0.5c0,0,0,0,0,0s0,0,0,0L31,4.5C31,4.4,31,4.4,31,4.5C31,4.5,31,4.5,31,4.5z"/>
				</g>
				<g>
					<path class="st54" d="M31,4.7h-0.3c0,0,0,0,0,0s0,0,0,0L31,4.7C31,4.6,31,4.6,31,4.7C31,4.7,31,4.7,31,4.7z"/>
				</g>
				<g>
					<path class="st54" d="M30.5,4.7L30.5,4.7C30.4,4.7,30.4,4.7,30.5,4.7C30.4,4.6,30.4,4.6,30.5,4.7L30.5,4.7
						C30.5,4.6,30.5,4.6,30.5,4.7C30.5,4.7,30.5,4.7,30.5,4.7z"/>
				</g>
				<g>
					<path class="st54" d="M30.3,4.7H30c0,0,0,0,0,0s0,0,0,0L30.3,4.7C30.3,4.6,30.3,4.6,30.3,4.7C30.3,4.7,30.3,4.7,30.3,4.7z"/>
				</g>
				<g>
					<path class="st54" d="M29.8,4.7h-0.3c0,0,0,0,0,0s0,0,0,0L29.8,4.7C29.8,4.6,29.8,4.6,29.8,4.7C29.8,4.7,29.8,4.7,29.8,4.7z"/>
				</g>
				<g>
					<path class="st54" d="M29.3,4.7H29c0,0,0,0,0,0s0,0,0,0L29.3,4.7C29.3,4.6,29.3,4.6,29.3,4.7C29.3,4.7,29.3,4.7,29.3,4.7z"/>
				</g>
				<g>
					<path class="st55" d="M31.9,4.9H29c0,0,0,0,0,0s0,0,0,0L31.9,4.9C31.9,4.8,32,4.9,31.9,4.9C32,4.9,31.9,4.9,31.9,4.9z"/>
				</g>
				<g>
					<path class="st54" d="M28.7,4.7h-0.1c0,0,0,0,0,0s0,0,0,0L28.7,4.7C28.7,4.6,28.7,4.6,28.7,4.7C28.7,4.7,28.7,4.7,28.7,4.7z"/>
				</g>
				<g>
					<path class="st54" d="M28.7,4.9h-0.1c0,0,0,0,0,0s0,0,0,0L28.7,4.9C28.7,4.8,28.7,4.9,28.7,4.9C28.7,4.9,28.7,4.9,28.7,4.9z"/>
				</g>
				<g>
					<path class="st54" d="M28.7,5.2h-0.1c0,0,0,0,0,0s0,0,0,0L28.7,5.2C28.7,5.1,28.7,5.1,28.7,5.2C28.7,5.2,28.7,5.2,28.7,5.2z"/>
				</g>
				<g>
					<path class="st55" d="M32.5,4.9h-0.4c0,0,0,0,0,0s0,0,0,0L32.5,4.9C32.6,4.8,32.6,4.9,32.5,4.9C32.6,4.9,32.6,4.9,32.5,4.9z"/>
				</g>
				<g>
					<path class="st55" d="M30.2,5.2H29c0,0,0,0,0,0s0,0,0,0L30.2,5.2C30.2,5.1,30.2,5.1,30.2,5.2C30.2,5.2,30.2,5.2,30.2,5.2z"/>
				</g>
				<g>
					<path class="st56" d="M32,5.5h-1.4c0,0,0,0,0,0s0,0,0,0L32,5.5C32,5.4,32,5.4,32,5.5C32,5.5,32,5.5,32,5.5z"/>
				</g>
				<g>
					<path class="st56" d="M32,5.3h-0.4c0,0,0,0,0,0s0,0,0,0L32,5.3C32,5.3,32,5.3,32,5.3C32,5.3,32,5.3,32,5.3z"/>
				</g>
			</g>
			<g>
				<path class="st55" d="M30,3.8h-1.4c0,0,0,0,0,0c0,0,0,0,0,0L30,3.8C30,3.7,30,3.7,30,3.8C30,3.8,30,3.8,30,3.8z"/>
			</g>
			<g>
				<path class="st56" d="M30.9,6.2h-2.3c0,0,0,0,0,0s0,0,0,0L30.9,6.2C30.9,6.1,31,6.1,30.9,6.2C31,6.2,30.9,6.2,30.9,6.2z"/>
			</g>
			<g>
				<path class="st48" d="M31.4,5.7h-0.6c0,0,0,0,0,0s0,0,0,0L31.4,5.7C31.4,5.7,31.5,5.7,31.4,5.7C31.5,5.7,31.4,5.7,31.4,5.7z"/>
			</g>
			<g>
				<path class="st48" d="M32.6,5.7h-0.9c0,0,0,0,0,0s0,0,0,0L32.6,5.7C32.6,5.7,32.6,5.7,32.6,5.7C32.6,5.7,32.6,5.7,32.6,5.7z"/>
			</g>
			<g>
				<path class="st48" d="M32.6,6.1h-0.9c0,0,0,0,0,0s0,0,0,0L32.6,6.1C32.6,6,32.6,6,32.6,6.1C32.6,6.1,32.6,6.1,32.6,6.1z"/>
			</g>
			<g>
				<path class="st48" d="M28.9,6.4h-0.3c0,0,0,0,0,0s0,0,0,0L28.9,6.4C28.9,6.4,28.9,6.4,28.9,6.4C28.9,6.4,28.9,6.4,28.9,6.4z"/>
			</g>
			<g>
				<path class="st48" d="M31.2,6.4H29c0,0,0,0,0,0s0,0,0,0L31.2,6.4C31.2,6.4,31.2,6.4,31.2,6.4C31.2,6.4,31.2,6.4,31.2,6.4z"/>
			</g>
		</g>
	</g>
</g>
</svg>
