<?xml version="1.0" encoding="utf-8"?>
<!-- Generator: Adobe Illustrator 19.2.0, SVG Export Plug-In . SVG Version: 6.00 Build 0)  -->
<svg version="1.1" id="Capa_1" xmlns="http://www.w3.org/2000/svg" xmlns:xlink="http://www.w3.org/1999/xlink" x="0px" y="0px"
	 viewBox="0 0 42.7 25.4" style="enable-background:new 0 0 42.7 25.4;" xml:space="preserve">
<style type="text/css">
	.st0{fill:#DDE7FE;}
	.st1{fill:#BDD1F9;}
	.st2{fill:#7C9AF2;}
	.st3{fill:#91B5F8;}
	.st4{fill:#060633;}
	.st5{fill:#050521;}
	.st6{fill:#FFFFFF;}
	.st7{fill:#E7EEFD;}
	.st8{fill:#F96058;}
	.st9{fill:#FB9391;}
	.st10{fill:#0B0755;}
	.st11{fill:#FA7267;}
	.st12{fill:#EA6868;}
	.st13{fill:#FAFAFC;}
	.st14{fill:#485F73;}
	.st15{fill:#DD4E4E;}
	.st16{fill:#E8615B;}
	.st17{fill:#474FEA;}
	.st18{fill:#424BE1;}
	.st19{fill:#E85B54;}
</style>
<g>
	<path class="st0" d="M36.6,24.8c3.7,0.1,6.1-3.7,6.1-6c0-2.5-1.6-4.7-2.6-7c-0.8-2-0.5-4.4-1.8-6.3c-1.6-2.3-5.1-3-8.1-3.9
		c-3.9-1.1-8-2-12.2-1.6c-3,0.3-5.9,1.2-7.9,2.8C8.4,4.2,7.4,5.8,6.2,7.3C5,8.8,3.4,9.8,1.9,11.2c-4.3,3.8-0.6,10.5,3.7,13.3
		C5.6,24.5,36.6,24.8,36.6,24.8z"/>
	<g>
		<path class="st1" d="M33,18.6C33,18.6,33,18.6,33,18.6C32.9,18.6,32.9,18.6,33,18.6c1.4-5.3,2.7-9.1,3.7-10.6c0,0,0-0.1,0-0.1
			c0,0,0,0,0.1,0c0,0,0,0,0,0.1c0,0,0,0,0,0.1C35.8,9.6,34.4,13.3,33,18.6C33,18.6,33,18.6,33,18.6z"/>
		<path class="st1" d="M37.4,7.8c-0.1,0.2-0.7,0.5-0.8,0.5c0,0,0-0.7,0.2-0.9c0.1-0.2,0.4-0.2,0.5-0.1C37.5,7.4,37.5,7.6,37.4,7.8z"
			/>
		<path class="st1" d="M36.2,8.3c0.1,0.2,0,0.9-0.1,0.9c-0.1,0-0.6-0.5-0.6-0.7c-0.1-0.2,0-0.4,0.2-0.5C36,8,36.2,8.1,36.2,8.3z"/>
		<path class="st1" d="M37,9.5c-0.2,0-0.9-0.2-0.9-0.3c0-0.1,0.6-0.4,0.8-0.5c0.2,0,0.4,0.1,0.4,0.3C37.4,9.3,37.2,9.5,37,9.5z"/>
		<path class="st1" d="M34.5,11.8c0.1,0.3,0.1,1.5,0,1.5c-0.1,0-1-0.7-1.2-1c-0.1-0.3,0-0.7,0.3-0.8C34,11.4,34.4,11.5,34.5,11.8z"
			/>
		<path class="st1" d="M36,13.7c-0.3,0.1-1.5-0.3-1.5-0.4c0-0.1,0.9-0.8,1.2-0.9c0.3-0.1,0.7,0.2,0.8,0.5
			C36.6,13.3,36.4,13.6,36,13.7z"/>
		<path class="st1" d="M33.6,13.2c0.3,0.3,0.5,1.8,0.4,1.8c-0.1,0.1-1.4-0.5-1.7-0.9c-0.3-0.3-0.2-0.8,0.2-1.1
			C32.9,12.7,33.4,12.8,33.6,13.2z"/>
		<path class="st1" d="M35.8,15.6c-0.4,0-1.8-0.5-1.8-0.6c0-0.1,1.2-0.9,1.6-0.9c0.4,0,0.8,0.3,0.9,0.7
			C36.5,15.1,36.2,15.5,35.8,15.6z"/>
		<path class="st1" d="M33.1,14.9c0.3,0.3,0.5,1.8,0.4,1.8c-0.1,0.1-1.4-0.5-1.7-0.9c-0.3-0.3-0.2-0.8,0.2-1.1
			C32.4,14.5,32.9,14.5,33.1,14.9z"/>
		<path class="st1" d="M35.2,17.3c-0.4,0-1.8-0.5-1.8-0.6c0-0.1,1.2-0.9,1.6-0.9c0.4,0,0.8,0.3,0.9,0.7C36,16.9,35.7,17.3,35.2,17.3
			z"/>
		<path class="st1" d="M31.9,17.1c0.4,0.2,1.1,1.4,1.1,1.5c-0.1,0.1-1.5,0-1.9-0.2c-0.4-0.2-0.5-0.7-0.3-1.1
			C31.1,17,31.6,16.9,31.9,17.1z"/>
		<path class="st1" d="M34.8,19c-0.4,0.1-1.8-0.3-1.8-0.4c0-0.1,1.1-1,1.5-1.1c0.4-0.1,0.8,0.2,0.9,0.6C35.5,18.5,35.2,18.9,34.8,19
			z"/>
		<path class="st1" d="M35.7,9.4c0.1,0.2,0,0.9-0.1,0.9c-0.1,0-0.6-0.5-0.6-0.7c-0.1-0.2,0-0.4,0.2-0.5C35.4,9.1,35.6,9.2,35.7,9.4z
			"/>
		<path class="st1" d="M36.5,10.6c-0.2,0-0.9-0.2-0.9-0.3c0-0.1,0.6-0.4,0.8-0.5c0.2,0,0.4,0.1,0.4,0.4
			C36.8,10.4,36.7,10.6,36.5,10.6z"/>
		<path class="st1" d="M35.1,10.4c0.1,0.3,0,1.3,0,1.3c-0.1,0-0.9-0.6-1-0.9c-0.1-0.3,0-0.6,0.3-0.7C34.7,10,35,10.1,35.1,10.4z"/>
		<path class="st1" d="M36.3,12.1c-0.3,0-1.2-0.4-1.2-0.4c0-0.1,0.8-0.6,1.1-0.7c0.3,0,0.6,0.2,0.6,0.5
			C36.8,11.8,36.6,12.1,36.3,12.1z"/>
	</g>
	<g>
		<path class="st1" d="M10.4,20.9C10.4,20.9,10.4,20.9,10.4,20.9C10.4,20.9,10.4,20.9,10.4,20.9c-3.3-2.9-5.9-4.8-7.2-5.4
			c0,0-0.1,0-0.1,0c0,0,0,0,0,0c0,0,0,0,0,0c0,0,0,0,0.1,0C4.5,16.1,7,18,10.4,20.9C10.4,20.9,10.4,20.9,10.4,20.9z"/>
		<path class="st1" d="M2.6,15.6c0.2,0.1,0.7,0,0.7,0c0,0-0.3-0.5-0.5-0.5c-0.2-0.1-0.3,0-0.4,0.2C2.3,15.4,2.4,15.6,2.6,15.6z"/>
		<path class="st1" d="M3.6,15.5c0,0.2,0.4,0.6,0.5,0.6c0,0,0.2-0.6,0.1-0.7c0-0.2-0.2-0.3-0.4-0.2C3.6,15.1,3.5,15.3,3.6,15.5z"/>
		<path class="st1" d="M3.6,16.6c0.1-0.1,0.5-0.5,0.4-0.6c0,0-0.6,0-0.7,0.1c-0.1,0.1-0.2,0.3-0.1,0.4C3.3,16.6,3.5,16.7,3.6,16.6z"
			/>
		<path class="st1" d="M6.3,17.1c0,0.3,0.6,1,0.7,1c0.1,0,0.4-0.9,0.3-1.2c0-0.3-0.3-0.5-0.6-0.4C6.5,16.5,6.3,16.8,6.3,17.1z"/>
		<path class="st1" d="M6.1,19C6.4,18.8,7,18.1,7,18.1c0-0.1-1-0.2-1.2,0c-0.3,0.1-0.4,0.4-0.3,0.7C5.6,18.9,5.9,19.1,6.1,19z"/>
		<path class="st1" d="M7.5,17.6C7.5,17.9,7.9,19,8,19c0.1,0,0.7-1,0.7-1.3c0-0.3-0.2-0.6-0.6-0.7C7.8,17,7.5,17.2,7.5,17.6z"/>
		<path class="st1" d="M7.2,20.1c0.3-0.2,1-1.1,0.9-1.2c0-0.1-1.2-0.1-1.5,0.1c-0.3,0.2-0.4,0.5-0.3,0.9C6.5,20.2,6.8,20.3,7.2,20.1
			z"/>
		<path class="st1" d="M8.6,18.5c0,0.3,0.4,1.4,0.5,1.4c0.1,0,0.7-1,0.7-1.3c0-0.3-0.2-0.6-0.6-0.7C8.9,17.9,8.6,18.1,8.6,18.5z"/>
		<path class="st1" d="M8.3,21c0.3-0.2,1-1.1,0.9-1.2c0-0.1-1.2-0.1-1.5,0.1c-0.3,0.2-0.4,0.5-0.3,0.9C7.6,21.1,8,21.2,8.3,21z"/>
		<path class="st1" d="M10.4,19.4c-0.2,0.3-0.1,1.5,0,1.5c0.1,0,1-0.7,1.2-1c0.2-0.3,0-0.7-0.3-0.8C10.9,19,10.5,19.1,10.4,19.4z"/>
		<path class="st1" d="M9.3,22c0.3-0.1,1.1-1,1.1-1.1c0-0.1-1.2-0.2-1.5-0.1c-0.3,0.1-0.5,0.5-0.4,0.8C8.7,21.9,9,22.1,9.3,22z"/>
		<path class="st1" d="M4.4,16c0,0.2,0.4,0.6,0.5,0.6c0,0,0.2-0.6,0.1-0.7c0-0.2-0.2-0.3-0.4-0.2C4.5,15.6,4.4,15.8,4.4,16z"/>
		<path class="st1" d="M4.5,17.1C4.6,17,5,16.6,4.9,16.5c0,0-0.6,0-0.7,0.1C4,16.7,4,16.8,4.1,17C4.1,17.1,4.3,17.2,4.5,17.1z"/>
		<path class="st1" d="M5.3,16.4c0,0.2,0.5,0.9,0.6,0.9c0.1,0,0.3-0.8,0.3-1c0-0.2-0.3-0.4-0.5-0.4C5.4,15.9,5.3,16.1,5.3,16.4z"/>
		<path class="st1" d="M5.3,18.1c0.2-0.1,0.7-0.8,0.6-0.9c0-0.1-0.8,0-1.1,0.1c-0.2,0.1-0.3,0.4-0.2,0.6C4.8,18.1,5.1,18.2,5.3,18.1
			z"/>
	</g>
	<g>
		<path class="st2" d="M13.4,20.2c0,0,3.1-4-4.6-8.2C8.8,12,7.8,21,13.4,20.2z"/>
		<path class="st3" d="M8.8,12l4.9,7.6C14.2,18.4,14.8,15.3,8.8,12z"/>
		<path class="st4" d="M13.5,19.3C13.5,19.3,13.5,19.3,13.5,19.3C13.5,19.3,13.5,19.3,13.5,19.3L8.8,12c0,0,0,0,0,0c0,0,0,0,0,0
			L13.5,19.3C13.5,19.3,13.5,19.3,13.5,19.3z"/>
		<path class="st4" d="M11.3,15.8C11.3,15.8,11.3,15.8,11.3,15.8C11.3,15.8,11.3,15.8,11.3,15.8l-2.3-0.7c0,0,0,0,0,0c0,0,0,0,0,0
			L11.3,15.8C11.3,15.8,11.3,15.8,11.3,15.8z"/>
		<path class="st4" d="M12.3,17.4C12.3,17.4,12.3,17.4,12.3,17.4C12.3,17.4,12.3,17.4,12.3,17.4L12.1,15c0,0,0,0,0,0c0,0,0,0,0,0
			L12.3,17.4C12.3,17.4,12.3,17.4,12.3,17.4z"/>
	</g>
	<g>
		<path class="st3" d="M13.1,21.5c0,0-0.9-5.5-9.9-2.4C3.2,19.2,9.6,26.6,13.1,21.5z"/>
		<path class="st2" d="M3.2,19.2l9.9,2.4C13.1,21.5,10.5,26.9,3.2,19.2z"/>
		<path class="st3" d="M5.8,20.8C5.8,20.8,5.8,20.8,5.8,20.8l2.3-0.5c0,0,0,0,0,0c0,0,0,0,0,0L5.8,20.8C5.8,20.7,5.8,20.7,5.8,20.8
			C5.8,20.8,5.8,20.8,5.8,20.8z"/>
		<path class="st3" d="M9.1,22.3C9.1,22.3,9.1,22.3,9.1,22.3l3-1c0,0,0,0,0,0c0,0,0,0,0,0L9.1,22.3C9.1,22.2,9.1,22.3,9.1,22.3
			C9.1,22.3,9.1,22.3,9.1,22.3z"/>
	</g>
	<g>
		<path class="st2" d="M32.2,22.3c0,0-2.2-4.4,5.9-6.9C38.2,15.3,37.4,24.1,32.2,22.3z"/>
		<path class="st3" d="M38.2,15.3l-6.1,6.3C31.8,20.4,31.8,17.3,38.2,15.3z"/>
		<path class="st4" d="M32.3,21.4C32.3,21.4,32.3,21.4,32.3,21.4C32.3,21.4,32.3,21.4,32.3,21.4l5.8-6.1c0,0,0,0,0,0c0,0,0,0,0,0
			L32.3,21.4C32.3,21.4,32.3,21.4,32.3,21.4z"/>
		<path class="st4" d="M35.1,18.5C35.1,18.5,35.1,18.5,35.1,18.5C35.1,18.5,35.1,18.5,35.1,18.5l2.3-0.2c0,0,0,0,0,0c0,0,0,0,0,0
			L35.1,18.5C35.1,18.5,35.1,18.5,35.1,18.5z"/>
		<path class="st4" d="M33.9,19.8C33.9,19.8,33.9,19.8,33.9,19.8C33.9,19.8,33.8,19.8,33.9,19.8l0.6-2.2c0,0,0,0,0,0c0,0,0,0,0,0
			L33.9,19.8C33.9,19.8,33.9,19.8,33.9,19.8z"/>
	</g>
	<g>
		<path class="st3" d="M32.1,22.1c0,0,0.6-4.1,7.3-1.9C39.4,20.2,34.8,25.8,32.1,22.1z"/>
		<path class="st2" d="M39.4,20.2l-7.3,1.9C32.1,22.1,34.1,26.1,39.4,20.2z"/>
		<path class="st3" d="M37.5,21.4C37.5,21.4,37.5,21.4,37.5,21.4l-1.7-0.3c0,0,0,0,0,0c0,0,0,0,0,0L37.5,21.4
			C37.6,21.4,37.6,21.4,37.5,21.4C37.6,21.4,37.6,21.4,37.5,21.4z"/>
		<path class="st3" d="M35.1,22.6C35.1,22.6,35.1,22.6,35.1,22.6l-2.2-0.7c0,0,0,0,0,0c0,0,0,0,0,0L35.1,22.6
			C35.1,22.6,35.1,22.6,35.1,22.6C35.1,22.6,35.1,22.6,35.1,22.6z"/>
	</g>
	<path class="st1" d="M17.4,5.3C17.3,5.3,17.3,5.3,17.4,5.3c-0.1-0.2-0.2-0.4-0.3-0.5c-0.2-0.3-0.4-0.5-0.6-0.8
		c-0.4-0.4-0.8-0.7-1.3-0.9c-0.5-0.2-1-0.3-1.6-0.3c0,0,0,0,0,0c0,0,0,0,0,0c-0.6,0-1.1,0.1-1.6,0.3c-0.5,0.2-0.9,0.5-1.3,0.9
		c-0.2,0.2-0.4,0.5-0.6,0.7C9.9,4.9,9.8,5,9.7,5.2c0,0.1,0,0.1-0.1,0.2C9.5,5.8,9.3,6.4,9.3,7s0.1,1.1,0.3,1.6
		c0,0.1,0.1,0.1,0.1,0.2C9.8,8.9,9.9,9.1,10,9.2c0.2,0.2,0.3,0.5,0.6,0.7c0.4,0.4,0.8,0.7,1.3,0.9c0.5,0.2,1,0.3,1.6,0.3
		c0,0,0,0,0,0c0,0,0,0,0,0c0.6,0,1.1-0.1,1.6-0.3c0.5-0.2,0.9-0.5,1.3-0.9c0.2-0.2,0.4-0.5,0.6-0.8c0.1-0.1,0.2-0.3,0.2-0.5
		c0,0,0-0.1,0.1-0.1c0.2-0.5,0.3-1.1,0.3-1.6S17.6,5.8,17.4,5.3z M16.8,8.5c-0.4-0.1-0.8-0.2-1.2-0.3c0.1-0.4,0.1-0.8,0.1-1.2
		c0-0.4,0-0.8-0.1-1.2c0.4-0.1,0.9-0.2,1.2-0.3c0,0,0,0.1,0,0.1C17.1,6,17.2,6.5,17.2,7c0,0.5-0.1,1-0.3,1.4
		C16.9,8.4,16.8,8.5,16.8,8.5z M11.9,7c0-0.4,0-0.8,0.1-1.1c0.5,0.1,1.1,0.1,1.7,0.1c0.5,0,1,0,1.5-0.1c0.1,0.4,0.1,0.7,0.1,1.1
		c0,0.4,0,0.8-0.1,1.1C14.6,8,14.1,8,13.6,8c-0.6,0-1.1,0-1.7,0.1C11.9,7.8,11.9,7.4,11.9,7z M14.9,3.6c0.4,0.2,0.8,0.4,1.2,0.8
		c0.2,0.2,0.4,0.4,0.5,0.6c-0.3,0.1-0.7,0.2-1.1,0.3c-0.1-0.4-0.2-0.8-0.4-1.2c-0.1-0.2-0.2-0.4-0.3-0.5C14.8,3.6,14.9,3.6,14.9,3.6
		z M14.1,3.6c0.2,0.2,0.4,0.4,0.5,0.8c0.1,0.3,0.3,0.7,0.4,1c-0.4,0.1-0.9,0.1-1.4,0.1c-0.5,0-1.1,0-1.6-0.1c0.1-0.4,0.2-0.7,0.4-1
		c0.2-0.3,0.3-0.6,0.5-0.8c0.2-0.2,0.4-0.2,0.6-0.2C13.7,3.3,13.9,3.4,14.1,3.6z M10.9,4.4c0.3-0.3,0.7-0.6,1.2-0.8
		c0.1,0,0.1,0,0.2-0.1c-0.1,0.2-0.2,0.3-0.3,0.5c-0.2,0.3-0.3,0.7-0.4,1.2c-0.4-0.1-0.7-0.2-1-0.3C10.6,4.7,10.8,4.5,10.9,4.4z
		 M10.2,8.4C10,7.9,9.9,7.4,9.9,7c0-0.5,0.1-1,0.3-1.4c0,0,0-0.1,0.1-0.1c0,0,0,0,0,0c0.4,0.1,0.8,0.3,1.2,0.3
		c-0.1,0.4-0.1,0.8-0.1,1.2c0,0.4,0,0.9,0.1,1.3c-0.4,0.1-0.8,0.2-1.2,0.3c0,0,0,0,0,0C10.2,8.5,10.2,8.4,10.2,8.4z M12.1,10.3
		c-0.4-0.2-0.8-0.4-1.2-0.8c-0.2-0.2-0.3-0.3-0.4-0.5c0.3-0.1,0.7-0.2,1-0.3c0.1,0.4,0.2,0.8,0.4,1.1c0.1,0.2,0.2,0.4,0.3,0.5
		C12.2,10.4,12.1,10.3,12.1,10.3z M12.9,10.4c-0.2-0.2-0.4-0.4-0.5-0.8c-0.1-0.3-0.3-0.6-0.3-1c0.5-0.1,1-0.1,1.6-0.1
		c0.5,0,0.9,0,1.4,0.1c-0.1,0.4-0.2,0.7-0.4,1c-0.2,0.3-0.3,0.6-0.5,0.8c-0.2,0.2-0.4,0.2-0.6,0.2C13.3,10.6,13.1,10.5,12.9,10.4z
		 M16.1,9.5c-0.3,0.3-0.7,0.6-1.2,0.8c-0.1,0-0.1,0-0.2,0.1c0.1-0.2,0.2-0.3,0.3-0.5c0.2-0.3,0.3-0.7,0.4-1.1
		c0.4,0.1,0.7,0.2,1.1,0.3C16.4,9.2,16.3,9.4,16.1,9.5z"/>
	<ellipse class="st1" cx="21.9" cy="24" rx="19.5" ry="1.4"/>
	<g>
		<path class="st5" d="M32.5,23H13c-0.3,0-0.5-0.2-0.5-0.5V8.2c0-0.3,0.2-0.5,0.5-0.5h19.5c0.3,0,0.5,0.2,0.5,0.5v14.2
			C33,22.8,32.8,23,32.5,23z"/>
		<rect x="12.9" y="8.2" class="st6" width="19.6" height="14.6"/>
		<rect x="10.4" y="22.4" class="st5" width="24.6" height="1"/>
		<rect x="13.3" y="8.5" class="st7" width="18.9" height="13.4"/>
	</g>
	<g>
		<g>
			<path class="st8" d="M6.4,13.8c0,0.1,0,0.3,0,0.4c-0.1,0.2-0.2,0.3-0.3,0.4c-0.1,0.2,0,0.4-0.2,0.6c0,0.1-0.1,0.1-0.2,0.1
				c-0.1,0.1-0.1,0.3,0,0.4C5.8,15.9,6,16,6.2,16c0.2,0,0.4,0,0.5,0C6.9,16,7.1,16,7.3,16c0.3,0,0.5-0.1,0.6-0.3
				c0.2-0.2,0.3-0.4,0.3-0.7c0-0.1,0-0.2,0-0.3c0-0.4-0.2-0.7-0.4-1c-0.1-0.1-0.2-0.3-0.4-0.3C7.2,13.2,6.4,13.3,6.4,13.8z"/>
			<g>
				<path class="st9" d="M8.1,23.1c0,0-0.1,0.6,0.1,0.7c0.2,0.1,0.7,0.3,0.6,0.4c0,0.1-1.1,0.1-1.1,0s0.1-0.4,0-1L8.1,23.1z"/>
				<path class="st10" d="M7.7,24c0,0.1,0,0.2,0,0.2c0,0.1,1.1,0.1,1.1,0c0-0.1-0.2-0.2-0.4-0.3C8.4,24,8.3,24.1,7.7,24z"/>
			</g>
			<g>
				<path class="st9" d="M6.2,23.1c0,0-0.2,0.6-0.1,0.7c0.2,0.2,0.6,0.4,0.6,0.5c-0.1,0.1-1.1-0.1-1.1-0.2c0-0.1,0.2-0.4,0.1-1
					L6.2,23.1z"/>
				<path class="st10" d="M5.7,23.9c0,0.1-0.1,0.2,0,0.2c0,0.1,1,0.3,1.1,0.2c0-0.1-0.2-0.2-0.4-0.3C6.3,24,6.1,24.1,5.7,23.9z"/>
			</g>
			<path class="st9" d="M8.5,15.9c0,0,0.2,0.3,0.4,0.3c0.2,0,0.8-0.8,0.8-0.8l0.1,0.2c0,0-0.5,1.1-1,1.1c-0.5,0-0.8-0.5-0.8-0.5
				c0,0,0.3-0.3,0.3-0.3H8.5z"/>
			<path class="st10" d="M8,17.5c0,0,0.3,0.3,0.4,0.7c0.1,0.4-0.2,5.1-0.2,5.1H7.7c0,0-0.3-4.2-0.3-4.2c0-0.1-1.1,4.2-1.1,4.2H5.7
				c0,0,0.3-5.1,1-5.8l0.7,0L8,17.5z"/>
			<path class="st4" d="M8,17.3v0.2c0,0-0.3,0.3-1.3,0l0-0.2l0.9-0.1L8,17.3z"/>
			<path class="st6" d="M7.7,15.2c0,0,0.3,0,0.5,0.1c0.1,0.1,0.4,0.6,0.4,0.6l-0.3,0.3c0,0,0.1,0.3-0.2,0.4L8,17.3
				c0,0-0.6,0.3-1.3,0c0,0-0.1-1.3-0.3-1.2c-0.1,0.1-0.2,0.2-0.2,0.2l-0.5-0.5c0,0,0.5-0.6,0.7-0.6c0.4-0.2,0.8,0,0.8,0L7.7,15.2z"
				/>
			<path class="st9" d="M6.2,16.3c0,0-0.3,0.3-0.3,0.4c0,0.1,0.6,0.9,0.6,1c0.1,0.1,0,0.2,0,0.2l-0.3,0.1c0,0,0-0.2-0.1-0.3
				c-0.1-0.1-0.9-1-0.9-1.2c0-0.3,0.4-0.7,0.4-0.7L6.2,16.3z"/>
			<g>
				<path class="st9" d="M7.8,14.1C7.8,14.1,7.9,14.1,7.8,14.1c0.2,0,0.1,0.1,0,0.1L7.8,14.1z"/>
				<path class="st9" d="M7.2,13.4c-0.3,0.1-0.5,0.3-0.5,0.6c0,0.1,0,0.2,0.1,0.3C6.9,14.4,7,14.5,7,14.7c0.1,0.1,0.1,0.2,0.1,0.4
					l0,0.1c0.3,0.1,0.5,0,0.5,0l0-0.4l0,0c0.4-0.1,0.2-0.7,0.2-0.9l0,0c0,0,0,0,0,0C7.8,13.5,7.5,13.3,7.2,13.4z"/>
				<path class="st8" d="M7.2,13.9c-0.1,0.1-0.2,0.3-0.2,0.4c0,0-0.1,0.1,0,0.1c-0.1-0.1-0.2-0.2-0.2-0.3c-0.1-0.2-0.1-0.4,0-0.6
					c0.1-0.2,0.3-0.3,0.4-0.3c0.2,0,0.4,0,0.6,0.2c0.1,0.1,0.2,0.4,0.2,0.5c0-0.2-0.3-0.3-0.5-0.4C7.4,13.6,7.2,13.8,7.2,13.9
					C7.2,13.9,7.2,13.9,7.2,13.9z"/>
				<path class="st9" d="M7,14.3C6.9,14.3,6.9,14.3,7,14.3c-0.1,0-0.2-0.1-0.2,0c-0.1,0.1,0.1,0.2,0.2,0.1C7,14.5,7,14.4,7,14.3z"/>
				
					<ellipse transform="matrix(0.9999 -1.721259e-02 1.721259e-02 0.9999 -0.2424 0.1345)" class="st4" cx="7.7" cy="14.1" rx="0" ry="0"/>
				
					<ellipse transform="matrix(0.9999 -1.720954e-02 1.720954e-02 0.9999 -0.2442 0.1266)" class="st4" cx="7.2" cy="14.3" rx="0" ry="0"/>
				<path class="st11" d="M7.7,14.5C7.7,14.5,7.6,14.4,7.7,14.5c-0.1,0-0.1,0-0.1,0s0,0,0,0c0,0-0.1,0.1-0.1,0.1s0.1,0.1,0.2,0.1
					C7.7,14.6,7.7,14.5,7.7,14.5L7.7,14.5z"/>
				<path class="st4" d="M7.1,14.2C7.1,14.2,7.1,14.2,7.1,14.2C7.1,14.2,7.1,14.2,7.1,14.2c0,0,0-0.1,0.1-0.1c0,0,0,0,0,0
					c0,0,0,0,0,0C7.2,14.1,7.1,14.2,7.1,14.2C7.1,14.2,7.1,14.2,7.1,14.2z"/>
				<path class="st4" d="M7.6,14C7.6,14,7.6,14,7.6,14C7.6,14,7.6,14,7.6,14c0,0,0.1-0.1,0.2-0.1c0,0,0,0,0,0c0,0,0,0,0,0
					C7.7,14,7.6,14,7.6,14C7.6,14,7.6,14.1,7.6,14z"/>
				<path class="st12" d="M7.5,14.4C7.6,14.4,7.6,14.4,7.5,14.4C7.6,14.3,7.6,14.3,7.5,14.4c0-0.2,0-0.3,0-0.3c0,0,0,0,0,0
					c0,0,0,0,0,0C7.5,14.2,7.5,14.3,7.5,14.4C7.6,14.4,7.6,14.4,7.5,14.4C7.5,14.4,7.5,14.4,7.5,14.4C7.5,14.4,7.5,14.4,7.5,14.4
					C7.5,14.4,7.5,14.4,7.5,14.4z"/>
				<path class="st13" d="M7.7,14.5l-0.3,0.1c0,0,0.1,0.1,0.2,0.1C7.7,14.6,7.7,14.5,7.7,14.5z"/>
			</g>
			<g>
				<path class="st9" d="M6.4,17.6c0,0,0.2,0.3,0.2,0.4c0,0.1-0.1,0.3-0.1,0.3c0,0,0,0.2,0,0.3c0,0-0.1-0.2-0.1-0.2s0,0.2,0,0.2
					c0,0-0.1-0.2-0.1-0.2s0,0.2,0,0.2c0,0-0.1-0.2-0.1-0.2s0,0.2,0,0.2c0,0-0.1-0.3,0-0.4c0.1-0.2,0.1-0.4,0.1-0.4L6.4,17.6z"/>
				<path class="st9" d="M6.6,17.8c0,0,0.1,0.2,0.1,0.3c0,0.1,0,0.2,0,0.2c0,0-0.1-0.2-0.1-0.2c0,0,0-0.1,0-0.1L6.6,17.8z"/>
			</g>
			<path class="st2" d="M7.2,16.5c-0.3,0-0.4-0.3-0.4-0.3c0,0,0,0,0,0c0,0,0,0,0,0C6.8,16.3,6.9,16.5,7.2,16.5
				c0.2,0,0.3-0.2,0.3-0.2c0,0,0,0,0,0c0,0,0,0,0,0C7.5,16.3,7.4,16.5,7.2,16.5z"/>
			<path class="st2" d="M8.3,16.2C8.3,16.2,8.3,16.2,8.3,16.2c0,0,0-0.2-0.2-0.3c0,0,0,0,0,0c0,0,0,0,0,0C8.3,16,8.3,16.2,8.3,16.2
				C8.3,16.2,8.3,16.2,8.3,16.2C8.3,16.2,8.3,16.2,8.3,16.2z"/>
			<path class="st1" d="M7.6,17.7c-0.1,0-0.2-0.1-0.2-0.2c0-0.1,0.1-0.2,0.2-0.2c0.1,0,0.2,0.1,0.2,0.2C7.7,17.7,7.6,17.7,7.6,17.7z
				 M7.6,17.5C7.5,17.5,7.5,17.5,7.6,17.5c-0.1,0.1,0,0.2,0,0.2C7.6,17.7,7.6,17.6,7.6,17.5C7.6,17.5,7.6,17.5,7.6,17.5z"/>
		</g>
		<path class="st9" d="M9.8,15.3c0,0,0.2-0.3,0.2-0.3l0.2,0.3l-0.3,0.3L9.8,15.3z"/>
		<path class="st9" d="M9.7,15.4c0,0,0-0.2,0-0.3c0.1-0.1,0.2-0.3,0.2-0.2c0,0.1-0.1,0.3-0.1,0.3c0,0.1,0.2,0.2,0,0.4
			C9.6,15.8,9.7,15.4,9.7,15.4z"/>
	</g>
	<g>
		<path class="st9" d="M30.2,10c0,0-0.1,0.4,0.1,0.6c0.2,0.2,0.5,0.5,0.4,0.6c-0.1,0.1-1-0.4-1-0.5c0-0.1,0.2-0.5,0.1-0.8H30.2z"/>
		<path class="st4" d="M29.7,10.5c0,0.1,0,0.2-0.1,0.2c0,0.1,0.9,0.6,1,0.5c0.1-0.1-0.1-0.2-0.2-0.4C30.3,10.8,30.1,10.9,29.7,10.5z
			"/>
		<path class="st9" d="M29.3,10c0,0-0.1,0.4,0.1,0.6c0.2,0.2,0.5,0.5,0.4,0.6c-0.1,0.1-1-0.4-1-0.5c0-0.1,0.2-0.5,0.1-0.8H29.3z"/>
		<path class="st10" d="M29.2,2.7c0.2,0.2,0.3,0.4,0.3,0.7c0,0.2-0.2,0.4-0.1,0.6c0,0.1,0,0.2,0.1,0.2c0,0.1,0,0.3,0,0.4
			c0,0.1-0.1,0.2-0.2,0.2c-0.1,0-0.1,0.1-0.2,0.1c-0.1,0-0.3,0.1-0.4,0c-0.1,0-0.3-0.1-0.4-0.2c-0.1-0.1-0.1-0.2-0.2-0.2
			c0,0-0.1,0-0.1,0c-0.1,0-0.2,0-0.4,0c-0.1,0-0.3,0.1-0.4,0.1c-0.2,0-0.4-0.1-0.4-0.3c0-0.2,0-0.4,0.2-0.5c0.1-0.1,0.3-0.1,0.4-0.2
			c0.1-0.1,0.1-0.2,0.1-0.4C27.6,3.1,27.9,3.1,28,3c0.2-0.1,0.2-0.3,0.4-0.4C28.7,2.5,29,2.5,29.2,2.7z"/>
		<path class="st11" d="M27.2,6.6c0,0-0.2,1,0.1,1.2c0.3,0.1,1.5,0.4,1.5,0.6c0.1,0.2,0,1.9,0,1.9l0.5,0c0,0,0.2-1.9,0.2-2.1
			c0-0.4-0.2-0.5-0.2-0.5s0.3,0.2,0.3,0.5c0,0.2,0,1.9,0,1.9l0.5,0c0,0,0.4-2.4,0-2.7c-0.4-0.3-1.5-0.8-1.5-0.8L27.2,6.6z"/>
		<path class="st9" d="M29.3,5.2l0.2,1l-0.4,0.1c0,0-0.3-0.4-0.3-0.8C28.7,5,29.3,5.2,29.3,5.2z"/>
		<path class="st6" d="M28.4,4.2c0,0,0.4,0.1,0.6,0.4c0.2,0.3,0.3,0.8,0.3,0.8l-0.4,0.1c0,0,0,0.3-0.2,0.4c0,0-0.1,0.5,0,0.9
			c0,0-1,0.3-1.6,0L27,5.3l-0.4-0.2c0,0,0.2-0.9,0.7-1C27.8,4,28.2,4.1,28.4,4.2z"/>
		<path class="st9" d="M26.8,5.2l0.5,0.2c0,0-0.1,0.4-0.1,0.6c0.1,0.3,0.5,0.7,0.8,0.7L28,7c0,0-1.2-0.1-1.3-0.7
			C26.5,5.6,26.8,5.2,26.8,5.2z"/>
		<path class="st14" d="M28.9,5.4C28.9,5.4,28.9,5.4,28.9,5.4C28.9,5.4,28.9,5.4,28.9,5.4c0-0.2-0.1-0.3-0.1-0.3c0,0,0,0,0,0
			c0,0,0,0,0,0C28.8,5.1,29,5.3,28.9,5.4C29,5.4,28.9,5.4,28.9,5.4z"/>
		<path class="st14" d="M27.9,5.6c-0.1,0-0.2,0-0.4-0.2c0,0,0,0,0,0c0,0,0,0,0,0c0.3,0.3,0.6,0.1,0.6,0.1c0,0,0,0,0,0c0,0,0,0,0,0
			C28.2,5.5,28.1,5.6,27.9,5.6z"/>
		<polygon class="st14" points="27.3,5.4 27.3,5.4 27.3,5.4 27.3,5.4 27.3,5.4 27.3,5.4 27.5,4.9 27.5,4.9 27.5,4.9 27.4,5.4 
			27.4,5.4 		"/>
		<path class="st12" d="M29.1,3.6C29.1,3.6,29.2,3.5,29.1,3.6c0.1,0.1,0,0.1,0,0.1L29.1,3.6z"/>
		<path class="st9" d="M28.9,2.6c-0.3-0.1-0.5,0.1-0.7,0.3c0,0.1-0.1,0.2,0,0.3c0,0.2,0,0.4,0,0.5c0,0.1,0,0.3,0,0.4l0,0
			c0,0,0,0.1,0,0.1c0.1,0.1,0.2,0.1,0.3,0.1c0,0,0.1,0,0.1-0.1l0.1-0.2l0,0c0.3,0.1,0.5-0.5,0.6-0.7l0,0c0,0,0,0,0,0
			C29.3,3,29.2,2.7,28.9,2.6z"/>
		<path class="st10" d="M28.6,3.1c-0.1,0-0.2,0.1-0.2,0.1c-0.1,0.1-0.2,0.1-0.2,0.2c-0.1-0.1-0.1-0.2-0.1-0.3c0-0.1,0-0.1,0-0.2
			c0-0.1,0.1-0.1,0.1-0.2c0.1-0.1,0.1-0.2,0.2-0.2c0.1,0,0.1,0,0.2,0c0.1,0,0.3,0,0.4,0.1c0.1,0.1,0.2,0.2,0.3,0.3
			c0.1,0.2,0,0.4-0.1,0.5c0-0.1,0-0.2,0-0.2c0,0,0-0.1-0.1-0.1C29,3.1,29,3.1,28.9,2.9C28.8,3,28.8,3.1,28.6,3.1z"/>
		<path class="st9" d="M28.3,3.4C28.3,3.4,28.3,3.3,28.3,3.4c-0.1-0.1-0.1-0.1-0.2-0.1c-0.1,0,0,0.3,0.1,0.2
			C28.2,3.5,28.3,3.5,28.3,3.4z"/>
		<ellipse transform="matrix(0.4413 -0.8974 0.8974 0.4413 12.9948 28.0354)" class="st5" cx="29" cy="3.6" rx="0" ry="0"/>
		<ellipse transform="matrix(0.4413 -0.8974 0.8974 0.4413 12.877 27.569)" class="st5" cx="28.6" cy="3.4" rx="0" ry="0"/>
		<path class="st15" d="M28.8,3.8C28.8,3.8,28.8,3.8,28.8,3.8c-0.1,0-0.1,0-0.1,0s0,0,0,0c0,0-0.1,0-0.1,0s0,0.1,0.1,0.1
			C28.8,3.9,28.8,3.8,28.8,3.8L28.8,3.8z"/>
		<path class="st5" d="M28.7,3.9c-0.1,0-0.2-0.1-0.2-0.1c0,0,0,0,0,0c0,0,0,0,0,0C28.6,3.8,28.7,3.9,28.7,3.9c0.1,0,0.1,0,0.1,0
			c0,0,0,0,0,0C28.8,3.9,28.8,3.9,28.7,3.9z"/>
		<path class="st10" d="M28.5,3.4C28.5,3.4,28.5,3.4,28.5,3.4C28.5,3.3,28.5,3.3,28.5,3.4c0,0,0.1-0.1,0.2,0c0,0,0,0,0,0
			c0,0,0,0,0,0C28.6,3.3,28.5,3.4,28.5,3.4C28.5,3.4,28.5,3.4,28.5,3.4z"/>
		<path class="st10" d="M29,3.5C29,3.5,29,3.5,29,3.5C29,3.5,29,3.4,29,3.5c0,0,0.1,0,0.2,0c0,0,0,0,0,0c0,0,0,0,0,0
			C29,3.5,29,3.5,29,3.5C29,3.5,29,3.5,29,3.5z"/>
		<path class="st12" d="M28.8,3.7C28.7,3.7,28.7,3.7,28.8,3.7C28.7,3.7,28.7,3.7,28.8,3.7C28.7,3.7,28.7,3.7,28.8,3.7
			C28.8,3.7,28.8,3.6,28.8,3.7c0-0.1,0.1-0.2,0.1-0.2c0,0,0,0,0,0c0,0,0,0,0,0C28.8,3.5,28.8,3.6,28.8,3.7
			C28.8,3.6,28.8,3.6,28.8,3.7C28.8,3.6,28.8,3.7,28.8,3.7z"/>
		<path class="st9" d="M28,7c0,0,0.1,0,0.1,0c0.1,0,0.3,0,0.3,0S28.6,7,28.6,7c0,0-0.1-0.1-0.1-0.1s0.2,0.1,0.2,0
			c0,0-0.1-0.1-0.1-0.1s0.2,0.1,0.2,0c0,0-0.1-0.1-0.1-0.1s0.2,0,0.2,0c0,0-0.2-0.1-0.3-0.1c-0.1,0-0.4,0-0.4,0L28,7z"/>
		<path class="st4" d="M28.8,10.6c0,0.1,0,0.2-0.1,0.2c0,0.1,0.9,0.6,1,0.5c0.1-0.1-0.1-0.2-0.2-0.4C29.4,10.9,29.2,11,28.8,10.6z"
			/>
		<g>
			<polygon class="st4" points="30.8,6.1 29.1,5.9 28.4,7.2 30.2,7.3 			"/>
			
				<rect x="27.5" y="7.1" transform="matrix(0.9961 8.779245e-02 -8.779245e-02 0.9961 0.7329 -2.4434)" class="st4" width="1.2" height="0.1"/>
		</g>
		<g>
			<path class="st4" d="M28.5,3.6C28.5,3.6,28.4,3.5,28.5,3.6c-0.1-0.1-0.1-0.1-0.1-0.2c0-0.1,0.1-0.1,0.2-0.1
				c0.1,0,0.1,0.1,0.1,0.2l0,0c0,0,0,0.1-0.1,0.1C28.6,3.6,28.6,3.6,28.5,3.6C28.5,3.6,28.5,3.6,28.5,3.6z M28.6,3.3
				C28.6,3.3,28.6,3.3,28.6,3.3c-0.1,0-0.2,0-0.2,0.1c0,0,0,0.1,0,0.1c0,0,0.1,0.1,0.1,0.1c0,0,0.1,0,0.1,0c0,0,0.1-0.1,0.1-0.1l0,0
				C28.7,3.4,28.7,3.3,28.6,3.3z"/>
			<path class="st4" d="M28.9,3.7C28.9,3.7,28.9,3.7,28.9,3.7c-0.1-0.1-0.1-0.1-0.1-0.2c0-0.1,0.1-0.1,0.2-0.1c0,0,0.1,0,0.1,0.1
				c0,0,0,0.1,0,0.1l0,0c0,0,0,0.1-0.1,0.1C29.1,3.7,29,3.7,28.9,3.7C29,3.7,29,3.7,28.9,3.7z M29.1,3.4C29.1,3.4,29.1,3.4,29.1,3.4
				c-0.1,0-0.2,0-0.2,0.1c0,0.1,0,0.2,0.1,0.2c0,0,0.1,0,0.1,0c0,0,0.1-0.1,0.1-0.1l0,0C29.2,3.6,29.2,3.5,29.1,3.4
				C29.1,3.5,29.1,3.4,29.1,3.4z"/>
			<polygon class="st4" points="28.2,3.3 28.2,3.3 28.4,3.4 28.4,3.4 			"/>
			<path class="st4" d="M28.7,3.5L28.7,3.5c0.1,0,0.2,0,0.2,0l0,0C28.9,3.5,28.8,3.5,28.7,3.5z"/>
		</g>
		<ellipse transform="matrix(0.2542 -0.9672 0.9672 0.2542 15.7438 33.6653)" class="st6" cx="29.7" cy="6.6" rx="0.1" ry="0.1"/>
	</g>
	<g>
		<rect x="9.8" y="14.2" class="st11" width="1.8" height="9.2"/>
		<rect x="10.4" y="14.2" class="st16" width="0.6" height="9.2"/>
		<polygon class="st6" points="10.8,12.4 9.8,14.2 11.6,14.2 		"/>
		<polygon class="st4" points="10.8,12.4 10.3,13.3 11.2,13.3 		"/>
		<rect x="9.8" y="23.3" class="st17" width="1.8" height="1"/>
		<rect x="9.8" y="23" class="st6" width="1.8" height="0.4"/>
	</g>
	<g>
		<rect x="14" y="6.4" class="st6" width="11.5" height="14.8"/>
		<rect x="14" y="6.4" class="st17" width="11.5" height="1.1"/>
		<g>
			<circle class="st0" cx="14.6" cy="6.9" r="0.1"/>
			<circle class="st0" cx="15.1" cy="6.9" r="0.1"/>
			<circle class="st0" cx="15.6" cy="6.9" r="0.1"/>
		</g>
		<g>
			<rect x="14.9" y="8.3" class="st0" width="3.3" height="3.3"/>
			<g>
				<polygon class="st1" points="15.1,11.2 16.1,9.5 16.8,10.4 17.1,10 17.9,11.2 				"/>
				<circle class="st1" cx="16.8" cy="9.2" r="0.2"/>
			</g>
		</g>
		<rect x="22.1" y="8.3" class="st11" width="2.3" height="0.3"/>
		<rect x="18.9" y="8.3" class="st11" width="2.8" height="0.3"/>
		<g>
			<rect x="18.9" y="9.3" class="st1" width="3.3" height="0.2"/>
			<rect x="22.4" y="9.3" class="st1" width="1" height="0.2"/>
			<rect x="18.9" y="9.8" class="st1" width="1.3" height="0.2"/>
			<rect x="20.4" y="9.8" class="st1" width="1.8" height="0.2"/>
			<rect x="22.4" y="9.8" class="st1" width="1" height="0.2"/>
			<rect x="18.9" y="10.3" class="st1" width="1.8" height="0.2"/>
			<rect x="20.9" y="10.3" class="st1" width="2.8" height="0.2"/>
		</g>
		<g>
			<rect x="18.9" y="10.9" class="st1" width="3.3" height="0.2"/>
			<rect x="22.4" y="10.9" class="st1" width="1" height="0.2"/>
			<rect x="18.9" y="11.4" class="st1" width="1.3" height="0.2"/>
			<rect x="20.4" y="11.4" class="st1" width="1.8" height="0.2"/>
		</g>
		<g>
			<rect x="14.8" y="13.4" class="st1" width="5.5" height="0.2"/>
			<rect x="20.7" y="13.4" class="st1" width="1.7" height="0.2"/>
			<rect x="14.8" y="14" class="st1" width="2.2" height="0.2"/>
			<rect x="17.3" y="14" class="st1" width="3" height="0.2"/>
			<rect x="20.7" y="14" class="st1" width="1.7" height="0.2"/>
			<rect x="14.8" y="14.6" class="st1" width="3" height="0.2"/>
			<rect x="18.3" y="14.6" class="st1" width="4.7" height="0.2"/>
		</g>
		<rect x="15" y="15.4" class="st0" width="8.4" height="4.9"/>
		<polygon class="st1" points="18.2,16.6 18.2,19.1 20.1,17.8 		"/>
		<rect x="14.9" y="12.5" class="st2" width="3.4" height="0.3"/>
		<rect x="18.7" y="12.5" class="st2" width="2.7" height="0.3"/>
	</g>
	<g>
		<rect x="28.1" y="12" class="st1" width="3.2" height="0.1"/>
		<rect x="28.1" y="12.5" class="st1" width="1.4" height="0.1"/>
		<rect x="29.7" y="12.5" class="st1" width="1.6" height="0.1"/>
		<rect x="28.1" y="12.9" class="st1" width="1.9" height="0.1"/>
		<rect x="30.3" y="12.9" class="st1" width="1" height="0.1"/>
		<rect x="28.1" y="13.4" class="st1" width="1.5" height="0.1"/>
		<rect x="30" y="13.4" class="st1" width="1.4" height="0.1"/>
	</g>
	<g>
		<rect x="27.1" y="14.6" class="st1" width="4.2" height="0.1"/>
		<rect x="27.1" y="15.1" class="st1" width="1.8" height="0.1"/>
		<rect x="29.2" y="15.1" class="st1" width="2.1" height="0.1"/>
		<rect x="27.1" y="15.5" class="st1" width="2.6" height="0.1"/>
		<rect x="29.9" y="15.5" class="st1" width="1.4" height="0.1"/>
		<rect x="27.1" y="16" class="st1" width="1.9" height="0.1"/>
		<rect x="29.5" y="16" class="st1" width="1.8" height="0.1"/>
	</g>
	<g>
		<path class="st11" d="M27.5,13c0-1.1-0.9-1.9-2.1-1.9c-1.2,0-2.1,0.9-2.1,1.9c0,0.5,0.2,1,0.6,1.3c0.3,0.3,0.5,0.7,0.5,1.2l0,0
			c0,0.4,0.3,0.7,0.7,0.7h0.7c0.4,0,0.7-0.3,0.7-0.7l0,0c0-0.5,0.2-0.9,0.5-1.2C27.3,14,27.5,13.5,27.5,13z"/>
		<path class="st4" d="M25.8,16.4C25.8,16.4,25.8,16.4,25.8,16.4c0-0.2,0.3-3.6,0.3-3.8c0,0,0,0,0,0c0,0,0,0,0,0
			C26.2,12.7,25.8,16.2,25.8,16.4C25.8,16.4,25.8,16.4,25.8,16.4C25.8,16.4,25.8,16.4,25.8,16.4z"/>
		<path class="st4" d="M25.1,16.4C25.1,16.4,25.1,16.4,25.1,16.4C25,16.4,25,16.4,25.1,16.4c0-0.2-0.4-3.7-0.4-3.7c0,0,0,0,0,0
			c0,0,0,0,0,0C24.8,12.8,25.1,16.2,25.1,16.4C25.1,16.4,25.1,16.4,25.1,16.4z"/>
		<path class="st4" d="M25.4,13.5c-0.1,0-0.1,0-0.2-0.1c0,0-0.1,0-0.1,0c-0.1,0-0.1-0.1-0.2-0.1c0-0.1-0.1-0.3-0.1-0.4c0,0,0,0,0,0
			c0,0,0,0,0,0c0,0.1,0.1,0.3,0.1,0.3c0,0.1,0.1,0.1,0.2,0.1c0,0,0.1,0,0.1,0c0,0,0,0,0,0c-0.1-0.1-0.1-0.2-0.1-0.3
			c0-0.1,0-0.2,0-0.3c0,0,0-0.1,0.1-0.1c0.1,0,0.1,0,0.2,0.1c0,0.1,0,0.1,0,0.2c0,0.1,0,0.2-0.1,0.3c0,0,0,0.1-0.1,0.1
			C25.3,13.5,25.4,13.5,25.4,13.5c0.1-0.1,0.1-0.1,0.2-0.1c0,0-0.1,0-0.1-0.1c0,0,0-0.1,0-0.1c0-0.1,0-0.2,0-0.3c0,0,0,0,0,0
			c0,0,0.1,0,0.1,0c0,0,0,0.1,0,0.1c0,0.1,0,0.2,0,0.3c0,0,0,0.1-0.1,0.1c0,0,0.1,0,0.1,0c0,0,0,0,0.1,0c0,0,0-0.1,0-0.1
			c-0.1-0.2-0.1-0.4,0-0.5c0,0,0,0,0,0c0.1,0,0.1,0,0.1,0.1c0,0,0,0.1,0,0.1c0,0.1,0,0.2,0,0.3c0,0.1-0.1,0.1-0.1,0.1
			c0,0,0,0,0.1,0.1c0,0,0.1,0,0.1,0c0.1,0,0.1-0.1,0.1-0.2c0,0,0,0,0,0c0,0,0,0,0,0c0,0.1,0,0.2-0.1,0.2c0,0-0.1,0-0.1,0
			c0,0-0.1,0-0.1-0.1c0,0-0.1,0-0.1,0c-0.1,0-0.1,0-0.2,0C25.5,13.5,25.5,13.5,25.4,13.5C25.4,13.5,25.4,13.5,25.4,13.5z M25.2,12.9
			C25.2,12.9,25.2,12.9,25.2,12.9C25.1,12.9,25.1,12.9,25.2,12.9c-0.1,0.1-0.1,0.2-0.1,0.3c0,0.1,0,0.2,0.1,0.3c0,0,0,0,0,0
			c0,0,0,0,0.1-0.1c0-0.1,0.1-0.2,0.1-0.2c0-0.1,0-0.1,0-0.2C25.3,12.9,25.2,12.9,25.2,12.9z M25.5,12.9c0,0.1,0,0.2,0,0.3
			c0,0,0,0.1,0,0.1c0,0,0,0.1,0.1,0.1c0,0,0-0.1,0.1-0.1c0-0.1,0-0.2,0-0.3C25.6,13,25.6,13,25.5,12.9
			C25.6,12.9,25.5,12.9,25.5,12.9z M25.8,12.8c-0.1,0.2-0.1,0.4,0,0.5c0,0,0,0,0,0.1c0,0,0.1-0.1,0.1-0.1c0-0.1,0-0.2,0-0.3
			c0,0,0-0.1,0-0.1C25.9,12.8,25.8,12.8,25.8,12.8z"/>
		<path class="st18" d="M26.1,17.2h-1.3c-0.1,0-0.2-0.1-0.2-0.2v-0.3h1.7v0.3C26.3,17.1,26.2,17.2,26.1,17.2z"/>
		<path class="st4" d="M25.6,17c-0.5,0-0.9-0.1-1-0.2c-0.1,0-0.1-0.1-0.1-0.2c0-0.1,0.1-0.1,0.2-0.1c0,0,0.9,0.3,1.5,0
			c0.1,0,0.2,0,0.2,0.1c0,0.1,0,0.2-0.1,0.2C26.1,16.9,25.8,17,25.6,17z"/>
		<path class="st18" d="M25.6,16.7c-0.5,0-0.9-0.1-1-0.2c-0.1,0-0.1-0.1-0.1-0.2c0-0.1,0.1-0.1,0.2-0.1c0,0,0.9,0.3,1.5,0
			c0.1,0,0.2,0,0.2,0.1c0,0.1,0,0.2-0.1,0.2C26.1,16.7,25.8,16.7,25.6,16.7z"/>
		<path class="st4" d="M25.6,16.5c-0.5,0-0.9-0.1-1-0.2c-0.1,0-0.1-0.1-0.1-0.2c0-0.1,0.1-0.1,0.2-0.1c0,0,0.9,0.3,1.5,0
			c0.1,0,0.2,0,0.2,0.1c0,0.1,0,0.2-0.1,0.2C26.1,16.4,25.8,16.5,25.6,16.5z"/>
	</g>
	<g>
		<path class="st6" d="M30,22.7c0,0,0.7,0.3,0.8,0.3c0.2,0,0.7,0,0.4-0.3c-0.3-0.3-0.5-0.1-0.9-0.4C29.9,22.1,30,22.7,30,22.7z"/>
		<path class="st19" d="M28.2,20.9c0,0-1.3-0.3-1.6,0.5s1,1.1,1.3,1.1c0.2,0.1,0.8,0.1,0.9,0.1c0.1,0,0.6,0.1,0.6,0.1
			c0.1,0,0.7,0.2,0.7,0.2l0.5-0.7l-0.5-0.4L30,21L28.2,20.9z"/>
		<path class="st6" d="M29.2,17.8c0,0,1.1-0.1,1.6,0.7c0.5,0.8,0.9,1.4,0.2,2.1c-0.7,0.7-1.7,0.3-1.7,0.3L28,21c0,0-1.4-0.1-1-1.4
			C27.3,18.4,28.1,17.9,29.2,17.8z"/>
		<path class="st4" d="M30.4,19.3H28c0,0-0.1,0-0.1,0.1v1.7c0,0,0,0.1,0.1,0.1h2.4c0,0,0.1,0,0.1-0.1L30.4,19.3
			C30.5,19.4,30.4,19.3,30.4,19.3z"/>
		<path class="st6" d="M28.6,22.8c0,0-0.7,0.3-0.8,0.3c-0.2,0-0.7,0-0.4-0.3c0.3-0.3,0.5-0.1,0.9-0.4C28.7,22.2,28.6,22.8,28.6,22.8
			z"/>
		<path class="st4" d="M30,20.1C30,20.1,30,20.1,30,20.1C30,20.1,30,20.1,30,20.1c0.6-0.5,0.9-0.5,0.9-0.5c0,0,0,0,0,0c0,0,0,0,0,0
			C30.9,19.6,30.5,19.6,30,20.1C30,20.1,30,20.1,30,20.1z"/>
		<path class="st4" d="M28.4,20.1C28.4,20.1,28.4,20.1,28.4,20.1c-0.4-0.4-0.9-0.5-0.9-0.5c0,0,0,0,0,0c0,0,0,0,0,0
			C27.5,19.6,28.1,19.7,28.4,20.1C28.4,20.1,28.4,20.1,28.4,20.1C28.4,20.1,28.4,20.1,28.4,20.1z"/>
		<path class="st4" d="M30.2,19.4C30.2,19.4,30.1,19.4,30.2,19.4L30.1,19c0,0,0,0,0,0c0,0,0,0,0,0L30.2,19.4
			C30.2,19.4,30.2,19.4,30.2,19.4C30.2,19.4,30.2,19.4,30.2,19.4z"/>
		<path class="st4" d="M28.2,19.5C28.2,19.5,28.2,19.5,28.2,19.5C28.1,19.5,28.1,19.5,28.2,19.5l0-0.5c0,0,0,0,0,0c0,0,0,0,0,0
			L28.2,19.5C28.2,19.5,28.2,19.5,28.2,19.5z"/>
		<path class="st12" d="M28.1,17.2c0,0-0.1,0-0.1,0c-0.1,0.1,0.1,0.2,0.2,0.2L28.1,17.2z"/>
		<path class="st4" d="M29.7,21.6C29.7,21.6,29.7,21.6,29.7,21.6c-0.1,0-0.2-0.1-0.4-0.1c-0.1,0-0.1,0-0.2-0.1
			c-0.1,0-0.5-0.1-0.5-0.1c0,0-0.8-0.2-0.9-0.2c0,0,0,0,0,0c0,0,0,0,0,0c0.1,0,0.9,0.2,0.9,0.2c0,0,0.4,0,0.5,0.1c0,0,0.1,0,0.2,0.1
			C29.5,21.5,29.7,21.6,29.7,21.6C29.7,21.6,29.7,21.6,29.7,21.6C29.7,21.6,29.7,21.6,29.7,21.6z"/>
		<path class="st9" d="M29.3,17.8c-0.1-0.3-0.2-0.6-0.2-0.9c0-0.1,0-0.2,0-0.3c0-0.1,0-0.2-0.1-0.3c-0.2-0.3-0.5-0.4-0.8-0.3
			c-0.3,0.1-0.5,0.5-0.3,0.9c0,0,0,0,0,0l0,0c0.1,0.2,0.3,0.9,0.7,0.8l0.1,0.3C28.7,18,29,18.1,29.3,17.8L29.3,17.8z"/>
		<ellipse transform="matrix(0.8982 -0.4395 0.4395 0.8982 -4.6404 14.122)" class="st4" cx="28.2" cy="17.1" rx="0" ry="0"/>
		<ellipse transform="matrix(0.8983 -0.4394 0.4394 0.8983 -4.5229 14.3466)" class="st4" cx="28.7" cy="16.9" rx="0" ry="0"/>
		<path class="st4" d="M28.5,17.5c0,0-0.1,0-0.1,0c0,0,0,0,0,0C28.4,17.4,28.4,17.4,28.5,17.5c0.1,0,0.2-0.1,0.2-0.1c0,0,0,0,0,0
			c0,0,0,0,0,0C28.7,17.3,28.6,17.5,28.5,17.5z"/>
		<polygon class="st4" points="29.1,16.4 29.2,16.8 29,16.9 28.7,16.4 		"/>
		<path class="st9" d="M29,16.9C29,16.9,29,16.8,29,16.9c0.1-0.1,0.1-0.1,0.2-0.1c0.1,0,0.1,0.3-0.1,0.3C29.1,17,29,17,29,16.9z"/>
		<path class="st12" d="M28.5,17.3C28.5,17.3,28.5,17.3,28.5,17.3C28.4,17.3,28.4,17.3,28.5,17.3C28.4,17.2,28.4,17.2,28.5,17.3
			c-0.1-0.1,0-0.2-0.1-0.3c0,0,0,0,0,0c0,0,0,0,0,0C28.5,17.1,28.4,17.2,28.5,17.3C28.4,17.2,28.4,17.2,28.5,17.3
			C28.4,17.3,28.4,17.3,28.5,17.3C28.5,17.3,28.6,17.2,28.5,17.3C28.6,17.2,28.6,17.2,28.5,17.3C28.6,17.2,28.6,17.2,28.5,17.3
			C28.6,17.2,28.5,17.3,28.5,17.3z"/>
		<path class="st4" d="M28.6,16.9C28.6,16.9,28.6,16.9,28.6,16.9C28.6,16.9,28.6,16.8,28.6,16.9c0.1-0.1,0.2-0.1,0.2-0.1
			c0,0,0,0,0,0c0,0,0,0,0,0C28.8,16.9,28.7,16.8,28.6,16.9C28.6,16.9,28.6,16.9,28.6,16.9z"/>
		<path class="st4" d="M28,17.1C28,17.1,28,17.1,28,17.1C28,17.1,28,17.1,28,17.1c0-0.1,0.1-0.2,0.1-0.2c0,0,0,0,0,0c0,0,0,0,0,0
			C28.2,17,28.1,17,28,17.1C28.1,17.1,28,17.1,28,17.1z"/>
		<path class="st4" d="M29.1,16.3c0-0.1,0-0.1-0.1-0.2c0,0,0,0,0,0c0,0,0,0,0,0c0,0,0-0.1,0-0.1c0,0,0,0,0,0c0,0,0,0,0,0
			c0,0-0.1,0-0.1,0c0,0-0.1-0.1-0.2-0.1c0,0,0,0-0.1,0c-0.1,0-0.1-0.1-0.2,0c0,0,0,0,0,0c0,0-0.1,0-0.2,0c-0.1,0-0.1,0-0.1,0.1
			c0,0,0,0,0,0c0,0,0,0,0,0c-0.1,0-0.1,0-0.2,0.1c0,0-0.1,0.1,0,0.2c0,0-0.1,0-0.1,0.1c0,0,0,0.1,0,0.1c0,0,0,0,0,0c0,0,0,0,0,0
			c-0.1,0-0.1,0.1,0,0.2c0,0,0,0,0,0c0,0,0,0,0,0c0,0,0,0.1,0.1,0.1c0,0,0.1,0,0.1,0c0,0,0,0,0,0c0.1,0,0.2-0.1,0.2-0.2
			c0.1,0,0.1,0,0.2,0c0,0,0,0,0,0c0,0,0-0.1,0-0.1c0,0,0,0,0,0c0,0,0,0,0,0.1c0,0,0.1,0,0.1,0c0,0,0,0,0.1,0c0,0,0,0,0-0.1
			c0,0,0.1,0,0.1,0c0.1,0,0.2-0.1,0.3-0.1c0,0,0.1,0,0.1-0.1C29.1,16.3,29.1,16.3,29.1,16.3z"/>
		<path class="st11" d="M30.2,20.9c0,0,0.9-0.5,1.4,0c0.5,0.6-0.4,1-0.6,1.2c-0.2,0.2-0.4,0.3-0.7,0.3c-0.3,0-0.3,0.1-0.6,0.2
			c-0.3,0.1-0.5,0.2-0.6,0.2c0,0-0.5,0.2-0.5,0.2s-0.5-0.5-0.5-0.6c0,0,0.5-0.4,0.6-0.6c0.1-0.1,0.8-0.3,0.9-0.4
			C29.7,21.2,30.2,20.9,30.2,20.9z"/>
		<circle class="st6" cx="29.2" cy="20.2" r="0.1"/>
	</g>
</g>
</svg>
