<?xml version="1.0" encoding="utf-8"?>
<!-- Generator: Adobe Illustrator 19.2.0, SVG Export Plug-In . SVG Version: 6.00 Build 0)  -->
<svg version="1.1" id="Capa_1" xmlns="http://www.w3.org/2000/svg" xmlns:xlink="http://www.w3.org/1999/xlink" x="0px" y="0px"
	 viewBox="0 0 42.7 25.4" style="enable-background:new 0 0 42.7 25.4;" xml:space="preserve">
<style type="text/css">
	.st0{opacity:5.000000e-02;}
	.st1{fill:#EDEDEF;}
	.st2{fill:#6885A5;}
	.st3{opacity:0.3;}
	.st4{opacity:0.7;fill:#FFFFFF;}
	.st5{opacity:0.4;}
	.st6{fill:#5FA0CE;}
	.st7{opacity:0.2;}
	.st8{fill:#FF8879;}
	.st9{fill:#FFD762;}
	.st10{fill:#FFBD99;}
	.st11{fill:#00D19C;}
	.st12{opacity:0.1;}
	.st13{opacity:0.6;}
	.st14{fill:#315271;}
	.st15{fill-rule:evenodd;clip-rule:evenodd;fill:#315271;}
</style>
<g>
	<g>
		<path class="st0" d="M35.1,17l-9-5.2c-0.2-0.1-0.2-0.4,0-0.5l0.1-0.1c0.2-0.1,0.2-0.4,0-0.5l-4-2.3c-0.2-0.1-0.6-0.1-0.8,0
			l-0.2,0.1c-0.2,0.1-0.6,0.1-0.8,0l0,0c-0.2-0.1-0.6-0.1-0.8,0l-0.6,0.3l-4.8,2.8c-0.2,0.1-0.2,0.4,0,0.5l14.7,8.5
			c0.2,0.1,0.6,0.1,0.8,0l4.8-2.8l0.6-0.3C35.4,17.3,35.4,17.1,35.1,17z"/>
		<path class="st1" d="M13.9,2.5l0,9.1c0,0.3,0.2,0.6,0.4,0.7L29,20.8c0.1,0.1,0.2,0.1,0.3,0l0.7-0.4v0c0.1,0,0.1-0.1,0.1-0.3l0-9.1
			l-0.7,0.4L13.9,2.5z"/>
		<path d="M13.9,2.5l0,9.1c0,0.3,0.2,0.6,0.4,0.7L29,20.8c0.1,0.1,0.2,0.1,0.3,0l0.7-0.4v0c0.1,0,0.1-0.1,0.1-0.3l0-9.1l-0.7,0.4
			L13.9,2.5z"/>
		<path class="st1" d="M13.9,2.5l0,9.1c0,0.3,0.2,0.6,0.4,0.7L29,20.8c0.2,0.1,0.4,0,0.4-0.2l0-9.1L13.9,2.5z"/>
		<path d="M27.9,16.8c0,0.2-0.1,0.2-0.3,0.1l-2.9-1.7c-0.1-0.1-0.3-0.3-0.3-0.4l0-4.7c0-0.2,0.1-0.2,0.3-0.1l2.9,1.7
			c0.1,0.1,0.3,0.3,0.3,0.4L27.9,16.8z"/>
		<path d="M18.9,11.4c0,0.2-0.1,0.2-0.3,0.1l-2.9-1.7c-0.1-0.1-0.3-0.3-0.3-0.4l0-4.7c0-0.2,0.1-0.2,0.3-0.1l2.9,1.7
			c0.1,0.1,0.3,0.3,0.3,0.4V11.4z"/>
		<path class="st2" d="M14,1.6C14,1.6,14,1.6,14,1.6L14,1.6L14,1.6c-0.1,0.1-0.1,0.1-0.1,0.3v0.7l15.5,8.9l0.7-0.4l0-0.7
			c0-0.3-0.2-0.6-0.4-0.7L15,1.3c-0.1-0.1-0.2-0.1-0.3,0L14,1.6z"/>
		<path class="st3" d="M14,1.6C14,1.6,14,1.6,14,1.6L14,1.6L14,1.6c-0.1,0.1-0.1,0.1-0.1,0.3v0.7l15.5,8.9l0.7-0.4l0-0.7
			c0-0.3-0.2-0.6-0.4-0.7L15,1.3c-0.1-0.1-0.2-0.1-0.3,0L14,1.6z"/>
		<path class="st2" d="M29.4,11.5l0-0.7c0-0.3-0.2-0.6-0.4-0.7L14.3,1.6c-0.2-0.1-0.4,0-0.4,0.2v0.7L29.4,11.5z"/>
		<path class="st4" d="M22.4,6.9c0,0.2-0.1,0.2-0.2,0.1l-7.4-4.3c-0.1-0.1-0.2-0.3-0.2-0.4l0,0c0-0.2,0.1-0.2,0.2-0.1l7.4,4.3
			C22.3,6.5,22.4,6.7,22.4,6.9L22.4,6.9z M27.8,9.9C27.7,9.9,27.7,9.9,27.8,9.9c-0.1,0.1,0,0.2,0,0.2c0,0,0.1,0,0.1,0
			C27.9,10,27.8,9.9,27.8,9.9z M28.3,10.3C28.3,10.3,28.3,10.4,28.3,10.3c-0.1,0-0.2,0-0.2-0.1c0-0.1,0-0.1,0.1,0
			C28.3,10.2,28.3,10.2,28.3,10.3z M28.8,10.6C28.8,10.6,28.7,10.6,28.8,10.6c-0.1,0-0.2,0-0.2-0.1c0-0.1,0-0.1,0.1,0
			C28.7,10.4,28.8,10.5,28.8,10.6z"/>
		<g>
			<path d="M18.3,6.5l-2.9-1.7c-0.1-0.1-0.3,0-0.3,0.1v4.7c0,0.2,0.1,0.4,0.3,0.4l2.9,1.7c0.1,0.1,0.3,0,0.3-0.1V6.9
				C18.5,6.8,18.4,6.6,18.3,6.5z M16.9,6.2l0.3,0.2c0,0,0.1,0.1,0.1,0.1c0,0,0,0.1-0.1,0l-0.3-0.2C16.8,6.4,16.8,6.3,16.9,6.2
				C16.8,6.2,16.8,6.2,16.9,6.2z M16.9,6.5l0.7,0.4c0,0,0.1,0.1,0.1,0.1c0,0,0,0.1-0.1,0l-0.7-0.4C16.8,6.6,16.8,6.6,16.9,6.5
				C16.8,6.5,16.8,6.5,16.9,6.5z M16.9,7.4l0.7,0.4c0,0,0.1,0.1,0.1,0.1c0,0,0,0.1-0.1,0l-0.7-0.4C16.8,7.5,16.8,7.4,16.9,7.4
				C16.8,7.3,16.8,7.3,16.9,7.4z M16.8,7.1C16.8,7.1,16.8,7.1,16.8,7.1l0.3,0.1c0,0,0.1,0.1,0.1,0.1c0,0,0,0.1-0.1,0l-0.3-0.2
				C16.8,7.2,16.8,7.1,16.8,7.1z M15.6,5.6C15.6,5.6,15.7,5.5,15.6,5.6L16.5,6c0,0,0.1,0.1,0.1,0.1l0,1.1c0,0,0,0.1-0.1,0l-0.8-0.5
				c0,0-0.1-0.1-0.1-0.1V5.6z M15.7,7.7l1.9,1.1c0,0,0.1,0.1,0.1,0.1c0,0,0,0.1-0.1,0l-1.9-1.1C15.7,7.8,15.6,7.7,15.7,7.7
				C15.6,7.7,15.7,7.6,15.7,7.7z M15.6,7.4C15.6,7.4,15.7,7.4,15.6,7.4l1.5,0.8c0,0,0.1,0.1,0.1,0.1c0,0,0,0.1-0.1,0l-1.4-0.8
				C15.7,7.5,15.6,7.5,15.6,7.4z M15.7,8.6l1.9,1.1c0,0,0.1,0.1,0.1,0.1c0,0,0,0.1-0.1,0l-1.9-1.1C15.7,8.8,15.6,8.7,15.7,8.6
				C15.6,8.6,15.7,8.6,15.7,8.6z M15.6,8.4C15.6,8.4,15.7,8.3,15.6,8.4l1.5,0.8c0,0,0.1,0.1,0.1,0.1c0,0,0,0.1-0.1,0l-1.4-0.8
				C15.7,8.5,15.6,8.4,15.6,8.4z M17.6,10.8l-1.9-1.1c0,0-0.1-0.1-0.1-0.1c0,0,0-0.1,0.1,0l1.9,1.1C17.6,10.7,17.6,10.8,17.6,10.8
				C17.6,10.8,17.6,10.9,17.6,10.8z M15.6,9.4C15.6,9.3,15.7,9.3,15.6,9.4l1.5,0.8c0,0,0.1,0.1,0.1,0.1c0,0,0,0.1-0.1,0l-1.4-0.8
				C15.7,9.5,15.6,9.4,15.6,9.4z M18,10.5l-2.3-1.3c0,0-0.1-0.1-0.1-0.1c0,0,0-0.1,0.1,0l2.3,1.3C18,10.4,18,10.4,18,10.5
				C18,10.5,18,10.5,18,10.5z M18,9.5l-2.3-1.3c0,0-0.1-0.1-0.1-0.1c0,0,0-0.1,0.1,0L18,9.4C18,9.4,18,9.5,18,9.5
				C18,9.5,18,9.6,18,9.5z M18,8.6l-2.3-1.3c0,0-0.1-0.1-0.1-0.1c0,0,0-0.1,0.1,0L18,8.4C18,8.4,18,8.5,18,8.6C18,8.6,18,8.6,18,8.6
				z M18,7.6l-1.1-0.7c0,0-0.1-0.1-0.1-0.1c0,0,0-0.1,0.1,0L18,7.4C18,7.5,18,7.5,18,7.6C18,7.6,18,7.6,18,7.6z M27.9,12.1l-2-1.2
				c-0.1-0.1-0.3,0-0.3,0.1l0,4.7c0,0.2,0.1,0.4,0.3,0.4l2,1.2c0.1,0.1,0.3,0,0.3-0.1l0-4.7C28.2,12.3,28.1,12.1,27.9,12.1z
				 M26.2,11.6l0.6,0.4c0,0,0.1,0.1,0.1,0.1c0,0,0,0.1-0.1,0l-0.6-0.4C26.1,11.7,26.1,11.7,26.2,11.6C26.1,11.6,26.1,11.6,26.2,11.6
				z M26.2,11.9l1,0.6c0,0,0.1,0.1,0.1,0.1c0,0,0,0.1-0.1,0l-1-0.6C26.1,12,26.1,12,26.2,11.9C26.1,11.9,26.1,11.9,26.2,11.9z
				 M26.2,12.7l1,0.6c0,0,0.1,0.1,0.1,0.1c0,0,0,0.1-0.1,0l-1-0.6C26.1,12.8,26.1,12.8,26.2,12.7C26.1,12.7,26.1,12.7,26.2,12.7z
				 M26.1,12.5C26.1,12.4,26.1,12.4,26.1,12.5l0.7,0.3c0,0,0.1,0.1,0.1,0.1c0,0,0,0.1-0.1,0l-0.6-0.4C26.1,12.6,26.1,12.5,26.1,12.5
				z M26.2,13.7l1,0.6c0,0,0.1,0.1,0.1,0.1c0,0,0,0.1-0.1,0l-1-0.6C26.1,13.8,26.1,13.8,26.2,13.7C26.1,13.7,26.1,13.7,26.2,13.7z
				 M26.1,13.5C26.1,13.4,26.1,13.4,26.1,13.5l0.7,0.3c0,0,0.1,0.1,0.1,0.1c0,0,0,0.1-0.1,0l-0.6-0.4C26.1,13.5,26.1,13.5,26.1,13.5
				z M26.2,14.7l1,0.6c0,0,0.1,0.1,0.1,0.1c0,0,0,0.1-0.1,0l-1-0.6C26.1,14.8,26.1,14.8,26.2,14.7C26.1,14.7,26.1,14.7,26.2,14.7z
				 M26.1,14.4C26.1,14.4,26.1,14.4,26.1,14.4l0.7,0.3c0,0,0.1,0.1,0.1,0.1c0,0,0,0.1-0.1,0l-0.6-0.4C26.1,14.5,26.1,14.5,26.1,14.4
				z M27.2,16.4l-1-0.6c0,0-0.1-0.1-0.1-0.1c0,0,0-0.1,0.1,0l1,0.6C27.2,16.3,27.3,16.3,27.2,16.4C27.3,16.4,27.2,16.4,27.2,16.4z
				 M26.1,15.4C26.1,15.4,26.1,15.4,26.1,15.4l0.7,0.3c0,0,0.1,0.1,0.1,0.1c0,0,0,0.1-0.1,0l-0.6-0.4C26.1,15.5,26.1,15.5,26.1,15.4
				z M27.6,16.1l-1.4-0.8c0,0-0.1-0.1-0.1-0.1c0,0,0-0.1,0.1,0l1.4,0.8C27.6,16,27.7,16,27.6,16.1C27.7,16.1,27.6,16.1,27.6,16.1z
				 M27.6,15.1l-1.4-0.8c0,0-0.1-0.1-0.1-0.1c0,0,0-0.1,0.1,0l1.4,0.8C27.6,15,27.7,15,27.6,15.1C27.7,15.1,27.6,15.1,27.6,15.1z
				 M27.6,14.1l-1.4-0.8c0,0-0.1-0.1-0.1-0.1c0,0,0-0.1,0.1,0l1.4,0.8C27.6,14,27.7,14,27.6,14.1C27.7,14.1,27.6,14.1,27.6,14.1z
				 M27.6,13.1l-1.4-0.8c0,0-0.1-0.1-0.1-0.1c0,0,0-0.1,0.1,0l1.4,0.8C27.6,13,27.7,13.1,27.6,13.1C27.7,13.1,27.6,13.2,27.6,13.1z
				 M22.2,10.1c-0.1-0.2-0.1-0.4-0.1-0.5c0-0.4,0.3-0.6,0.6-0.4c0.3,0.2,0.6,0.7,0.6,1.1c0,0.2-0.1,0.3-0.1,0.4
				c-0.1-0.2-0.2-0.4-0.4-0.6c0.1,0,0.1-0.1,0.1-0.2c0-0.2-0.1-0.3-0.2-0.4c-0.1-0.1-0.2,0-0.2,0.1c0,0.1,0,0.2,0.1,0.3
				C22.4,9.9,22.3,10,22.2,10.1z M22.2,12c-0.1-0.2-0.1-0.4-0.1-0.5c0-0.4,0.3-0.6,0.6-0.4c0.3,0.2,0.6,0.7,0.6,1.1
				c0,0.2-0.1,0.3-0.1,0.4c-0.1-0.2-0.2-0.4-0.4-0.6c0.1,0,0.1-0.1,0.1-0.2c0-0.2-0.1-0.3-0.2-0.4c-0.1-0.1-0.2,0-0.2,0.1
				c0,0.1,0,0.2,0.1,0.3C22.4,11.8,22.3,11.8,22.2,12z M22.2,13.8c-0.1-0.2-0.1-0.4-0.1-0.5c0-0.4,0.3-0.6,0.6-0.4
				c0.3,0.2,0.6,0.7,0.6,1.1c0,0.2,0,0.3-0.1,0.4c-0.1-0.2-0.2-0.4-0.4-0.6c0.1,0,0.1-0.1,0.1-0.2c0-0.2-0.1-0.3-0.2-0.4
				c-0.1-0.1-0.2,0-0.2,0.1c0,0.1,0,0.2,0.1,0.3C22.4,13.6,22.3,13.7,22.2,13.8z"/>
			<path class="st4" d="M17.6,7C17.6,7.1,17.6,7.1,17.6,7l-0.8-0.4c0,0-0.1-0.1-0.1-0.1l0,0c0,0,0-0.1,0.1,0l0.7,0.4
				C17.6,6.9,17.6,7,17.6,7L17.6,7z M17.2,6.5c0,0,0-0.1-0.1-0.1l-0.3-0.2c0,0-0.1,0-0.1,0l0,0c0,0,0,0.1,0.1,0.1L17.2,6.5
				C17.2,6.6,17.2,6.5,17.2,6.5L17.2,6.5z M18,7.5C18,7.6,18,7.6,18,7.5l-1.2-0.6c0,0-0.1-0.1-0.1-0.1l0,0c0,0,0-0.1,0.1,0L18,7.4
				C18,7.5,18,7.5,18,7.5L18,7.5z M17.6,7.9C17.6,7.9,17.6,7.9,17.6,7.9l-0.8-0.4c0,0-0.1-0.1-0.1-0.1l0,0c0,0,0-0.1,0.1,0l0.7,0.4
				C17.6,7.8,17.6,7.8,17.6,7.9L17.6,7.9z M17.2,7.3c0,0,0-0.1-0.1-0.1l-0.3-0.2c0,0-0.1,0-0.1,0l0,0c0,0,0,0.1,0.1,0.1L17.2,7.3
				C17.2,7.4,17.2,7.4,17.2,7.3L17.2,7.3z M18,10.5C18,10.5,18,10.5,18,10.5l-2.4-1.3c0,0-0.1-0.1-0.1-0.1l0,0c0,0,0-0.1,0.1,0
				l2.3,1.3C18,10.4,18,10.4,18,10.5L18,10.5z M17.6,10.8C17.6,10.8,17.6,10.9,17.6,10.8l-1.9-1c0,0-0.1-0.1-0.1-0.1l0,0
				c0,0,0-0.1,0.1,0l1.9,1.1C17.6,10.7,17.6,10.8,17.6,10.8L17.6,10.8z M17.2,10.3c0,0,0-0.1-0.1-0.1l-1.4-0.8c0,0-0.1,0-0.1,0l0,0
				c0,0,0,0.1,0.1,0.1L17.2,10.3C17.2,10.3,17.2,10.3,17.2,10.3L17.2,10.3z M18,8.5C18,8.6,18,8.6,18,8.5l-2.4-1.3
				c0,0-0.1-0.1-0.1-0.1l0,0c0,0,0-0.1,0.1,0L18,8.4C18,8.4,18,8.5,18,8.5L18,8.5z M17.6,8.8C17.6,8.9,17.6,8.9,17.6,8.8l-1.9-1
				c0,0-0.1-0.1-0.1-0.1l0,0c0,0,0-0.1,0.1,0l1.9,1.1C17.6,8.8,17.6,8.8,17.6,8.8L17.6,8.8z M17.2,8.3c0,0,0-0.1-0.1-0.1l-1.4-0.8
				c0,0-0.1,0-0.1,0l0,0c0,0,0,0.1,0.1,0.1L17.2,8.3C17.2,8.4,17.2,8.4,17.2,8.3L17.2,8.3z M18,9.5C18,9.5,18,9.6,18,9.5l-2.4-1.3
				c0,0-0.1-0.1-0.1-0.1l0,0c0,0,0-0.1,0.1,0L18,9.4C18,9.4,18,9.5,18,9.5L18,9.5z M17.6,9.8C17.6,9.9,17.6,9.9,17.6,9.8l-1.9-1
				c0,0-0.1-0.1-0.1-0.1l0,0c0,0,0-0.1,0.1,0l1.9,1.1C17.6,9.7,17.6,9.8,17.6,9.8L17.6,9.8z M17.2,9.3c0,0,0-0.1-0.1-0.1l-1.4-0.8
				c0,0-0.1,0-0.1,0l0,0c0,0,0,0.1,0.1,0.1L17.2,9.3C17.2,9.4,17.2,9.3,17.2,9.3L17.2,9.3z M16.5,6l-0.8-0.5c0,0-0.1,0-0.1,0v1.1
				l0,0c0,0,0,0.1,0.1,0.1l0.8,0.5c0,0,0.1,0,0.1,0l0,0l0-1.1C16.6,6.1,16.5,6,16.5,6z M27.3,12.6C27.3,12.6,27.2,12.6,27.3,12.6
				L26.2,12c0,0-0.1-0.1-0.1-0.1l0,0c0,0,0-0.1,0.1,0l1,0.6C27.2,12.5,27.3,12.5,27.3,12.6L27.3,12.6z M26.8,12.1c0,0,0-0.1-0.1-0.1
				l-0.6-0.4c0,0-0.1,0-0.1,0l0,0c0,0,0,0.1,0.1,0.1L26.8,12.1C26.8,12.1,26.8,12.1,26.8,12.1L26.8,12.1z M27.7,13.1
				C27.7,13.1,27.6,13.2,27.7,13.1l-1.5-0.8c0,0-0.1-0.1-0.1-0.1l0,0c0,0,0-0.1,0.1,0l1.4,0.8C27.6,13,27.7,13.1,27.7,13.1
				L27.7,13.1z M27.3,13.4C27.3,13.5,27.2,13.5,27.3,13.4l-1.1-0.6c0,0-0.1-0.1-0.1-0.1l0,0c0,0,0-0.1,0.1,0l1,0.6
				C27.2,13.3,27.3,13.4,27.3,13.4L27.3,13.4z M26.8,12.9c0,0,0-0.1-0.1-0.1l-0.6-0.4c0,0-0.1,0-0.1,0l0,0c0,0,0,0.1,0.1,0.1
				L26.8,12.9C26.8,13,26.8,12.9,26.8,12.9L26.8,12.9z M27.7,16C27.7,16.1,27.6,16.1,27.7,16l-1.5-0.8c0,0-0.1-0.1-0.1-0.1l0,0
				c0,0,0-0.1,0.1,0l1.4,0.8C27.6,16,27.7,16,27.7,16L27.7,16z M27.3,16.4C27.3,16.4,27.2,16.4,27.3,16.4l-1.1-0.6
				c0,0-0.1-0.1-0.1-0.1l0,0c0,0,0-0.1,0.1,0l1,0.6C27.2,16.3,27.3,16.3,27.3,16.4L27.3,16.4z M26.8,15.8c0,0,0-0.1-0.1-0.1
				l-0.6-0.3c0,0-0.1,0-0.1,0l0,0c0,0,0,0.1,0.1,0.1L26.8,15.8C26.8,15.9,26.8,15.9,26.8,15.8L26.8,15.8z M27.7,14.1
				C27.7,14.1,27.6,14.1,27.7,14.1l-1.5-0.8c0,0-0.1-0.1-0.1-0.1l0,0c0,0,0-0.1,0.1,0l1.4,0.8C27.6,14,27.7,14,27.7,14.1L27.7,14.1z
				 M27.3,14.4C27.3,14.4,27.2,14.5,27.3,14.4l-1.1-0.6c0,0-0.1-0.1-0.1-0.1l0,0c0,0,0-0.1,0.1,0l1,0.6
				C27.2,14.3,27.3,14.4,27.3,14.4L27.3,14.4z M26.8,13.9c0,0,0-0.1-0.1-0.1l-0.6-0.4c0,0-0.1,0-0.1,0l0,0c0,0,0,0.1,0.1,0.1
				L26.8,13.9C26.8,13.9,26.8,13.9,26.8,13.9L26.8,13.9z M27.7,15.1C27.7,15.1,27.6,15.1,27.7,15.1l-1.5-0.8c0,0-0.1-0.1-0.1-0.1
				l0,0c0,0,0-0.1,0.1,0l1.4,0.8C27.6,15,27.7,15,27.7,15.1L27.7,15.1z M27.3,15.4C27.3,15.4,27.2,15.4,27.3,15.4l-1.1-0.6
				c0,0-0.1-0.1-0.1-0.1l0,0c0,0,0-0.1,0.1,0l1,0.6C27.2,15.3,27.3,15.3,27.3,15.4L27.3,15.4z M26.8,14.9c0,0,0-0.1-0.1-0.1
				l-0.6-0.4c0,0-0.1,0-0.1,0l0,0c0,0,0,0.1,0.1,0.1L26.8,14.9C26.8,14.9,26.8,14.9,26.8,14.9L26.8,14.9z M21,9C21,9,21,9,21,9
				l-0.8-0.4c0,0-0.1-0.1-0.1-0.1l0,0c0,0,0-0.1,0.1,0L21,8.9C21,8.9,21,8.9,21,9L21,9z M20.6,8.5c0,0,0-0.1-0.1-0.1l-0.3-0.2
				c0,0-0.1,0-0.1,0l0,0c0,0,0,0.1,0.1,0.1L20.6,8.5C20.6,8.5,20.6,8.5,20.6,8.5L20.6,8.5z M21.4,9.5C21.4,9.5,21.4,9.6,21.4,9.5
				l-1.2-0.6c0,0-0.1-0.1-0.1-0.1l0,0c0,0,0-0.1,0.1,0l1.1,0.7C21.4,9.4,21.4,9.5,21.4,9.5L21.4,9.5z M21,9.8C21,9.9,21,9.9,21,9.8
				l-0.8-0.4c0,0-0.1-0.1-0.1-0.1l0,0c0,0,0-0.1,0.1,0L21,9.7C21,9.7,21,9.8,21,9.8L21,9.8z M20.6,9.3c0,0,0-0.1-0.1-0.1L20.3,9
				c0,0-0.1,0-0.1,0l0,0c0,0,0,0.1,0.1,0.1L20.6,9.3C20.6,9.4,20.6,9.3,20.6,9.3L20.6,9.3z M21.4,12.4
				C21.4,12.5,21.4,12.5,21.4,12.4l-2.4-1.3c0,0-0.1-0.1-0.1-0.1l0,0c0,0,0-0.1,0.1,0l2.3,1.3C21.4,12.4,21.4,12.4,21.4,12.4
				L21.4,12.4z M21,12.8C21,12.8,21,12.8,21,12.8l-1.9-1c0,0-0.1-0.1-0.1-0.1l0,0c0,0,0-0.1,0.1,0l1.9,1.1C21,12.7,21,12.7,21,12.8
				L21,12.8z M20.6,12.2c0,0,0-0.1-0.1-0.1l-1.4-0.8c0,0-0.1,0-0.1,0l0,0c0,0,0,0.1,0.1,0.1L20.6,12.2
				C20.6,12.3,20.6,12.3,20.6,12.2L20.6,12.2z M21.4,10.5C21.4,10.5,21.4,10.5,21.4,10.5l-2.4-1.3c0,0-0.1-0.1-0.1-0.1l0,0
				c0,0,0-0.1,0.1,0l2.3,1.3C21.4,10.4,21.4,10.5,21.4,10.5L21.4,10.5z M21,10.8C21,10.8,21,10.9,21,10.8l-1.9-1
				c0,0-0.1-0.1-0.1-0.1l0,0c0,0,0-0.1,0.1,0l1.9,1.1C21,10.7,21,10.8,21,10.8L21,10.8z M20.6,10.3c0,0,0-0.1-0.1-0.1l-1.4-0.8
				c0,0-0.1,0-0.1,0l0,0c0,0,0,0.1,0.1,0.1L20.6,10.3C20.6,10.3,20.6,10.3,20.6,10.3L20.6,10.3z M21.4,11.5
				C21.4,11.5,21.4,11.5,21.4,11.5l-2.4-1.3c0,0-0.1-0.1-0.1-0.1l0,0c0,0,0-0.1,0.1,0l2.3,1.3C21.4,11.4,21.4,11.4,21.4,11.5
				L21.4,11.5z M21,11.8C21,11.8,21,11.8,21,11.8l-1.9-1c0,0-0.1-0.1-0.1-0.1l0,0c0,0,0-0.1,0.1,0l1.9,1.1C21,11.7,21,11.7,21,11.8
				L21,11.8z M20.6,11.3c0,0,0-0.1-0.1-0.1l-1.4-0.8c0,0-0.1,0-0.1,0l0,0c0,0,0,0.1,0.1,0.1L20.6,11.3
				C20.6,11.3,20.6,11.3,20.6,11.3L20.6,11.3z M19.9,8l-0.8-0.5c0,0-0.1,0-0.1,0l0,1.1l0,0c0,0,0,0.1,0.1,0.1l0.8,0.5
				c0,0,0.1,0,0.1,0l0,0l0-1.1C20,8.1,19.9,8,19.9,8z M22.7,10.7c0.2,0.1,0.4,0.1,0.5,0c-0.1-0.2-0.2-0.4-0.4-0.6
				c0.1,0,0.1-0.1,0.1-0.2c0-0.2-0.1-0.3-0.2-0.4c-0.1-0.1-0.2,0-0.2,0.1c0,0.1,0,0.2,0.1,0.3c-0.2,0-0.3,0-0.4,0.2
				C22.4,10.4,22.5,10.6,22.7,10.7z M24.7,10.8C24.7,10.9,24.7,10.9,24.7,10.8l-0.8-0.4c0,0-0.1-0.1-0.1-0.1l0,0c0,0,0-0.1,0.1,0
				l0.7,0.4C24.7,10.8,24.7,10.8,24.7,10.8L24.7,10.8z M24.3,10.3c0,0,0-0.1-0.1-0.1L23.9,10c0,0-0.1,0-0.1,0l0,0c0,0,0,0.1,0.1,0.1
				L24.3,10.3C24.3,10.4,24.3,10.4,24.3,10.3L24.3,10.3z M25.1,11.4C25.1,11.4,25.1,11.4,25.1,11.4l-1.2-0.6c0,0-0.1-0.1-0.1-0.1
				l0,0c0,0,0-0.1,0.1,0l1.1,0.7C25.1,11.3,25.1,11.3,25.1,11.4L25.1,11.4z M24.7,11.7C24.7,11.7,24.7,11.7,24.7,11.7l-0.8-0.4
				c0,0-0.1-0.1-0.1-0.1l0,0c0,0,0-0.1,0.1,0l0.7,0.4C24.7,11.6,24.7,11.6,24.7,11.7L24.7,11.7z M24.3,11.2c0,0,0-0.1-0.1-0.1
				l-0.3-0.2c0,0-0.1,0-0.1,0l0,0c0,0,0,0.1,0.1,0.1L24.3,11.2C24.3,11.2,24.3,11.2,24.3,11.2L24.3,11.2z M22.7,12.6
				c0.2,0.1,0.4,0.1,0.5,0c-0.1-0.2-0.2-0.4-0.4-0.6c0.1,0,0.1-0.1,0.1-0.2c0-0.2-0.1-0.3-0.2-0.4c-0.1-0.1-0.2,0-0.2,0.1
				c0,0.1,0,0.2,0.1,0.3c-0.2,0-0.3,0-0.4,0.2C22.4,12.2,22.5,12.4,22.7,12.6z M24.7,12.7C24.7,12.7,24.7,12.7,24.7,12.7l-0.8-0.4
				c0,0-0.1-0.1-0.1-0.1l0,0c0,0,0-0.1,0.1,0l0.7,0.4C24.7,12.6,24.7,12.6,24.7,12.7L24.7,12.7z M24.3,12.2c0,0,0-0.1-0.1-0.1
				l-0.3-0.2c0,0-0.1,0-0.1,0l0,0c0,0,0,0.1,0.1,0.1L24.3,12.2C24.3,12.2,24.3,12.2,24.3,12.2L24.3,12.2z M25.1,13.2
				C25.1,13.2,25.1,13.3,25.1,13.2l-1.2-0.6c0,0-0.1-0.1-0.1-0.1l0,0c0,0,0-0.1,0.1,0l1.1,0.7C25.1,13.1,25.1,13.2,25.1,13.2
				L25.1,13.2z M24.7,13.5C24.7,13.6,24.7,13.6,24.7,13.5l-0.8-0.4c0,0-0.1-0.1-0.1-0.1l0,0c0,0,0-0.1,0.1,0l0.7,0.4
				C24.7,13.4,24.7,13.5,24.7,13.5L24.7,13.5z M24.3,13c0,0,0-0.1-0.1-0.1l-0.3-0.2c0,0-0.1,0-0.1,0l0,0c0,0,0,0.1,0.1,0.1L24.3,13
				C24.3,13.1,24.3,13,24.3,13L24.3,13z M22.7,14.4c0.2,0.1,0.4,0.1,0.5,0c-0.1-0.2-0.2-0.4-0.4-0.6c0.1,0,0.1-0.1,0.1-0.2
				c0-0.2-0.1-0.3-0.2-0.4c-0.1-0.1-0.2,0-0.2,0.1c0,0.1,0,0.2,0.1,0.3c-0.2,0-0.3,0-0.4,0.2C22.4,14.1,22.5,14.3,22.7,14.4z
				 M24.7,14.5C24.7,14.6,24.7,14.6,24.7,14.5l-0.8-0.4c0,0-0.1-0.1-0.1-0.1l0,0c0,0,0-0.1,0.1,0l0.7,0.4
				C24.7,14.4,24.7,14.5,24.7,14.5L24.7,14.5z M24.3,14c0,0,0-0.1-0.1-0.1l-0.3-0.2c0,0-0.1,0-0.1,0l0,0c0,0,0,0.1,0.1,0.1L24.3,14
				C24.3,14.1,24.3,14,24.3,14L24.3,14z M25.1,15.1C25.1,15.1,25.1,15.1,25.1,15.1l-1.2-0.6c0,0-0.1-0.1-0.1-0.1l0,0
				c0,0,0-0.1,0.1,0l1.1,0.7C25.1,15,25.1,15,25.1,15.1L25.1,15.1z M24.7,15.4C24.7,15.4,24.7,15.4,24.7,15.4L23.9,15
				c0,0-0.1-0.1-0.1-0.1l0,0c0,0,0-0.1,0.1,0l0.7,0.4C24.7,15.3,24.7,15.3,24.7,15.4L24.7,15.4z M24.3,14.8c0,0,0-0.1-0.1-0.1
				l-0.3-0.2c0,0-0.1,0-0.1,0l0,0c0,0,0,0.1,0.1,0.1L24.3,14.8C24.3,14.9,24.3,14.9,24.3,14.8L24.3,14.8z M18,12.4
				C18,12.5,18,12.5,18,12.4l-2.4-1.3c0,0-0.1-0.1-0.1-0.1l0,0c0,0,0-0.1,0.1,0l2.3,1.3C18,12.4,18,12.4,18,12.4L18,12.4z
				 M17.6,12.8C17.6,12.8,17.6,12.8,17.6,12.8l-1.9-1c0,0-0.1-0.1-0.1-0.1l0,0c0,0,0-0.1,0.1,0l1.9,1.1
				C17.6,12.7,17.6,12.7,17.6,12.8L17.6,12.8z M17.2,12.2c0,0,0-0.1-0.1-0.1l-1.4-0.8c0,0-0.1,0-0.1,0l0,0c0,0,0,0.1,0.1,0.1
				L17.2,12.2C17.2,12.3,17.2,12.3,17.2,12.2L17.2,12.2z M21.4,14.4C21.4,14.4,21.4,14.5,21.4,14.4l-2.4-1.3c0,0-0.1-0.1-0.1-0.1
				l0,0c0,0,0-0.1,0.1,0l2.3,1.3C21.4,14.3,21.4,14.4,21.4,14.4L21.4,14.4z M21,14.7C21,14.8,21,14.8,21,14.7l-1.9-1
				c0,0-0.1-0.1-0.1-0.1l0,0c0,0,0-0.1,0.1,0l1.9,1.1C21,14.6,21,14.7,21,14.7L21,14.7z M20.6,14.2c0,0,0-0.1-0.1-0.1l-1.4-0.8
				c0,0-0.1,0-0.1,0l0,0c0,0,0,0.1,0.1,0.1L20.6,14.2C20.6,14.3,20.6,14.2,20.6,14.2L20.6,14.2z M24.8,16.4
				C24.8,16.4,24.8,16.4,24.8,16.4l-2.4-1.3c0,0-0.1-0.1-0.1-0.1l0,0c0,0,0-0.1,0.1,0l2.3,1.3C24.8,16.3,24.8,16.3,24.8,16.4
				L24.8,16.4z M24.4,16.7C24.4,16.7,24.4,16.7,24.4,16.7l-1.9-1c0,0-0.1-0.1-0.1-0.1l0,0c0,0,0-0.1,0.1,0l1.9,1.1
				C24.4,16.6,24.4,16.6,24.4,16.7L24.4,16.7z M24,16.2c0,0,0-0.1-0.1-0.1l-1.4-0.8c0,0-0.1,0-0.1,0l0,0c0,0,0,0.1,0.1,0.1L24,16.2
				C24,16.2,24,16.2,24,16.2L24,16.2z M28.2,18.3C28.2,18.3,28.1,18.3,28.2,18.3L25.9,17c0,0-0.1-0.1-0.1-0.1l0,0c0,0,0-0.1,0.1,0
				l2.2,1.3C28.1,18.2,28.2,18.3,28.2,18.3L28.2,18.3z M27.7,18.6C27.7,18.6,27.7,18.7,27.7,18.6l-1.9-1c0,0-0.1-0.1-0.1-0.1l0,0
				c0,0,0-0.1,0.1,0l1.8,1C27.7,18.5,27.7,18.6,27.7,18.6L27.7,18.6z M27.3,18.1c0,0,0-0.1-0.1-0.1l-1.4-0.8c0,0-0.1,0-0.1,0l0,0
				c0,0,0,0.1,0.1,0.1L27.3,18.1C27.3,18.1,27.3,18.1,27.3,18.1L27.3,18.1z"/>
		</g>
		<path class="st1" d="M20,3.5L20,3.5c-0.1,0-0.1,0.1-0.1,0.3l0,0.2c0,0,0,0.1,0,0.1c0,0-0.1,0-0.1,0l0.1,0c0,0.2-0.2,0.3-0.4,0.2
			l0.4,0.2l4.8,2.8l0.4,0.2l0.3-0.2C25.2,7.2,25,6.8,25,6.6V6.4c0-0.3-0.2-0.6-0.4-0.7l-4-2.3c-0.1-0.1-0.2-0.1-0.3,0L20,3.5z"/>
		<path class="st5" d="M20,3.5L20,3.5c-0.1,0-0.1,0.1-0.1,0.3l0,0.2c0,0,0,0.1,0,0.1c0,0-0.1,0-0.1,0l0.1,0c0,0.2-0.2,0.3-0.4,0.2
			l0.4,0.2l4.8,2.8l0.4,0.2l0.3-0.2C25.2,7.2,25,6.8,25,6.6V6.4c0-0.3-0.2-0.6-0.4-0.7l-4-2.3c-0.1-0.1-0.2-0.1-0.3,0L20,3.5z"/>
		<path class="st1" d="M24.7,6.8V6.6c0-0.3-0.2-0.6-0.4-0.7l-4-2.3c-0.2-0.1-0.4,0-0.4,0.2l0,0.2c0,0.3-0.2,0.4-0.4,0.2l0.4,0.2
			l4.8,2.8l0.4,0.2C24.9,7.3,24.7,7,24.7,6.8z"/>
		<path class="st4" d="M23,5.5C23,5.6,22.9,5.6,23,5.5l-2.5-1.4c0,0-0.1-0.1-0.1-0.1l0,0c0,0,0-0.1,0.1,0l2.5,1.4
			C22.9,5.4,23,5.5,23,5.5L23,5.5z M22.1,5.3c0,0,0-0.1-0.1-0.1l-1.6-0.9c0,0-0.1,0-0.1,0l0,0c0,0,0,0.1,0.1,0.1L22.1,5.3
			C22.1,5.4,22.1,5.4,22.1,5.3L22.1,5.3z M24.1,6.3L24.1,6.3c0.1-0.1,0.1-0.1,0.1-0.1c0,0-0.1-0.1-0.1,0l-0.1,0L23.9,6
			c0,0-0.1-0.1-0.1,0c0,0,0,0.1,0,0.1l0.1,0.1l-0.1,0c0,0,0,0.1,0,0.1c0,0,0.1,0.1,0.1,0L24.1,6.3l0,0.2c0,0,0.1,0.1,0.1,0
			c0,0,0-0.1,0-0.1L24.1,6.3z"/>
		<path class="st2" d="M19.9,4l0-0.2c0-0.3-0.2-0.6-0.4-0.7l-4-2.3c-0.1-0.1-0.2-0.1-0.3,0L14.9,1c0.1,0,0.2,0,0.3,0l4,2.3
			c0.2,0.1,0.4,0.5,0.4,0.7v0.2c0,0.3,0.2,0.6,0.4,0.7l0.3-0.2C20.1,4.6,19.9,4.2,19.9,4z"/>
		<path class="st3" d="M19.9,4l0-0.2c0-0.3-0.2-0.6-0.4-0.7l-4-2.3c-0.1-0.1-0.2-0.1-0.3,0L14.9,1c0.1,0,0.2,0,0.3,0l4,2.3
			c0.2,0.1,0.4,0.5,0.4,0.7v0.2c0,0.3,0.2,0.6,0.4,0.7l0.3-0.2C20.1,4.6,19.9,4.2,19.9,4z"/>
		<path class="st2" d="M19.5,4.2V4c0-0.3-0.2-0.6-0.4-0.7l-4-2.3c-0.2-0.1-0.4,0-0.4,0.2l0,0.2c0,0.3-0.2,0.4-0.4,0.2l0.4,0.2
			l4.8,2.8L20,4.9C19.7,4.8,19.5,4.4,19.5,4.2z"/>
		<path class="st4" d="M17.8,3C17.8,3,17.8,3,17.8,3l-2.5-1.4c0,0-0.1-0.1-0.1-0.1l0,0c0,0,0-0.1,0.1,0l2.5,1.4
			C17.8,2.9,17.8,2.9,17.8,3L17.8,3z M17,2.7c0,0,0-0.1-0.1-0.1l-1.6-0.9c0,0-0.1,0-0.1,0l0,0c0,0,0,0.1,0.1,0.1L17,2.7
			C17,2.8,17,2.8,17,2.7L17,2.7z M19,3.7L19,3.7c0.1-0.1,0.1-0.1,0.1-0.1c0,0-0.1-0.1-0.1,0l-0.1,0l-0.1-0.1c0,0-0.1-0.1-0.1,0
			c0,0,0,0.1,0,0.1l0.1,0.1l-0.1,0c0,0,0,0.1,0,0.1c0,0,0.1,0.1,0.1,0L19,3.7l0,0.2C19,4,19,4,19,4c0,0,0-0.1,0-0.1L19,3.7z"/>
	</g>
	<g>
		<path class="st0" d="M28.8,21.3l-5.9,0.1l0.9,0.5l1,0l1.3,0.8L25.5,23l0.8,0.5l3.3-1.7L28.8,21.3z M25.9,21.9l2.1-0.1l-1.2,0.6
			L25.9,21.9z"/>
		<polygon class="st6" points="23.5,19.1 22.2,21.8 23,22.3 23.5,22 24.5,22.6 24.8,23.3 25.6,23.8 26.3,23.4 25,19.1 24.2,18.6 		
			"/>
		<path class="st7" d="M23.5,21.3l0.4-1l0.4,1.5L23.5,21.3z M24.3,19.5l1.3,4.3l0.7-0.4L25,19.1l-0.8-0.5l-0.7,0.4L24.3,19.5z
			 M23,22.3l0.5-0.3l1,0.6l-1.3-0.8L23,22.3z"/>
	</g>
	<g>
		<polygon class="st0" points="8.1,16 11.4,15.8 11.9,15.6 9.4,14.1 8.8,14.5 10.3,15.3 8.9,15.4 8.9,15.4 7,15.5 6.5,15.8 
			9.1,17.2 9.7,16.9 9.5,16.8 		"/>
		<polygon class="st8" points="11.4,15 8.9,13.6 8.2,13.9 8.2,14.8 8.3,14.9 6.4,14.9 5.9,15.2 5.9,16.1 8.5,17.6 9.1,17.2 
			9.1,16.4 8.9,16.3 10.9,16.2 11.4,15.9 		"/>
		<path class="st7" d="M8.3,14.9L8.3,14.9l-0.1-0.9l1.5,0.9L8.3,14.9z M5.9,15.2v0.9l2.6,1.5l0.6-0.4v-0.9l-0.6,0.4L5.9,15.2z
			 M10.9,15.3l-3.3,0.2l1.4,0.8l1.9-0.1l0.5-0.3V15L10.9,15.3z"/>
	</g>
	<g>
		<path class="st9" d="M23.8,10.5l2.9,1.7c0.1,0.1,0.3,0.3,0.3,0.4l0,4.7c0,0.1,0,0.1-0.1,0.2l0.1,0v0l0,0v0c0,0,0.1-0.1,0.1-0.2
			v-4.7c0-0.2-0.1-0.4-0.3-0.4L23.8,10.5C23.8,10.4,23.7,10.4,23.8,10.5L23.8,10.5l-0.2,0l0,0C23.6,10.5,23.7,10.5,23.8,10.5z"/>
		<path class="st5" d="M23.8,10.5l2.9,1.7c0.1,0.1,0.3,0.3,0.3,0.4l0,4.7c0,0.1,0,0.1-0.1,0.2l0.1,0v0l0,0v0c0,0,0.1-0.1,0.1-0.2
			v-4.7c0-0.2-0.1-0.4-0.3-0.4L23.8,10.5C23.8,10.4,23.7,10.4,23.8,10.5L23.8,10.5l-0.2,0l0,0C23.6,10.5,23.7,10.5,23.8,10.5z"/>
		<path class="st9" d="M26.9,17.4c0,0.2-0.1,0.2-0.3,0.1l-2.9-1.7c-0.1-0.1-0.3-0.3-0.3-0.4l0-4.7c0-0.2,0.1-0.2,0.3-0.1l2.9,1.7
			c0.1,0.1,0.3,0.3,0.3,0.4L26.9,17.4z"/>
		<path class="st9" d="M23.9,15.1L23.9,15.1C23.9,15.1,23.9,15.1,23.9,15.1C23.9,15.1,24,15.1,23.9,15.1C24,15.1,24,15.1,23.9,15.1
			C24,15.1,24,15.1,23.9,15.1C24,15.1,24,15.1,23.9,15.1C24,15.1,24,15.1,23.9,15.1C24,15.1,24,15.1,23.9,15.1
			C24,15.1,24,15.1,23.9,15.1C24,15,24,15,23.9,15.1C24,15,24,15,23.9,15.1C24,15,24,15,23.9,15.1C24,15,24,15,23.9,15.1
			C24,15,24,15,23.9,15.1C24,15,24,15,23.9,15.1C24,15,24,15,23.9,15.1C24,15,24,15,23.9,15.1C24,15,24,15,23.9,15.1
			C24,15,24,15,23.9,15.1C24,15,24,15,23.9,15.1C24,15,24,15,23.9,15.1c0.1-0.1,0.1-0.1,0.1,0l1.4,0.8c0,0,0.1,0.1,0.1,0.1
			c0,0,0,0,0,0c0,0,0,0,0,0c0,0,0,0,0,0c0,0,0,0,0,0c0,0,0,0,0,0c0,0,0,0,0,0c0,0,0,0,0,0c0,0,0,0,0,0c0,0,0,0,0,0c0,0,0,0,0,0
			c0,0,0,0,0,0c0,0,0,0,0,0c0,0,0,0,0,0c0,0,0,0,0,0c0,0,0,0,0,0c0,0,0,0,0,0c0,0,0,0,0,0c0,0,0,0,0,0c0,0,0,0,0,0c0,0,0,0,0,0
			c0,0,0,0,0,0c0,0,0,0,0,0c0,0,0-0.1-0.1-0.1L23.9,15.1C24,15.1,24,15.1,23.9,15.1z M25.6,15c0,0,0-0.1-0.1-0.1L24.1,14
			c0,0,0,0,0,0c0,0,0,0,0,0c0,0,0,0,0,0c0,0,0,0,0,0c0,0,0,0,0,0c0,0,0,0,0,0c0,0,0,0,0,0c0,0,0,0,0,0c0,0,0,0,0,0c0,0,0,0,0,0
			c0,0,0,0,0,0c0,0,0,0,0,0c0,0,0,0,0,0c0,0,0,0,0,0c0,0,0,0,0,0c0,0,0,0,0,0c0,0,0,0,0,0c0,0,0,0,0,0c0,0,0,0,0,0c0,0,0,0,0,0
			c0,0,0,0,0,0c0,0,0,0,0,0l1.4,0.8C25.5,15,25.5,15,25.6,15c-0.1,0.1-0.1,0.1-0.1,0.1h0C25.5,15.1,25.5,15.1,25.6,15
			C25.5,15.1,25.5,15.1,25.6,15C25.5,15.1,25.5,15.1,25.6,15C25.5,15.1,25.5,15.1,25.6,15C25.5,15.1,25.5,15.1,25.6,15
			C25.5,15.1,25.5,15.1,25.6,15C25.5,15.1,25.5,15.1,25.6,15C25.5,15.1,25.5,15.1,25.6,15C25.5,15.1,25.5,15.1,25.6,15
			C25.5,15.1,25.5,15.1,25.6,15C25.5,15,25.5,15,25.6,15C25.5,15,25.5,15,25.6,15C25.5,15,25.5,15,25.6,15C25.5,15,25.5,15,25.6,15
			C25.5,15,25.5,15,25.6,15C25.5,15,25.5,15,25.6,15C25.5,15,25.5,15,25.6,15C25.5,15,25.5,15,25.6,15C25.6,15,25.6,15,25.6,15
			C25.6,15,25.6,15,25.6,15C25.6,15,25.6,15,25.6,15z M24,13.8C24,13.8,24,13.8,24,13.8C24,13.8,24,13.8,24,13.8
			C24,13.8,24,13.8,24,13.8C24,13.8,24,13.8,24,13.8C24,13.8,24,13.8,24,13.8C24,13.8,24,13.8,24,13.8C24,13.8,24,13.8,24,13.8
			C24,13.8,24,13.8,24,13.8C24,13.8,24,13.8,24,13.8C24,13.8,24,13.8,24,13.8C24,13.8,24,13.8,24,13.8C24,13.8,24,13.8,24,13.8
			C24,13.8,24,13.8,24,13.8C24,13.8,24,13.8,24,13.8C24,13.8,24,13.8,24,13.8C24,13.8,24,13.8,24,13.8C24,13.8,24,13.8,24,13.8
			C24,13.8,24,13.8,24,13.8C24,13.8,23.9,13.8,24,13.8C23.9,13.8,23.9,13.8,24,13.8L24,13.8C24,13.8,24,13.8,24,13.8l2.3,1.4
			c0,0,0.1,0.1,0.1,0.1c0,0,0,0,0,0l0,0c0,0,0,0,0,0c0,0,0,0,0,0c0,0,0,0,0,0c0,0,0,0,0,0c0,0,0,0,0,0c0,0,0,0,0,0c0,0,0,0,0,0
			c0,0,0,0,0,0c0,0,0,0,0,0c0,0,0,0,0,0c0,0,0,0,0,0c0,0,0,0,0,0c0,0,0,0,0,0c0,0,0,0,0,0c0,0,0,0,0,0c0,0,0,0,0,0c0,0,0,0,0,0
			c0,0,0,0,0,0c0,0,0,0,0,0c0,0,0,0,0,0c0,0,0,0,0,0c0,0,0-0.1-0.1-0.1L24,13.8C24.1,13.8,24,13.8,24,13.8z M25.1,12.1l0,0.9
			l0.8,0.4c0,0.2-0.1,0.4-0.2,0.5c0,0,0,0,0,0c0,0,0,0,0,0c0,0,0,0,0,0c0,0,0,0,0,0c0,0,0,0,0,0c0,0,0,0,0,0c0,0,0,0,0,0
			c0,0,0,0,0,0c0,0,0,0,0,0c0,0,0,0,0,0c0,0,0,0,0,0c0,0,0,0,0,0c0,0,0,0,0,0c0,0,0,0,0,0c0,0,0,0,0,0c0,0,0,0,0,0c0,0,0,0,0,0
			c0,0,0,0,0,0c0,0,0,0,0,0c0,0,0,0,0,0c0.1-0.1,0.2-0.3,0.2-0.5L25.2,13L25.1,12.1C25,12,24.8,12,24.7,12c0,0,0,0,0,0c0,0,0,0,0,0
			c0,0,0,0,0,0c0,0,0,0,0,0c0,0,0,0,0,0c0,0,0,0,0,0c0,0,0,0,0,0c0,0,0,0,0,0c0,0,0,0,0,0c0,0,0,0,0,0c0,0,0,0,0,0c0,0,0,0,0,0
			c0,0,0,0,0,0c0,0,0,0,0,0c0,0,0,0,0,0c0,0,0,0,0,0c0,0,0,0,0,0c0,0,0,0,0,0c0,0,0,0,0,0c0,0,0,0,0,0C24.7,12,24.9,12,25.1,12.1z
			 M25.9,16.4l-1.9-1.1c0,0,0,0,0,0c0,0,0,0,0,0c0,0,0,0,0,0c0,0,0,0,0,0c0,0,0,0,0,0c0,0,0,0,0,0c0,0,0,0,0,0c0,0,0,0,0,0
			c0,0,0,0,0,0c0,0,0,0,0,0c0,0,0,0,0,0c0,0,0,0,0,0c0,0,0,0,0,0c0,0,0,0,0,0c0,0,0,0,0,0c0,0,0,0,0,0c0,0,0,0,0,0c0,0,0,0,0,0
			c0,0,0,0,0,0c0,0,0,0,0,0c0,0,0,0,0,0l0,0c0,0,0,0,0,0L25.9,16.4c-0.1,0.1,0,0.1,0,0.2c0,0,0,0,0,0c0,0,0,0,0,0c0,0,0,0,0,0
			c0,0,0,0,0,0c0,0,0,0,0,0c0,0,0,0,0,0c0,0,0,0,0,0c0,0,0,0,0,0c0,0,0,0,0,0c0,0,0,0,0,0c0,0,0,0,0,0c0,0,0,0,0,0c0,0,0,0,0,0
			c0,0,0,0,0,0c0,0,0,0,0,0c0,0,0,0,0,0c0,0,0,0,0,0c0,0,0,0,0,0c0,0,0,0,0,0c0,0,0,0,0,0c0,0,0,0,0,0c0,0,0,0,0,0
			C26,16.5,26,16.4,25.9,16.4z M24,14.7C24,14.7,24,14.7,24,14.7C24,14.7,24,14.7,24,14.7C24,14.7,24,14.7,24,14.7
			C24,14.8,24,14.8,24,14.7C24,14.8,24,14.8,24,14.7C24,14.8,24,14.8,24,14.7C24,14.8,24,14.8,24,14.7C24,14.8,24,14.8,24,14.7
			C24,14.8,24,14.8,24,14.7C24,14.8,24,14.8,24,14.7C24,14.8,24,14.8,24,14.7C24,14.8,24,14.8,24,14.7C24,14.8,24,14.8,24,14.7
			C24,14.8,24,14.8,24,14.7C24,14.8,24,14.8,24,14.7C24,14.8,24,14.8,24,14.7C24,14.8,24,14.8,24,14.7C24,14.8,24,14.8,24,14.7
			C24,14.8,23.9,14.8,24,14.7C23.9,14.8,23.9,14.8,24,14.7L24,14.7C24,14.8,24,14.8,24,14.7l2.3,1.4c0,0,0.1,0.1,0.1,0.1
			c0,0,0,0,0,0l0,0c0,0,0,0,0,0c0,0,0,0,0,0c0,0,0,0,0,0c0,0,0,0,0,0c0,0,0,0,0,0c0,0,0,0,0,0c0,0,0,0,0,0c0,0,0,0,0,0c0,0,0,0,0,0
			c0,0,0,0,0,0c0,0,0,0,0,0c0,0,0,0,0,0c0,0,0,0,0,0c0,0,0,0,0,0c0,0,0,0,0,0c0,0,0,0,0,0c0,0,0,0,0,0c0,0,0,0,0,0c0,0,0,0,0,0
			c0,0,0,0,0,0c0,0,0,0,0,0c0,0,0-0.1-0.1-0.1L24,14.7C24.1,14.7,24,14.7,24,14.7z M25.9,15.4l-1.9-1.1c0,0,0,0,0,0c0,0,0,0,0,0
			c0,0,0,0,0,0c0,0,0,0,0,0c0,0,0,0,0,0c0,0,0,0,0,0c0,0,0,0,0,0c0,0,0,0,0,0c0,0,0,0,0,0c0,0,0,0,0,0c0,0,0,0,0,0c0,0,0,0,0,0
			c0,0,0,0,0,0c0,0,0,0,0,0c0,0,0,0,0,0c0,0,0,0,0,0c0,0,0,0,0,0c0,0,0,0,0,0c0,0,0,0,0,0c0,0,0,0,0,0c0,0,0,0,0,0c0,0,0,0,0,0
			L25.9,15.4c-0.1,0.1,0,0.1,0,0.2c0,0,0,0,0,0c0,0,0,0,0,0c0,0,0,0,0,0c0,0,0,0,0,0c0,0,0,0,0,0c0,0,0,0,0,0c0,0,0,0,0,0
			c0,0,0,0,0,0c0,0,0,0,0,0c0,0,0,0,0,0c0,0,0,0,0,0c0,0,0,0,0,0c0,0,0,0,0,0c0,0,0,0,0,0c0,0,0,0,0,0c0,0,0,0,0,0c0,0,0,0,0,0
			c0,0,0,0,0,0c0,0,0,0,0,0s0,0,0,0c0,0,0,0,0,0c0,0,0,0,0,0C26,15.5,26,15.4,25.9,15.4z"/>
		<path class="st5" d="M23.9,15.1L23.9,15.1C23.9,15.1,23.9,15.1,23.9,15.1C23.9,15.1,24,15.1,23.9,15.1C24,15.1,24,15.1,23.9,15.1
			C24,15.1,24,15.1,23.9,15.1C24,15.1,24,15.1,23.9,15.1C24,15.1,24,15.1,23.9,15.1C24,15.1,24,15.1,23.9,15.1
			C24,15.1,24,15.1,23.9,15.1C24,15,24,15,23.9,15.1C24,15,24,15,23.9,15.1C24,15,24,15,23.9,15.1C24,15,24,15,23.9,15.1
			C24,15,24,15,23.9,15.1C24,15,24,15,23.9,15.1C24,15,24,15,23.9,15.1C24,15,24,15,23.9,15.1C24,15,24,15,23.9,15.1
			C24,15,24,15,23.9,15.1C24,15,24,15,23.9,15.1C24,15,24,15,23.9,15.1c0.1-0.1,0.1-0.1,0.1,0l1.4,0.8c0,0,0.1,0.1,0.1,0.1
			c0,0,0,0,0,0c0,0,0,0,0,0c0,0,0,0,0,0c0,0,0,0,0,0c0,0,0,0,0,0c0,0,0,0,0,0c0,0,0,0,0,0c0,0,0,0,0,0c0,0,0,0,0,0c0,0,0,0,0,0
			c0,0,0,0,0,0c0,0,0,0,0,0c0,0,0,0,0,0c0,0,0,0,0,0c0,0,0,0,0,0c0,0,0,0,0,0c0,0,0,0,0,0c0,0,0,0,0,0c0,0,0,0,0,0c0,0,0,0,0,0
			c0,0,0,0,0,0c0,0,0,0,0,0c0,0,0-0.1-0.1-0.1L23.9,15.1C24,15.1,24,15.1,23.9,15.1z M25.6,15c0,0,0-0.1-0.1-0.1L24.1,14
			c0,0,0,0,0,0c0,0,0,0,0,0c0,0,0,0,0,0c0,0,0,0,0,0c0,0,0,0,0,0c0,0,0,0,0,0c0,0,0,0,0,0c0,0,0,0,0,0c0,0,0,0,0,0c0,0,0,0,0,0
			c0,0,0,0,0,0c0,0,0,0,0,0c0,0,0,0,0,0c0,0,0,0,0,0c0,0,0,0,0,0c0,0,0,0,0,0c0,0,0,0,0,0c0,0,0,0,0,0c0,0,0,0,0,0c0,0,0,0,0,0
			c0,0,0,0,0,0c0,0,0,0,0,0l1.4,0.8C25.5,15,25.5,15,25.6,15c-0.1,0.1-0.1,0.1-0.1,0.1h0C25.5,15.1,25.5,15.1,25.6,15
			C25.5,15.1,25.5,15.1,25.6,15C25.5,15.1,25.5,15.1,25.6,15C25.5,15.1,25.5,15.1,25.6,15C25.5,15.1,25.5,15.1,25.6,15
			C25.5,15.1,25.5,15.1,25.6,15C25.5,15.1,25.5,15.1,25.6,15C25.5,15.1,25.5,15.1,25.6,15C25.5,15.1,25.5,15.1,25.6,15
			C25.5,15.1,25.5,15.1,25.6,15C25.5,15,25.5,15,25.6,15C25.5,15,25.5,15,25.6,15C25.5,15,25.5,15,25.6,15C25.5,15,25.5,15,25.6,15
			C25.5,15,25.5,15,25.6,15C25.5,15,25.5,15,25.6,15C25.5,15,25.5,15,25.6,15C25.5,15,25.5,15,25.6,15C25.6,15,25.6,15,25.6,15
			C25.6,15,25.6,15,25.6,15C25.6,15,25.6,15,25.6,15z M24,13.8C24,13.8,24,13.8,24,13.8C24,13.8,24,13.8,24,13.8
			C24,13.8,24,13.8,24,13.8C24,13.8,24,13.8,24,13.8C24,13.8,24,13.8,24,13.8C24,13.8,24,13.8,24,13.8C24,13.8,24,13.8,24,13.8
			C24,13.8,24,13.8,24,13.8C24,13.8,24,13.8,24,13.8C24,13.8,24,13.8,24,13.8C24,13.8,24,13.8,24,13.8C24,13.8,24,13.8,24,13.8
			C24,13.8,24,13.8,24,13.8C24,13.8,24,13.8,24,13.8C24,13.8,24,13.8,24,13.8C24,13.8,24,13.8,24,13.8C24,13.8,24,13.8,24,13.8
			C24,13.8,24,13.8,24,13.8C24,13.8,23.9,13.8,24,13.8C23.9,13.8,23.9,13.8,24,13.8L24,13.8C24,13.8,24,13.8,24,13.8l2.3,1.4
			c0,0,0.1,0.1,0.1,0.1c0,0,0,0,0,0l0,0c0,0,0,0,0,0c0,0,0,0,0,0c0,0,0,0,0,0c0,0,0,0,0,0c0,0,0,0,0,0c0,0,0,0,0,0c0,0,0,0,0,0
			c0,0,0,0,0,0c0,0,0,0,0,0c0,0,0,0,0,0c0,0,0,0,0,0c0,0,0,0,0,0c0,0,0,0,0,0c0,0,0,0,0,0c0,0,0,0,0,0c0,0,0,0,0,0c0,0,0,0,0,0
			c0,0,0,0,0,0c0,0,0,0,0,0c0,0,0,0,0,0c0,0,0,0,0,0c0,0,0-0.1-0.1-0.1L24,13.8C24.1,13.8,24,13.8,24,13.8z M25.1,12.1l0,0.9
			l0.8,0.4c0,0.2-0.1,0.4-0.2,0.5c0,0,0,0,0,0c0,0,0,0,0,0c0,0,0,0,0,0c0,0,0,0,0,0c0,0,0,0,0,0c0,0,0,0,0,0c0,0,0,0,0,0
			c0,0,0,0,0,0c0,0,0,0,0,0c0,0,0,0,0,0c0,0,0,0,0,0c0,0,0,0,0,0c0,0,0,0,0,0c0,0,0,0,0,0c0,0,0,0,0,0c0,0,0,0,0,0c0,0,0,0,0,0
			c0,0,0,0,0,0c0,0,0,0,0,0c0,0,0,0,0,0c0.1-0.1,0.2-0.3,0.2-0.5L25.2,13L25.1,12.1C25,12,24.8,12,24.7,12c0,0,0,0,0,0c0,0,0,0,0,0
			c0,0,0,0,0,0c0,0,0,0,0,0c0,0,0,0,0,0c0,0,0,0,0,0c0,0,0,0,0,0c0,0,0,0,0,0c0,0,0,0,0,0c0,0,0,0,0,0c0,0,0,0,0,0c0,0,0,0,0,0
			c0,0,0,0,0,0c0,0,0,0,0,0c0,0,0,0,0,0c0,0,0,0,0,0c0,0,0,0,0,0c0,0,0,0,0,0c0,0,0,0,0,0c0,0,0,0,0,0C24.7,12,24.9,12,25.1,12.1z
			 M25.9,16.4l-1.9-1.1c0,0,0,0,0,0c0,0,0,0,0,0c0,0,0,0,0,0c0,0,0,0,0,0c0,0,0,0,0,0c0,0,0,0,0,0c0,0,0,0,0,0c0,0,0,0,0,0
			c0,0,0,0,0,0c0,0,0,0,0,0c0,0,0,0,0,0c0,0,0,0,0,0c0,0,0,0,0,0c0,0,0,0,0,0c0,0,0,0,0,0c0,0,0,0,0,0c0,0,0,0,0,0c0,0,0,0,0,0
			c0,0,0,0,0,0c0,0,0,0,0,0c0,0,0,0,0,0l0,0c0,0,0,0,0,0L25.9,16.4c-0.1,0.1,0,0.1,0,0.2c0,0,0,0,0,0c0,0,0,0,0,0c0,0,0,0,0,0
			c0,0,0,0,0,0c0,0,0,0,0,0c0,0,0,0,0,0c0,0,0,0,0,0c0,0,0,0,0,0c0,0,0,0,0,0c0,0,0,0,0,0c0,0,0,0,0,0c0,0,0,0,0,0c0,0,0,0,0,0
			c0,0,0,0,0,0c0,0,0,0,0,0c0,0,0,0,0,0c0,0,0,0,0,0c0,0,0,0,0,0c0,0,0,0,0,0c0,0,0,0,0,0c0,0,0,0,0,0c0,0,0,0,0,0
			C26,16.5,26,16.4,25.9,16.4z M24,14.7C24,14.7,24,14.7,24,14.7C24,14.7,24,14.7,24,14.7C24,14.7,24,14.7,24,14.7
			C24,14.8,24,14.8,24,14.7C24,14.8,24,14.8,24,14.7C24,14.8,24,14.8,24,14.7C24,14.8,24,14.8,24,14.7C24,14.8,24,14.8,24,14.7
			C24,14.8,24,14.8,24,14.7C24,14.8,24,14.8,24,14.7C24,14.8,24,14.8,24,14.7C24,14.8,24,14.8,24,14.7C24,14.8,24,14.8,24,14.7
			C24,14.8,24,14.8,24,14.7C24,14.8,24,14.8,24,14.7C24,14.8,24,14.8,24,14.7C24,14.8,24,14.8,24,14.7C24,14.8,24,14.8,24,14.7
			C24,14.8,23.9,14.8,24,14.7C23.9,14.8,23.9,14.8,24,14.7L24,14.7C24,14.8,24,14.8,24,14.7l2.3,1.4c0,0,0.1,0.1,0.1,0.1
			c0,0,0,0,0,0l0,0c0,0,0,0,0,0c0,0,0,0,0,0c0,0,0,0,0,0c0,0,0,0,0,0c0,0,0,0,0,0c0,0,0,0,0,0c0,0,0,0,0,0c0,0,0,0,0,0c0,0,0,0,0,0
			c0,0,0,0,0,0c0,0,0,0,0,0c0,0,0,0,0,0c0,0,0,0,0,0c0,0,0,0,0,0c0,0,0,0,0,0c0,0,0,0,0,0c0,0,0,0,0,0c0,0,0,0,0,0c0,0,0,0,0,0
			c0,0,0,0,0,0c0,0,0,0,0,0c0,0,0-0.1-0.1-0.1L24,14.7C24.1,14.7,24,14.7,24,14.7z M25.9,15.4l-1.9-1.1c0,0,0,0,0,0c0,0,0,0,0,0
			c0,0,0,0,0,0c0,0,0,0,0,0c0,0,0,0,0,0c0,0,0,0,0,0c0,0,0,0,0,0c0,0,0,0,0,0c0,0,0,0,0,0c0,0,0,0,0,0c0,0,0,0,0,0c0,0,0,0,0,0
			c0,0,0,0,0,0c0,0,0,0,0,0c0,0,0,0,0,0c0,0,0,0,0,0c0,0,0,0,0,0c0,0,0,0,0,0c0,0,0,0,0,0c0,0,0,0,0,0c0,0,0,0,0,0c0,0,0,0,0,0
			L25.9,15.4c-0.1,0.1,0,0.1,0,0.2c0,0,0,0,0,0c0,0,0,0,0,0c0,0,0,0,0,0c0,0,0,0,0,0c0,0,0,0,0,0c0,0,0,0,0,0c0,0,0,0,0,0
			c0,0,0,0,0,0c0,0,0,0,0,0c0,0,0,0,0,0c0,0,0,0,0,0c0,0,0,0,0,0c0,0,0,0,0,0c0,0,0,0,0,0c0,0,0,0,0,0c0,0,0,0,0,0c0,0,0,0,0,0
			c0,0,0,0,0,0c0,0,0,0,0,0s0,0,0,0c0,0,0,0,0,0c0,0,0,0,0,0C26,15.5,26,15.4,25.9,15.4z"/>
		<path class="st4" d="M26.3,16.2C26.3,16.3,26.3,16.3,26.3,16.2L24,14.9c0,0-0.1-0.1-0.1-0.1l0,0c0,0,0-0.1,0.1,0l2.3,1.3
			C26.3,16.1,26.3,16.2,26.3,16.2L26.3,16.2z M25.9,16.5C25.9,16.6,25.9,16.6,25.9,16.5l-1.9-1c0,0-0.1-0.1-0.1-0.1l0,0
			c0,0,0-0.1,0.1,0l1.9,1.1C25.9,16.5,25.9,16.5,25.9,16.5L25.9,16.5z M25.5,16c0,0,0-0.1-0.1-0.1L24,15.1c0,0-0.1,0-0.1,0l0,0
			c0,0,0,0.1,0.1,0.1L25.5,16C25.5,16.1,25.5,16.1,25.5,16L25.5,16z M26.3,15.2C26.3,15.3,26.3,15.3,26.3,15.2L24,14
			c0,0-0.1-0.1-0.1-0.1l0,0c0,0,0-0.1,0.1,0l2.3,1.3C26.3,15.2,26.3,15.2,26.3,15.2L26.3,15.2z M25.9,15.6
			C25.9,15.6,25.9,15.6,25.9,15.6l-1.9-1c0,0-0.1-0.1-0.1-0.1l0,0c0,0,0-0.1,0.1,0l1.9,1.1C25.9,15.5,25.9,15.5,25.9,15.6L25.9,15.6
			z M25.5,15c0,0,0-0.1-0.1-0.1L24,14.1c0,0-0.1,0-0.1,0l0,0c0,0,0,0.1,0.1,0.1L25.5,15C25.5,15.1,25.5,15.1,25.5,15L25.5,15z
			 M25.1,12.1c-0.4-0.2-0.8,0-0.8,0.4c0,0.5,0.3,1.1,0.8,1.3c0.4,0.2,0.8,0,0.8-0.4L25.1,13L25.1,12.1z"/>
		<path class="st9" d="M26.1,13.4L26.1,13.4c0.1-0.5-0.3-1.1-0.7-1.4l-0.1,0C25.7,12.3,26.1,12.9,26.1,13.4z"/>
		<path class="st5" d="M26.1,13.4L26.1,13.4c0.1-0.5-0.3-1.1-0.7-1.4l-0.1,0C25.7,12.3,26.1,12.9,26.1,13.4z"/>
		<path class="st7" d="M25.3,12v0.9l0.8,0.4C26.1,12.9,25.7,12.3,25.3,12z"/>
	</g>
	<g>
		<path class="st6" d="M14.8,5.1l2.9,1.7c0.1,0.1,0.3,0.3,0.3,0.4V12c0,0.1,0,0.1-0.1,0.2l0.1,0l0,0c0,0,0.1-0.1,0.1-0.2V7.2
			c0-0.2-0.1-0.4-0.3-0.4L14.8,5.1C14.8,5,14.7,5,14.8,5.1l-0.2,0C14.7,5.1,14.7,5.1,14.8,5.1z"/>
		<path class="st5" d="M14.8,5.1l2.9,1.7c0.1,0.1,0.3,0.3,0.3,0.4V12c0,0.1,0,0.1-0.1,0.2l0.1,0l0,0c0,0,0.1-0.1,0.1-0.2V7.2
			c0-0.2-0.1-0.4-0.3-0.4L14.8,5.1C14.8,5,14.7,5,14.8,5.1l-0.2,0C14.7,5.1,14.7,5.1,14.8,5.1z"/>
		<path class="st6" d="M17.9,12c0,0.2-0.1,0.2-0.3,0.1l-2.9-1.7c-0.1-0.1-0.3-0.3-0.3-0.4l0-4.7c0-0.2,0.1-0.2,0.3-0.1l2.9,1.7
			c0.1,0.1,0.3,0.3,0.3,0.4V12z"/>
		<path class="st6" d="M15,9.7L15,9.7C15,9.7,15,9.7,15,9.7C15,9.7,15,9.7,15,9.7C15,9.7,15,9.7,15,9.7C15,9.7,15,9.7,15,9.7
			C15,9.7,15,9.7,15,9.7C15,9.7,15,9.7,15,9.7C15,9.7,15,9.7,15,9.7c0.1-0.1,0.1-0.1,0.1,0l1.4,0.8c0,0,0.1,0.1,0.1,0.1c0,0,0,0,0,0
			c0,0,0,0,0,0c0,0,0,0,0,0c0,0,0,0,0,0c0,0,0,0,0,0c0,0,0,0,0,0c0,0,0,0,0,0c0,0,0,0,0,0c0,0,0,0,0,0c0,0,0-0.1-0.1-0.1L15,9.7
			C15,9.7,15,9.7,15,9.7z M17,11l-1.9-1.1c0,0,0,0,0,0c0,0,0,0,0,0c0,0,0,0,0,0c0,0,0,0,0,0c0,0,0,0,0,0c0,0,0,0,0,0c0,0,0,0,0,0
			c0,0,0,0,0,0c0,0,0,0,0,0L17,11c-0.1,0.1,0,0.1,0,0.2c0,0,0,0,0,0c0,0,0,0,0,0c0,0,0,0,0,0c0,0,0,0,0,0c0,0,0,0,0,0c0,0,0,0,0,0
			c0,0,0,0,0,0c0,0,0,0,0,0c0,0,0,0,0,0C17,11.1,17,11,17,11z M16.2,7.4l0.3,0.2c0,0,0.1,0.1,0.1,0.1c0,0,0,0,0,0c0,0,0,0,0,0
			c0,0,0,0,0,0c0,0,0,0,0,0c0,0,0,0,0,0c0,0,0,0,0,0c0,0,0,0,0,0c0,0,0,0,0,0c0,0,0,0,0,0c0,0,0-0.1-0.1-0.1L16.2,7.4
			C16.2,7.4,16.2,7.4,16.2,7.4C16.2,7.4,16.2,7.4,16.2,7.4C16.2,7.4,16.2,7.4,16.2,7.4C16.2,7.4,16.2,7.4,16.2,7.4
			C16.2,7.4,16.2,7.4,16.2,7.4C16.2,7.4,16.2,7.4,16.2,7.4C16.1,7.4,16.1,7.4,16.2,7.4C16.1,7.4,16.1,7.4,16.2,7.4L16.2,7.4
			C16.1,7.4,16.1,7.4,16.2,7.4z M16.6,8.6c0,0,0-0.1-0.1-0.1l-1.4-0.8c0,0,0,0,0,0c0,0,0,0,0,0c0,0,0,0,0,0c0,0,0,0,0,0c0,0,0,0,0,0
			c0,0,0,0,0,0c0,0,0,0,0,0c0,0,0,0,0,0c0,0,0,0,0,0l1.4,0.8C16.5,8.6,16.5,8.6,16.6,8.6C16.5,8.7,16.5,8.7,16.6,8.6L16.6,8.6
			C16.5,8.7,16.5,8.7,16.6,8.6C16.5,8.7,16.5,8.7,16.6,8.6C16.5,8.7,16.5,8.7,16.6,8.6C16.5,8.7,16.5,8.7,16.6,8.6
			C16.5,8.7,16.5,8.7,16.6,8.6C16.6,8.7,16.6,8.7,16.6,8.6C16.6,8.7,16.6,8.7,16.6,8.6C16.6,8.7,16.6,8.7,16.6,8.6z M16.6,9.6
			c0,0,0-0.1-0.1-0.1l-1.4-0.8c0,0,0,0,0,0c0,0,0,0,0,0c0,0,0,0,0,0c0,0,0,0,0,0c0,0,0,0,0,0c0,0,0,0,0,0c0,0,0,0,0,0c0,0,0,0,0,0
			c0,0,0,0,0,0l1.4,0.8C16.5,9.6,16.5,9.6,16.6,9.6C16.5,9.7,16.5,9.7,16.6,9.6L16.6,9.6C16.5,9.7,16.5,9.7,16.6,9.6
			C16.5,9.7,16.5,9.7,16.6,9.6C16.5,9.7,16.5,9.7,16.6,9.6C16.5,9.7,16.5,9.7,16.6,9.6C16.5,9.7,16.5,9.7,16.6,9.6
			C16.6,9.7,16.6,9.7,16.6,9.6C16.6,9.7,16.6,9.7,16.6,9.6C16.6,9.6,16.6,9.6,16.6,9.6z M15,9.4C15,9.4,15,9.4,15,9.4
			C15,9.4,15,9.4,15,9.4C15,9.4,15,9.4,15,9.4C15,9.4,15,9.4,15,9.4C15,9.4,15,9.4,15,9.4C15,9.4,15,9.4,15,9.4
			C15,9.4,15,9.4,15,9.4C15,9.4,15,9.4,15,9.4l2.3,1.4c0,0,0.1,0.1,0.1,0.1c0,0,0,0,0,0c0,0,0,0,0,0c0,0,0,0,0,0c0,0,0,0,0,0
			c0,0,0,0,0,0c0,0,0,0,0,0c0,0,0,0,0,0c0,0,0,0,0,0c0,0,0,0,0,0c0,0,0-0.1-0.1-0.1L15,9.4C15.1,9.4,15,9.4,15,9.4z M16.2,6.8
			C16.2,6.8,16.2,6.8,16.2,6.8C16.2,6.8,16.2,6.8,16.2,6.8C16.2,6.8,16.2,6.8,16.2,6.8C16.2,6.8,16.2,6.8,16.2,6.8
			C16.2,6.9,16.2,6.9,16.2,6.8C16.1,6.9,16.1,6.9,16.2,6.8C16.1,6.9,16.1,6.9,16.2,6.8L16.2,6.8C16.1,6.9,16.1,6.9,16.2,6.8l0.7,0.5
			c0,0,0.1,0.1,0.1,0.1c0,0,0,0,0,0c0,0,0,0,0,0c0,0,0,0,0,0c0,0,0,0,0,0c0,0,0,0,0,0c0,0,0,0,0,0c0,0,0,0,0,0c0,0,0,0,0,0
			c0,0,0,0,0,0c0,0,0-0.1-0.1-0.1L16.2,6.8C16.2,6.8,16.2,6.8,16.2,6.8z M17,8.1l-0.7-0.4c0,0,0,0,0,0c0,0,0,0,0,0c0,0,0,0,0,0
			c0,0,0,0,0,0c0,0,0,0,0,0c0,0,0,0,0,0c0,0,0,0,0,0c0,0,0,0,0,0l0,0c0,0,0,0,0,0L17,8.1c-0.1,0.1,0,0.1,0,0.2c0,0,0,0,0,0
			c0,0,0,0,0,0c0,0,0,0,0,0c0,0,0,0,0,0c0,0,0,0,0,0c0,0,0,0,0,0c0,0,0,0,0,0c0,0,0,0,0,0c0,0,0,0,0,0C17,8.1,17,8.1,17,8.1z
			 M16.2,7.1C16.2,7.1,16.2,7.1,16.2,7.1C16.2,7.1,16.2,7.1,16.2,7.1C16.2,7.1,16.2,7.1,16.2,7.1C16.2,7.1,16.2,7.1,16.2,7.1
			C16.2,7.1,16.2,7.1,16.2,7.1C16.1,7.1,16.1,7.1,16.2,7.1C16.1,7.1,16.1,7.1,16.2,7.1L16.2,7.1C16.1,7.1,16.1,7.1,16.2,7.1l1.1,0.7
			c0,0,0.1,0.1,0.1,0.1c0,0,0,0,0,0l0,0c0,0,0,0,0,0c0,0,0,0,0,0c0,0,0,0,0,0c0,0,0,0,0,0c0,0,0,0,0,0c0,0,0,0,0,0c0,0,0,0,0,0
			c0,0,0,0,0,0c0,0,0-0.1-0.1-0.1L16.2,7.1C16.2,7.1,16.2,7.1,16.2,7.1z M15,5.9l0.8,0.5c0,0,0.1,0.1,0.1,0.1v1.1c0,0,0,0,0,0l0,0
			c0,0,0,0,0,0c0,0,0,0,0,0c0,0,0,0,0,0c0,0,0,0,0,0c0,0,0,0,0,0c0,0,0,0,0,0c0,0,0,0,0,0c0,0,0,0,0,0V6.4c0,0,0-0.1-0.1-0.1L15,5.9
			C15.1,5.9,15,5.9,15,5.9C15,5.9,15,5.9,15,5.9C15,5.9,15,5.9,15,5.9C15,5.9,15,5.9,15,5.9C15,5.9,15,5.9,15,5.9
			C15,5.9,15,5.9,15,5.9C15,5.9,15,5.9,15,5.9C15,5.9,15,5.9,15,5.9C15,5.9,15,5.9,15,5.9C15,5.9,15,5.9,15,5.9z M16.2,6.6l0.3,0.2
			c0,0,0.1,0.1,0.1,0.1c0,0,0,0,0,0c0,0,0,0,0,0c0,0,0,0,0,0c0,0,0,0,0,0c0,0,0,0,0,0c0,0,0,0,0,0c0,0,0,0,0,0c0,0,0,0,0,0
			c0,0,0,0,0,0c0,0,0-0.1-0.1-0.1L16.2,6.6C16.2,6.5,16.2,6.5,16.2,6.6C16.2,6.5,16.2,6.6,16.2,6.6C16.2,6.6,16.2,6.6,16.2,6.6
			C16.2,6.6,16.2,6.6,16.2,6.6C16.2,6.6,16.2,6.6,16.2,6.6C16.2,6.6,16.2,6.6,16.2,6.6C16.1,6.6,16.1,6.6,16.2,6.6
			C16.1,6.6,16.1,6.6,16.2,6.6L16.2,6.6C16.1,6.6,16.1,6.6,16.2,6.6z M17,9.1L15.1,8c0,0,0,0,0,0c0,0,0,0,0,0c0,0,0,0,0,0
			c0,0,0,0,0,0c0,0,0,0,0,0c0,0,0,0,0,0c0,0,0,0,0,0c0,0,0,0,0,0c0,0,0,0,0,0L17,9.1c-0.1,0.1,0,0.1,0,0.2c0,0,0,0,0,0c0,0,0,0,0,0
			c0,0,0,0,0,0c0,0,0,0,0,0c0,0,0,0,0,0c0,0,0,0,0,0c0,0,0,0,0,0c0,0,0,0,0,0c0,0,0,0,0,0C17,9.1,17,9.1,17,9.1z M15,8.4
			C15,8.4,15,8.4,15,8.4C15,8.4,15,8.4,15,8.4C15,8.4,15,8.4,15,8.4C15,8.4,15,8.4,15,8.4C15,8.4,15,8.4,15,8.4
			C15,8.4,15,8.4,15,8.4C15,8.4,15,8.4,15,8.4L15,8.4C15,8.4,15,8.4,15,8.4l2.3,1.4c0,0,0.1,0.1,0.1,0.1c0,0,0,0,0,0l0,0
			c0,0,0,0,0,0c0,0,0,0,0,0c0,0,0,0,0,0c0,0,0,0,0,0c0,0,0,0,0,0c0,0,0,0,0,0c0,0,0,0,0,0c0,0,0,0,0,0c0,0,0-0.1-0.1-0.1L15,8.4
			C15.1,8.4,15,8.4,15,8.4z M17,10L15.1,9c0,0,0,0,0,0c0,0,0,0,0,0c0,0,0,0,0,0c0,0,0,0,0,0c0,0,0,0,0,0c0,0,0,0,0,0c0,0,0,0,0,0
			c0,0,0,0,0,0c0,0,0,0,0,0c0,0,0,0,0,0L17,10c-0.1,0.1,0,0.1,0,0.2c0,0,0,0,0,0h0c0,0,0,0,0,0c0,0,0,0,0,0c0,0,0,0,0,0c0,0,0,0,0,0
			c0,0,0,0,0,0c0,0,0,0,0,0c0,0,0,0,0,0c0,0,0,0,0,0C17,10.1,17,10.1,17,10z M15,7.4C15,7.4,15,7.4,15,7.4C15,7.4,15,7.4,15,7.4
			C15,7.4,15,7.4,15,7.4C15,7.4,15,7.4,15,7.4C15,7.4,15,7.4,15,7.4C15,7.4,15,7.4,15,7.4C15,7.5,15,7.5,15,7.4
			C15,7.5,15,7.5,15,7.4l2.3,1.4c0,0,0.1,0.1,0.1,0.1c0,0,0,0,0,0c0,0,0,0,0,0c0,0,0,0,0,0c0,0,0,0,0,0c0,0,0,0,0,0c0,0,0,0,0,0
			c0,0,0,0,0,0c0,0,0,0,0,0c0,0,0,0,0,0c0,0,0-0.1-0.1-0.1L15,7.4C15.1,7.4,15,7.4,15,7.4z"/>
		<path class="st5" d="M15,9.7L15,9.7C15,9.7,15,9.7,15,9.7C15,9.7,15,9.7,15,9.7C15,9.7,15,9.7,15,9.7C15,9.7,15,9.7,15,9.7
			C15,9.7,15,9.7,15,9.7C15,9.7,15,9.7,15,9.7C15,9.7,15,9.7,15,9.7c0.1-0.1,0.1-0.1,0.1,0l1.4,0.8c0,0,0.1,0.1,0.1,0.1c0,0,0,0,0,0
			c0,0,0,0,0,0c0,0,0,0,0,0c0,0,0,0,0,0c0,0,0,0,0,0c0,0,0,0,0,0c0,0,0,0,0,0c0,0,0,0,0,0c0,0,0,0,0,0c0,0,0-0.1-0.1-0.1L15,9.7
			C15,9.7,15,9.7,15,9.7z M17,11l-1.9-1.1c0,0,0,0,0,0c0,0,0,0,0,0c0,0,0,0,0,0c0,0,0,0,0,0c0,0,0,0,0,0c0,0,0,0,0,0c0,0,0,0,0,0
			c0,0,0,0,0,0c0,0,0,0,0,0L17,11c-0.1,0.1,0,0.1,0,0.2c0,0,0,0,0,0c0,0,0,0,0,0c0,0,0,0,0,0c0,0,0,0,0,0c0,0,0,0,0,0c0,0,0,0,0,0
			c0,0,0,0,0,0c0,0,0,0,0,0c0,0,0,0,0,0C17,11.1,17,11,17,11z M16.2,7.4l0.3,0.2c0,0,0.1,0.1,0.1,0.1c0,0,0,0,0,0c0,0,0,0,0,0
			c0,0,0,0,0,0c0,0,0,0,0,0c0,0,0,0,0,0c0,0,0,0,0,0c0,0,0,0,0,0c0,0,0,0,0,0c0,0,0,0,0,0c0,0,0-0.1-0.1-0.1L16.2,7.4
			C16.2,7.4,16.2,7.4,16.2,7.4C16.2,7.4,16.2,7.4,16.2,7.4C16.2,7.4,16.2,7.4,16.2,7.4C16.2,7.4,16.2,7.4,16.2,7.4
			C16.2,7.4,16.2,7.4,16.2,7.4C16.2,7.4,16.2,7.4,16.2,7.4C16.1,7.4,16.1,7.4,16.2,7.4C16.1,7.4,16.1,7.4,16.2,7.4L16.2,7.4
			C16.1,7.4,16.1,7.4,16.2,7.4z M16.6,8.6c0,0,0-0.1-0.1-0.1l-1.4-0.8c0,0,0,0,0,0c0,0,0,0,0,0c0,0,0,0,0,0c0,0,0,0,0,0c0,0,0,0,0,0
			c0,0,0,0,0,0c0,0,0,0,0,0c0,0,0,0,0,0c0,0,0,0,0,0l1.4,0.8C16.5,8.6,16.5,8.6,16.6,8.6C16.5,8.7,16.5,8.7,16.6,8.6L16.6,8.6
			C16.5,8.7,16.5,8.7,16.6,8.6C16.5,8.7,16.5,8.7,16.6,8.6C16.5,8.7,16.5,8.7,16.6,8.6C16.5,8.7,16.5,8.7,16.6,8.6
			C16.5,8.7,16.5,8.7,16.6,8.6C16.6,8.7,16.6,8.7,16.6,8.6C16.6,8.7,16.6,8.7,16.6,8.6C16.6,8.7,16.6,8.7,16.6,8.6z M16.6,9.6
			c0,0,0-0.1-0.1-0.1l-1.4-0.8c0,0,0,0,0,0c0,0,0,0,0,0c0,0,0,0,0,0c0,0,0,0,0,0c0,0,0,0,0,0c0,0,0,0,0,0c0,0,0,0,0,0c0,0,0,0,0,0
			c0,0,0,0,0,0l1.4,0.8C16.5,9.6,16.5,9.6,16.6,9.6C16.5,9.7,16.5,9.7,16.6,9.6L16.6,9.6C16.5,9.7,16.5,9.7,16.6,9.6
			C16.5,9.7,16.5,9.7,16.6,9.6C16.5,9.7,16.5,9.7,16.6,9.6C16.5,9.7,16.5,9.7,16.6,9.6C16.5,9.7,16.5,9.7,16.6,9.6
			C16.6,9.7,16.6,9.7,16.6,9.6C16.6,9.7,16.6,9.7,16.6,9.6C16.6,9.6,16.6,9.6,16.6,9.6z M15,9.4C15,9.4,15,9.4,15,9.4
			C15,9.4,15,9.4,15,9.4C15,9.4,15,9.4,15,9.4C15,9.4,15,9.4,15,9.4C15,9.4,15,9.4,15,9.4C15,9.4,15,9.4,15,9.4
			C15,9.4,15,9.4,15,9.4C15,9.4,15,9.4,15,9.4l2.3,1.4c0,0,0.1,0.1,0.1,0.1c0,0,0,0,0,0c0,0,0,0,0,0c0,0,0,0,0,0c0,0,0,0,0,0
			c0,0,0,0,0,0c0,0,0,0,0,0c0,0,0,0,0,0c0,0,0,0,0,0c0,0,0,0,0,0c0,0,0-0.1-0.1-0.1L15,9.4C15.1,9.4,15,9.4,15,9.4z M16.2,6.8
			C16.2,6.8,16.2,6.8,16.2,6.8C16.2,6.8,16.2,6.8,16.2,6.8C16.2,6.8,16.2,6.8,16.2,6.8C16.2,6.8,16.2,6.8,16.2,6.8
			C16.2,6.9,16.2,6.9,16.2,6.8C16.1,6.9,16.1,6.9,16.2,6.8C16.1,6.9,16.1,6.9,16.2,6.8L16.2,6.8C16.1,6.9,16.1,6.9,16.2,6.8l0.7,0.5
			c0,0,0.1,0.1,0.1,0.1c0,0,0,0,0,0c0,0,0,0,0,0c0,0,0,0,0,0c0,0,0,0,0,0c0,0,0,0,0,0c0,0,0,0,0,0c0,0,0,0,0,0c0,0,0,0,0,0
			c0,0,0,0,0,0c0,0,0-0.1-0.1-0.1L16.2,6.8C16.2,6.8,16.2,6.8,16.2,6.8z M17,8.1l-0.7-0.4c0,0,0,0,0,0c0,0,0,0,0,0c0,0,0,0,0,0
			c0,0,0,0,0,0c0,0,0,0,0,0c0,0,0,0,0,0c0,0,0,0,0,0c0,0,0,0,0,0l0,0c0,0,0,0,0,0L17,8.1c-0.1,0.1,0,0.1,0,0.2c0,0,0,0,0,0
			c0,0,0,0,0,0c0,0,0,0,0,0c0,0,0,0,0,0c0,0,0,0,0,0c0,0,0,0,0,0c0,0,0,0,0,0c0,0,0,0,0,0c0,0,0,0,0,0C17,8.1,17,8.1,17,8.1z
			 M16.2,7.1C16.2,7.1,16.2,7.1,16.2,7.1C16.2,7.1,16.2,7.1,16.2,7.1C16.2,7.1,16.2,7.1,16.2,7.1C16.2,7.1,16.2,7.1,16.2,7.1
			C16.2,7.1,16.2,7.1,16.2,7.1C16.1,7.1,16.1,7.1,16.2,7.1C16.1,7.1,16.1,7.1,16.2,7.1L16.2,7.1C16.1,7.1,16.1,7.1,16.2,7.1l1.1,0.7
			c0,0,0.1,0.1,0.1,0.1c0,0,0,0,0,0l0,0c0,0,0,0,0,0c0,0,0,0,0,0c0,0,0,0,0,0c0,0,0,0,0,0c0,0,0,0,0,0c0,0,0,0,0,0c0,0,0,0,0,0
			c0,0,0,0,0,0c0,0,0-0.1-0.1-0.1L16.2,7.1C16.2,7.1,16.2,7.1,16.2,7.1z M15,5.9l0.8,0.5c0,0,0.1,0.1,0.1,0.1v1.1c0,0,0,0,0,0l0,0
			c0,0,0,0,0,0c0,0,0,0,0,0c0,0,0,0,0,0c0,0,0,0,0,0c0,0,0,0,0,0c0,0,0,0,0,0c0,0,0,0,0,0c0,0,0,0,0,0V6.4c0,0,0-0.1-0.1-0.1L15,5.9
			C15.1,5.9,15,5.9,15,5.9C15,5.9,15,5.9,15,5.9C15,5.9,15,5.9,15,5.9C15,5.9,15,5.9,15,5.9C15,5.9,15,5.9,15,5.9
			C15,5.9,15,5.9,15,5.9C15,5.9,15,5.9,15,5.9C15,5.9,15,5.9,15,5.9C15,5.9,15,5.9,15,5.9C15,5.9,15,5.9,15,5.9z M16.2,6.6l0.3,0.2
			c0,0,0.1,0.1,0.1,0.1c0,0,0,0,0,0c0,0,0,0,0,0c0,0,0,0,0,0c0,0,0,0,0,0c0,0,0,0,0,0c0,0,0,0,0,0c0,0,0,0,0,0c0,0,0,0,0,0
			c0,0,0,0,0,0c0,0,0-0.1-0.1-0.1L16.2,6.6C16.2,6.5,16.2,6.5,16.2,6.6C16.2,6.5,16.2,6.6,16.2,6.6C16.2,6.6,16.2,6.6,16.2,6.6
			C16.2,6.6,16.2,6.6,16.2,6.6C16.2,6.6,16.2,6.6,16.2,6.6C16.2,6.6,16.2,6.6,16.2,6.6C16.1,6.6,16.1,6.6,16.2,6.6
			C16.1,6.6,16.1,6.6,16.2,6.6L16.2,6.6C16.1,6.6,16.1,6.6,16.2,6.6z M17,9.1L15.1,8c0,0,0,0,0,0c0,0,0,0,0,0c0,0,0,0,0,0
			c0,0,0,0,0,0c0,0,0,0,0,0c0,0,0,0,0,0c0,0,0,0,0,0c0,0,0,0,0,0c0,0,0,0,0,0L17,9.1c-0.1,0.1,0,0.1,0,0.2c0,0,0,0,0,0c0,0,0,0,0,0
			c0,0,0,0,0,0c0,0,0,0,0,0c0,0,0,0,0,0c0,0,0,0,0,0c0,0,0,0,0,0c0,0,0,0,0,0c0,0,0,0,0,0C17,9.1,17,9.1,17,9.1z M15,8.4
			C15,8.4,15,8.4,15,8.4C15,8.4,15,8.4,15,8.4C15,8.4,15,8.4,15,8.4C15,8.4,15,8.4,15,8.4C15,8.4,15,8.4,15,8.4
			C15,8.4,15,8.4,15,8.4C15,8.4,15,8.4,15,8.4L15,8.4C15,8.4,15,8.4,15,8.4l2.3,1.4c0,0,0.1,0.1,0.1,0.1c0,0,0,0,0,0l0,0
			c0,0,0,0,0,0c0,0,0,0,0,0c0,0,0,0,0,0c0,0,0,0,0,0c0,0,0,0,0,0c0,0,0,0,0,0c0,0,0,0,0,0c0,0,0,0,0,0c0,0,0-0.1-0.1-0.1L15,8.4
			C15.1,8.4,15,8.4,15,8.4z M17,10L15.1,9c0,0,0,0,0,0c0,0,0,0,0,0c0,0,0,0,0,0c0,0,0,0,0,0c0,0,0,0,0,0c0,0,0,0,0,0c0,0,0,0,0,0
			c0,0,0,0,0,0c0,0,0,0,0,0c0,0,0,0,0,0L17,10c-0.1,0.1,0,0.1,0,0.2c0,0,0,0,0,0h0c0,0,0,0,0,0c0,0,0,0,0,0c0,0,0,0,0,0c0,0,0,0,0,0
			c0,0,0,0,0,0c0,0,0,0,0,0c0,0,0,0,0,0c0,0,0,0,0,0C17,10.1,17,10.1,17,10z M15,7.4C15,7.4,15,7.4,15,7.4C15,7.4,15,7.4,15,7.4
			C15,7.4,15,7.4,15,7.4C15,7.4,15,7.4,15,7.4C15,7.4,15,7.4,15,7.4C15,7.4,15,7.4,15,7.4C15,7.5,15,7.5,15,7.4
			C15,7.5,15,7.5,15,7.4l2.3,1.4c0,0,0.1,0.1,0.1,0.1c0,0,0,0,0,0c0,0,0,0,0,0c0,0,0,0,0,0c0,0,0,0,0,0c0,0,0,0,0,0c0,0,0,0,0,0
			c0,0,0,0,0,0c0,0,0,0,0,0c0,0,0,0,0,0c0,0,0-0.1-0.1-0.1L15,7.4C15.1,7.4,15,7.4,15,7.4z"/>
		<path class="st4" d="M16.9,7.4C16.9,7.4,16.9,7.4,16.9,7.4L16.2,7c0,0-0.1-0.1-0.1-0.1l0,0c0,0,0-0.1,0.1,0l0.7,0.4
			C16.9,7.3,16.9,7.3,16.9,7.4L16.9,7.4z M16.5,6.9c0,0,0-0.1-0.1-0.1l-0.3-0.2c0,0-0.1,0-0.1,0l0,0c0,0,0,0.1,0.1,0.1L16.5,6.9
			C16.5,6.9,16.5,6.9,16.5,6.9L16.5,6.9z M17.4,7.9C17.4,7.9,17.3,8,17.4,7.9l-1.2-0.6c0,0-0.1-0.1-0.1-0.1l0,0c0,0,0-0.1,0.1,0
			l1.1,0.7C17.3,7.8,17.4,7.9,17.4,7.9L17.4,7.9z M16.9,8.2C16.9,8.3,16.9,8.3,16.9,8.2l-0.8-0.4c0,0-0.1-0.1-0.1-0.1l0,0
			c0,0,0-0.1,0.1,0l0.7,0.4C16.9,8.1,16.9,8.2,16.9,8.2L16.9,8.2z M16.5,7.7c0,0,0-0.1-0.1-0.1l-0.3-0.2c0,0-0.1,0-0.1,0l0,0
			c0,0,0,0.1,0.1,0.1L16.5,7.7C16.5,7.8,16.5,7.7,16.5,7.7L16.5,7.7z M17.4,10.8C17.4,10.9,17.3,10.9,17.4,10.8L15,9.6
			c0,0-0.1-0.1-0.1-0.1l0,0c0,0,0-0.1,0.1,0l2.3,1.3C17.3,10.8,17.4,10.8,17.4,10.8L17.4,10.8z M16.9,11.2
			C16.9,11.2,16.9,11.2,16.9,11.2l-1.9-1c0,0-0.1-0.1-0.1-0.1l0,0c0,0,0-0.1,0.1,0l1.9,1.1C16.9,11.1,16.9,11.1,16.9,11.2L16.9,11.2
			z M16.5,10.6c0,0,0-0.1-0.1-0.1L15,9.7c0,0-0.1,0-0.1,0l0,0c0,0,0,0.1,0.1,0.1L16.5,10.6C16.5,10.7,16.5,10.7,16.5,10.6L16.5,10.6
			z M17.4,8.9C17.4,8.9,17.3,8.9,17.4,8.9L15,7.6c0,0-0.1-0.1-0.1-0.1l0,0c0,0,0-0.1,0.1,0l2.3,1.3C17.3,8.8,17.4,8.9,17.4,8.9
			L17.4,8.9z M16.9,9.2C16.9,9.2,16.9,9.3,16.9,9.2l-1.9-1c0,0-0.1-0.1-0.1-0.1l0,0c0,0,0-0.1,0.1,0l1.9,1.1
			C16.9,9.1,16.9,9.2,16.9,9.2L16.9,9.2z M16.5,8.7c0,0,0-0.1-0.1-0.1L15,7.7c0,0-0.1,0-0.1,0l0,0c0,0,0,0.1,0.1,0.1L16.5,8.7
			C16.5,8.7,16.5,8.7,16.5,8.7L16.5,8.7z M17.4,9.9C17.4,9.9,17.3,9.9,17.4,9.9L15,8.6c0,0-0.1-0.1-0.1-0.1l0,0c0,0,0-0.1,0.1,0
			l2.3,1.3C17.3,9.8,17.4,9.8,17.4,9.9L17.4,9.9z M16.9,10.2C16.9,10.2,16.9,10.2,16.9,10.2l-1.9-1c0,0-0.1-0.1-0.1-0.1l0,0
			c0,0,0-0.1,0.1,0l1.9,1.1C16.9,10.1,16.9,10.1,16.9,10.2L16.9,10.2z M16.5,9.7c0,0,0-0.1-0.1-0.1L15,8.7c0,0-0.1,0-0.1,0l0,0
			c0,0,0,0.1,0.1,0.1L16.5,9.7C16.5,9.7,16.5,9.7,16.5,9.7L16.5,9.7z M15.8,6.4L15,5.9c0,0-0.1,0-0.1,0v1.1l0,0c0,0,0,0.1,0.1,0.1
			l0.8,0.5c0,0,0.1,0,0.1,0l0,0V6.5C15.9,6.5,15.8,6.4,15.8,6.4z"/>
	</g>
	<g>
		<g>
			<path class="st10" d="M11,13.2c0.1,0.1,0.1,0.2,0.1,0.3c0.1,0.1,0.2,0.2,0.2,0.3c0,0.1,0,0.1,0,0.2c0,0.1,0,0.1-0.1,0.1
				c0,0,0,0-0.1,0c0,0,0,0-0.1,0c0,0-0.1,0-0.1,0c0,0-0.1,0-0.1,0c0-0.1,0-0.1,0.1-0.1c0,0,0,0,0-0.1c0,0,0-0.1-0.1-0.1
				c-0.1-0.1-0.1-0.2-0.2-0.3c0-0.1,0-0.2-0.1-0.3C10.5,13.2,10.8,12.9,11,13.2z"/>
			<path class="st10" d="M9.9,12c0.1,0.4,0.2,0.5,0.4,0.9c0.1,0.2,0.4,0.5,0.5,0.7c0,0,0.1,0.1,0.1,0.2c0.1,0.1,0.2,0.3,0.2,0.2
				c0.1-0.2,0.1-0.3-0.1-0.6c-0.1-0.3-0.4-0.8-0.5-1c-0.1-0.2-0.1-0.4-0.2-0.5c0-0.2-0.1-0.1-0.3-0.1C9.9,11.7,9.8,11.8,9.9,12z"/>
			<path class="st3" d="M11,14.2c0.1-0.1-0.1-0.3-0.1-0.5c-0.1-0.1,0-0.3,0-0.4c0-0.1-0.1-0.2-0.5-0.7c-0.4-0.5-0.3-0.6-0.3-0.8
				c0,0,0-0.1,0-0.1c0.1,0,0.2-0.1,0.2,0.1c0,0.1,0,0.3,0.2,0.5c0.1,0.2,0.4,0.7,0.5,1c0,0.1,0.1,0.2,0.1,0.2c0,0,0,0,0,0
				c0.1,0.1,0.2,0.2,0.2,0.3c0,0.1,0,0.1,0,0.2c0,0.1,0,0.1-0.1,0.1c0,0,0,0-0.1,0C11.1,14.3,11.1,14.3,11,14.2
				C11,14.3,11,14.3,11,14.2c0,0.1-0.1,0.1-0.1,0c0,0,0,0,0,0C10.9,14.2,11,14.2,11,14.2z"/>
			<path class="st8" d="M10.4,9.3c0.2,0.2,0.2,0.3,0.2,0.6c0,0.3-0.2,1.5-0.2,1.8c0,0.3-0.1,0.4-0.3,0.3c-0.1,0-0.2-0.1-0.2-0.2
				c0-0.2,0-0.9,0-1.1c0-0.3,0.1-0.8,0.2-1.1C10.1,9.5,10.3,9.3,10.4,9.3z"/>
			<path class="st11" d="M10.4,9.3c0.2,0.2,0.2,0.3,0.2,0.6c0,0.3-0.2,1.5-0.2,1.8c0,0.3-0.1,0.4-0.3,0.3c-0.1,0-0.2-0.1-0.2-0.2
				c0-0.2,0-0.9,0-1.1c0-0.3,0.1-0.8,0.2-1.1C10.1,9.5,10.3,9.3,10.4,9.3z"/>
			<path class="st12" d="M10.4,9.8c0-0.3,0-0.4-0.1-0.5c0.1,0,0.1-0.1,0.2-0.1c0,0,0,0,0,0c0.2,0.2,0.2,0.3,0.1,0.6
				c0,0.3-0.2,1.5-0.2,1.8c0,0.3-0.1,0.4-0.3,0.3c0-0.2,0-0.4,0.1-0.6C10.2,11.1,10.3,10.3,10.4,9.8z"/>
		</g>
		<g>
			<path class="st0" d="M10.9,16.8c0,0,1.9-1.1,1.9-1.1c0.5-0.3,1.3-0.3,1.8,0c0.5,0.3,0.5,0.7,0,1c0,0-1.9,1.1-2,1.1l0,0l0,0
				c-0.5,0.2-1.2,0.2-1.7-0.1C10.4,17.6,10.4,17.1,10.9,16.8z"/>
			<path class="st1" d="M10.5,17.3v-2.6c0-0.2,0.1-0.4,0.4-0.5c0.5-0.3,1.3-0.3,1.8,0c0.2,0.1,0.4,0.3,0.4,0.5h0v0l0,0v2.6l0,0
				c0,0.2-0.1,0.4-0.4,0.5c-0.5,0.3-1.3,0.3-1.8,0C10.7,17.7,10.5,17.5,10.5,17.3L10.5,17.3L10.5,17.3
				C10.5,17.3,10.5,17.3,10.5,17.3z"/>
			<path class="st13" d="M10.9,14.2c0.5-0.3,1.3-0.3,1.8,0c0.2,0.1,0.4,0.3,0.4,0.5h0v0v0.5c-0.3,0.2-0.7,0.4-1.2,0.4
				c-0.5,0-0.9-0.1-1.2-0.4v-0.5C10.5,14.5,10.7,14.3,10.9,14.2z"/>
			<path class="st13" d="M11.9,14c0.3,0,0.5,0.1,0.7,0.2c0.2,0.1,0.4,0.3,0.4,0.5h0v0v2.6c0,0.2-0.1,0.4-0.4,0.5
				C12.5,18,12.2,18,11.9,18V14z"/>
			<ellipse class="st1" cx="11.8" cy="14.1" rx="1.7" ry="1.1"/>
			<path class="st13" d="M11.3,13.1C11.3,13.1,11.3,13,11.3,13.1c0.1-0.1,0.3-0.1,0.4-0.1c0.9,0,1.7,0.5,1.7,1.1
				c0,0.6-0.7,1.1-1.5,1.1c0-0.1,0.1-0.2,0.1-0.3c0-0.1,0-0.2-0.1-0.3c0,0,0,0,0,0c-0.1,0-0.1,0-0.2,0c-0.8,0-1.5-0.3-1.5-0.8
				C10.3,13.5,10.7,13.2,11.3,13.1z"/>
		</g>
		<g>
			<path class="st14" d="M10.4,12.7l0.3-0.7l0.7,0.7l0.3-0.1v1.6c-0.1,0-0.2,0-0.3,0l0,0C10.6,14.3,10,13.4,10.4,12.7z"/>
			<g>
				<path class="st10" d="M15.5,14.7c0,0.2,0.1,0.4,0.2,0.6c0.2,0.5,0.4,0.8,0.6,0.8c0.2,0,0.5,0.1,0.3,0.3
					c-0.2,0.2-0.3,0.2-0.6,0.1c-0.3-0.1-0.4-0.5-0.8-0.5c-0.2,0-0.3-0.1-0.2-0.3c0.1-0.2,0.1-0.3,0.1-0.8c0,0,0,0,0,0
					C15.1,15,15.4,14.8,15.5,14.7z"/>
				<path class="st15" d="M14.9,15.9c0-0.1,0-0.2,0.1-0.3c0.3,0,0.6,0.3,0.8,0.5l0,0.1l0,0c0,0,0,0,0,0c0.1,0.2,0.3,0.3,0.4,0.2
					c0.1-0.1,0.1-0.1-0.1-0.2c0,0,0,0,0,0c0.2,0,0.5,0.1,0.3,0.3c-0.2,0.2-0.3,0.2-0.6,0.1c-0.3-0.1-0.4-0.5-0.8-0.5
					C15,16,14.9,16,14.9,15.9L14.9,15.9z"/>
				<path class="st3" d="M15.5,14.7c0,0.2,0.1,0.4,0.2,0.6c0.2,0.5,0.4,0.8,0.6,0.8c0.2,0,0.5,0.1,0.3,0.3c-0.2,0.2-0.3,0.2-0.6,0.1
					c-0.3-0.1-0.4-0.5-0.8-0.5c-0.1,0-0.2-0.1-0.2-0.2c0,0,0,0,0,0c0.1,0,0.3,0,0.4,0.1c0.2,0,0.1-0.3,0.1-0.7c0-0.1,0-0.2,0-0.4
					C15.4,14.8,15.5,14.8,15.5,14.7z"/>
				<path class="st14" d="M15.7,16.2c0.2,0.2,0.4,0.5,0.7,0.3c0.1-0.1,0.1-0.1,0.2-0.2c0,0,0,0.1-0.1,0.1c-0.2,0.2-0.3,0.2-0.6,0.1
					c-0.3-0.1-0.4-0.5-0.8-0.5C15,16,15,16,14.9,15.9C15.1,15.9,15.5,16,15.7,16.2z"/>
				<path class="st3" d="M15.7,16.2c0.2,0.2,0.4,0.5,0.7,0.3c0.1-0.1,0.1-0.1,0.2-0.2c0,0,0,0.1-0.1,0.1c-0.2,0.2-0.3,0.2-0.6,0.1
					c-0.3-0.1-0.4-0.5-0.8-0.5C15,16,15,16,14.9,15.9C15.1,15.9,15.5,16,15.7,16.2z"/>
				<path class="st14" d="M15.1,16c0.1,0,0.2,0,0.1,0.1c0,0.1,0.1,0.7,0.1,0.7c0,0-0.1,0-0.1,0C15.2,16.8,15.1,16.2,15.1,16
					C14.9,16,15,15.9,15.1,16z"/>
			</g>
			<path class="st14" d="M11.5,12.2l-0.3,0.7c-0.3,0.7,0.2,1.5,1,1.5l0,0c0.2,0,0.4,0,0.5-0.1l1.5-0.7c0,0,0.1,0,0.1,0l0,0.2
				c0.1,0.3,0.2,0.6,0.4,0.8l0.2,0.2C15,15,15.2,15,15.3,15c0.1,0,0.2-0.2,0.2-0.3l-0.4-1.8c-0.1-0.5-0.6-0.8-1-0.6l-2,0.6
				L11.5,12.2z"/>
			<path class="st7" d="M10.3,13.1c0,0.8,1.3,1,1.6,0.7c0.1-0.1,0.2-0.3,0.2-0.4c0,0,0-0.1,0-0.1c0,0,0,0,0,0c0,0,0,0,0-0.1
				c0,0,0-0.1,0-0.1c0,0,0,0,0,0c0,0,0-0.1,0-0.1c0-0.1,0-0.1,0-0.2l0.2,0.2l2-0.6c0.5-0.1,0.9,0.1,1,0.6l0.4,1.8
				c0,0.1-0.1,0.3-0.2,0.3c0,0,0,0-0.1,0l-0.4-0.5c-0.2-0.2-0.3-0.5-0.4-0.8l0-0.2c0,0-0.1-0.1-0.1,0l-0.2,0.1l0,0c0,0,0,0,0,0
				l-1.5,0.7c-0.2,0.1-0.4,0.1-0.5,0.1l0,0c-0.3,0-0.5-0.1-0.7-0.2c0,0-0.1,0-0.1,0l0,0C10.7,14.3,10.2,13.7,10.3,13.1z"/>
			<g>
				<path class="st10" d="M12,9.1c-0.1,0-0.2,0.4,0,0.5c0.2,0.1-1.1,0-1-0.1c0.1-0.1,0.1-0.2,0.2-0.2c0.1,0,0.4-0.3,0.3-0.6
					c-0.2-0.4,0.4-0.3,0.5-0.2c0.1,0.1,0.3,0.2,0.2,0.3C12.1,8.9,12.1,9.1,12,9.1z"/>
				<path class="st7" d="M12,9.1c-0.1,0-0.2,0.4,0,0.5c0.2,0.1-1.1,0-1-0.1c0.1-0.1,0.1-0.2,0.2-0.2c0.1,0,0.4-0.3,0.3-0.6
					c-0.2-0.4,0.4-0.3,0.5-0.2c0.1,0.1,0.3,0.2,0.2,0.3C12.1,8.9,12.1,9.1,12,9.1z"/>
				<path class="st10" d="M12.5,7.9c0-0.1-0.2-0.2-0.4-0.1C12,8,11.9,8.1,11.7,8.3c0,0,0,0-0.1,0.1c0,0,0,0,0-0.1
					c0-0.1-0.1-0.2-0.2-0.2c-0.1,0-0.1,0.1-0.1,0.3c0,0.1,0,0.1,0.1,0.2c0.1,0.2,0.2,0.3,0.4,0.5c0.2,0.1,0.5,0.2,0.5,0
					c0.1-0.1,0.2-0.2,0.2-0.4c0-0.1,0-0.4,0-0.5C12.5,8,12.5,7.9,12.5,7.9z"/>
				<path class="st7" d="M12.5,7.9c0-0.1-0.2-0.2-0.4-0.1C12,8,11.9,8.1,11.7,8.3c0,0,0,0-0.1,0.1c0,0,0,0,0-0.1
					c0-0.1-0.1-0.2-0.2-0.2c-0.1,0-0.1,0.1-0.1,0.3c0,0.1,0,0.1,0.1,0.2c0.1,0.2,0.2,0.3,0.4,0.5c0.2,0.1,0.5,0.2,0.5,0
					c0.1-0.1,0.2-0.2,0.2-0.4c0-0.1,0-0.4,0-0.5C12.5,8,12.5,7.9,12.5,7.9z"/>
				<path class="st7" d="M12,9c0.1,0,0.1,0.1,0.3-0.2c0.2-0.2,0.1-0.5,0.2-0.7c0-0.2,0-0.2-0.1-0.4c0,0,0,0,0,0
					c0.1,0,0.2,0.1,0.2,0.2c0,0.1,0,0.2,0,0.2c0,0.1,0,0.4,0,0.5c0,0.2-0.2,0.3-0.2,0.4c0,0.1-0.2,0.1-0.3,0.1c0,0,0,0,0,0
					c-0.1,0-0.2,0.4,0,0.5c0.1,0,0,0.1-0.2,0c0-0.1,0-0.3,0-0.3C11.8,9.1,11.8,9,12,9z"/>
				<path class="st11" d="M11,9.2c0.4,0,0.7,0.1,1,0.3c0.2,0.1,0.4,0.3,0.6,0.4c0,0,0,0,0,0c0,0,0,0,0,0c0,0,0.1,0,0.1,0.1
					c0,0,0.1,0.1,0.3,0.1c0.1,0,0.1,0.1-0.1,0.2c0.1,0.4,0.3,0.5,0.2,0.9c-0.1,0.3-0.3,0.2-0.4,0.6c-0.1,0.3-0.2,1.4-0.2,1.4
					c0,0-0.7,0.2-1.3-0.1c0,0,0,0,0,0c-0.4-0.2-0.6-0.3-0.6-0.5c0.1-0.1,0.1-0.2,0.1-0.3c0-0.5,0-0.5-0.1-1c0,0,0,0,0,0
					c0,0,0,0,0-0.1c0-0.1-0.1-0.2-0.1-0.2c-0.2-0.5-0.2-1-0.2-1.4C10.2,9.2,10.8,9.2,11,9.2z"/>
				<path class="st11" d="M13.6,11c-0.3,0-0.9,0-1.1,0.8c-0.1,0.8-0.9,0.2-0.6-0.5c0.3-0.7,0.2-1,0.7-0.9c0.5,0.1,1.3,0.1,1.4,0.3
					C14.1,10.9,13.8,11,13.6,11z"/>
				<path class="st11" d="M13.4,10.3c-0.4-0.1-0.8-0.3-1.4-0.7c-0.6-0.4-0.9,0.2-0.8,0.5c0.2,0.3,1.4,0.6,1.8,0.5
					C13.5,10.6,14.2,10.5,13.4,10.3z"/>
				<path class="st12" d="M10.2,9.5c0.1-0.2,0.3-0.2,0.5-0.3c0,0,0,0,0,0c0,0,0,0,0.1,0c0,0,0,0,0,0c0,0,0,0,0,0c0,0,0,0,0,0
					c0,0,0,0,0,0c0,0,0,0,0,0c0,0,0,0,0,0c0,0,0,0,0,0c0,0,0,0,0,0c0,0,0,0,0,0c0.4,0,0.7,0.1,1,0.3c0,0,0.1,0,0.1,0.1
					c0,0,0,0,0.1,0c0,0,0.1,0,0.1,0c0.1,0.1,0.2,0.1,0.3,0.2c0.3,0.2,0.4,0.3,0.6,0.5c-0.1,0-0.2,0-0.2,0c0,0,0,0.1,0,0.1
					c0.5,0.1,1.1,0.1,1.2,0.3c0.1,0.2-0.2,0.3-0.4,0.3c-0.1,0-0.4,0-0.6,0.1c0,0,0,0,0,0c0,0,0,0,0,0c0,0,0,0,0,0.1
					c-0.1,0.3-0.3,0.2-0.4,0.6c0,0.1,0,0.1,0,0.2c-0.1,0.4-0.1,1.2-0.2,1.2c0,0,0,0,0,0c0,0,0,0,0,0c0,0,0,0,0,0c0,0,0,0,0,0
					c0,0,0,0,0,0c0,0,0,0,0,0c0,0-0.1,0-0.2,0c0,0,0,0,0,0c0,0-0.1,0-0.1,0c0,0,0,0,0,0c0,0-0.1,0-0.1,0c0,0,0,0,0,0
					c0,0-0.1,0-0.1,0c0,0,0,0,0,0v0c0-0.4,0.2-0.4,0.2-0.9c0-0.4,0-0.8,0-1.1c0-0.4,0.1-0.5,0.3-0.8c0,0,0-0.1,0-0.1c0,0,0,0,0,0
					c0.1-0.1,0.1-0.2,0-0.3c0,0,0,0,0,0c0,0,0,0,0,0c0,0,0,0-0.1,0c0,0,0,0,0,0c0,0,0,0-0.1-0.1c-0.1-0.1-0.3-0.2-0.4-0.3
					c-0.3-0.2-0.6-0.3-1-0.3C10.7,9.4,10.4,9.4,10.2,9.5C10.2,9.5,10.2,9.5,10.2,9.5z"/>
				<path class="st14" d="M10.9,7.3c0-0.1,0.1-0.1,0.1-0.1c0,0,0,0,0,0c0,0,0,0,0,0c0,0,0,0,0,0l0,0C11.3,7,11.5,7,11.7,7
					c0.5,0,0.8,0.4,0.8,0.8c0,0.1,0,0.2-0.1,0.2c0,0,0,0,0,0c-0.2,0.4-0.2,0.3-0.3,0.6c-0.2,0.9,0.3,0.8,0.3,1.2
					c-0.1-0.1-0.2-0.2-0.4-0.3c0,0,0,0,0,0c-0.2-0.1-0.3,0-0.6-0.1c-0.3-0.1-0.6-0.2-0.8-0.8C10.6,8.3,10.6,7.7,10.9,7.3z"/>
				<path class="st7" d="M12.6,7.8c0,0.1,0,0.2-0.1,0.2c0,0,0,0,0,0c-0.2,0.4-0.2,0.3-0.3,0.6c-0.2,0.9,0.3,0.8,0.3,1.2
					c-0.1-0.1-0.2-0.2-0.4-0.3c0,0,0,0,0,0c-0.2-0.1-0.3,0-0.6-0.1c-0.3-0.1-0.6-0.2-0.8-0.8c0,0,0,0,0,0c0.2,0.5,0.9,0.7,0.9,0.3
					c0-0.8,0.3-1.1,0.5-1.4c0.1-0.3-0.4-0.4-0.7-0.5c0.1,0,0.2,0,0.3,0C12.2,7,12.6,7.4,12.6,7.8z"/>
				<g>
					<path class="st10" d="M15.6,10.4c0.1,0,0.4-0.3,0.5-0.3c0.1,0,0.2,0,0.2-0.1c0.1-0.1,0.1,0,0.1,0c0,0,0.1,0,0.1,0
						c0,0,0.1,0,0.1-0.1c0,0,0-0.1,0.1-0.1c0,0,0-0.1,0-0.1c0,0,0-0.1,0-0.1c-0.1-0.1-0.1-0.1-0.1-0.1s0,0,0.1-0.1
						c0,0,0.1-0.1,0.1-0.1c0.1,0,0.1-0.1,0.1-0.1c0,0-0.2,0-0.2,0.1c-0.1,0-0.2,0.1-0.3,0.1c-0.1,0-0.1,0.1-0.2,0.1
						c-0.1,0.1-0.3,0.2-0.4,0.3c-0.2,0.1-0.3,0.2-0.2,0.3C15.5,10.2,15.5,10.4,15.6,10.4z"/>
					<path class="st3" d="M16,10.1c0.1,0,0.2,0,0.2-0.1c0.1-0.1,0.1,0,0.1,0c0,0,0.1,0,0.1,0c0,0,0.1,0,0.1-0.1c0,0,0-0.1,0.1-0.1
						c0,0,0-0.1,0-0.1c0,0,0-0.1,0-0.1c-0.1-0.1-0.1-0.1-0.1-0.1s0,0,0.1-0.1c0,0,0.1-0.1,0.1-0.1c0,0,0,0,0,0c0,0,0,0,0,0
						c0,0,0,0,0,0c0,0,0,0,0,0c0,0,0,0,0-0.1c0,0,0,0,0,0c-0.1,0.1-0.4,0.3-0.4,0.3c0,0.1,0.1,0.1,0.1,0.2c0,0.1-0.1,0.1-0.2,0.1
						c-0.1,0-0.2,0-0.8,0.3c0,0,0,0.1,0,0.2c0,0,0,0,0,0C15.6,10.3,15.9,10.1,16,10.1z"/>
				</g>
				<path class="st10" d="M14.4,10.6C14.4,10.5,14.4,10.5,14.4,10.6C14.4,10.5,14.4,10.5,14.4,10.6l1.2-0.7l0,0.5L14.8,11
					c-0.1,0-0.1,0.1-0.2,0.1c0,0,0-0.1,0-0.1C14.6,10.8,14.6,10.6,14.4,10.6z"/>
				<path class="st11" d="M12.4,10.3c0.1-0.2,0.2-0.3,0.4-0.2l1.5,0.4c0,0,0.1,0,0.1,0c0,0,0,0,0.1,0c0.1,0.1,0.2,0.3,0.2,0.4
					c0,0,0,0.1,0,0.1c-0.1,0-0.2,0-0.4,0l-1.6-0.3C12.4,10.8,12.3,10.6,12.4,10.3z"/>
				<path class="st3" d="M14.8,10.6c-0.1,0.1-0.2,0-0.2,0l0,0c0,0,0.1,0.1,0.1,0.1c0,0,0,0,0,0c0,0,0,0,0,0.1c0,0,0,0,0,0
					c0,0,0,0,0,0.1c0,0,0,0.1,0,0.1c0.1,0,0.1-0.1,0.2-0.1l0.8-0.6l0-0.2C15.6,10.1,14.8,10.6,14.8,10.6z"/>
				<path class="st12" d="M12.8,10.1c0.2,0.2,1.5,0.6,1.8,0.6c0.1,0.1,0.1,0.2,0.1,0.3c0,0,0,0.1,0,0.1c-0.1,0-0.2,0-0.4,0l-1.6-0.3
					c-0.2,0-0.4-0.3-0.3-0.5C12.4,10.2,12.6,10.1,12.8,10.1z"/>
			</g>
		</g>
	</g>
	<g>
		<path class="st0" d="M17.9,23.9c-0.4-0.5-1.1-0.7-0.9-1c0.1-0.3,0.9-0.7,1.6-0.8c0.7-0.1,1,0.4,1.6,0.3c0.8-0.1,1.3,0.5,1.7,0.8
			c0.8,0.6-0.6,1.6-1.4,1.3C19.6,24.3,18.5,24.7,17.9,23.9z"/>
		<g>
			<g>
				<path class="st14" d="M18.1,23.6L18.1,23.6c0.2,0,0.3-0.1,0.3-0.3l0.1-1c0-0.2-0.1-0.3-0.3-0.3c-0.2,0-0.3,0.1-0.3,0.3l-0.1,1
					C17.8,23.5,17.9,23.6,18.1,23.6z"/>
				<path class="st3" d="M18.5,22.4l-0.1,0.9c0,0.1-0.1,0.3-0.3,0.3l0.1-0.9C18.2,22.5,18.3,22.4,18.5,22.4z"/>
				<path class="st3" d="M18.1,23.5c0.1,0,0.3-0.1,0.3-0.2C18.4,23.5,18.2,23.6,18.1,23.5c-0.2,0.1-0.3-0.1-0.3-0.2
					C17.8,23.4,17.9,23.5,18.1,23.5z"/>
				<path class="st3" d="M18.2,22c0.2,0,0.3,0.2,0.3,0.3L18.4,23c-0.1,0.1-0.2,0.1-0.3,0.1c-0.1,0-0.3-0.1-0.3-0.2l0.1-0.6
					C17.9,22.1,18,22,18.2,22z"/>
				<g>
					<path class="st14" d="M19.8,23.2c0,0-0.3,0.6-0.1,0.8c0.2,0.1,0.5,0,0.7-0.1c0.3-0.1,0.7-0.2,0.8-0.3c0.1,0,0.3-0.1,0.3-0.3
						c0-0.2-0.4-0.3-0.8-0.2C20.2,23.2,19.8,23.2,19.8,23.2z"/>
					<path class="st3" d="M20.5,23.2l0,0.2c0,0.2-0.2,0.3-0.3,0.4c-0.2,0-0.3-0.1-0.4-0.2c0-0.1,0.1-0.2,0.1-0.2
						S20.1,23.2,20.5,23.2z"/>
					<path class="st3" d="M20.2,23.3c0,0,0.1-0.1,0.1-0.1c0.1,0,0.2,0,0.4,0c0.5-0.1,0.8,0,0.8,0.2c0,0.2-0.2,0.3-0.3,0.3
						c-0.1,0-0.5,0.2-0.8,0.3c-0.1,0-0.2,0.1-0.4,0.1C19.9,23.9,20.2,23.3,20.2,23.3z"/>
					<path class="st3" d="M19.7,24c0.2,0.1,0.5,0,0.7-0.1c0.3-0.1,0.7-0.2,0.8-0.3c0.1,0,0.2-0.1,0.3-0.3c0,0.2-0.2,0.3-0.3,0.3
						c-0.1,0-0.5,0.2-0.8,0.3C20.1,24.1,19.9,24.2,19.7,24c-0.1,0-0.1-0.1-0.1-0.2C19.6,23.8,19.6,23.9,19.7,24z"/>
				</g>
				<path class="st14" d="M18.7,15.3c0.5-0.5,1.4,0.3,1,0.9c0,0,0,0,0,0.1l0.3,0.1l-1.4,6.4c0,0.2-0.2,0.3-0.4,0.3
					c-0.2,0-0.4-0.2-0.4-0.5l0.4-5.6v0c0,0,0-0.1,0-0.1C18.2,16.5,18.3,15.8,18.7,15.3z"/>
				<path class="st7" d="M19,17.7c0-0.1-0.1-0.3,0-0.5c0-0.2,0.1-0.4,0.2-0.6l0.1-0.5l0.6,0.2l0,0.1c0.4,0.1,0.7,0.5,0.7,1.1
					c0,0.6-0.5,1-0.9,0.9c-0.1,0-0.1,0-0.2-0.1l-1,4.4c0,0.2-0.2,0.3-0.4,0.3c0,0,0,0,0,0L19,17.7z"/>
				<path class="st14" d="M19,16.9c0-0.2,0.1-0.4,0.2-0.5l0-0.4l0.4,0c0.1,0,0.2-0.1,0.3-0.1c0.1,0,0.2,0.1,0.3,0.1l0.6,0.1
					l-0.4,7.1c0,0.2-0.2,0.3-0.3,0.4c-0.2,0-0.4-0.2-0.5-0.4l-0.4-5.5C19,17.6,18.9,17.3,19,16.9z"/>
				<path class="st7" d="M20.1,23.5l0.1-7.1l-1.1-0.1l0-0.4l1.7,0.2l-0.4,7.1C20.4,23.4,20.3,23.6,20.1,23.5
					C20.1,23.6,20.1,23.6,20.1,23.5C20.1,23.6,20.1,23.5,20.1,23.5z"/>
			</g>
			<path class="st3" d="M19.4,16c0.4-0.4,0.7,0.3,1.3,0.5c0.1,0,0.1,0.1,0.2,0.1l0,0.1c-0.1,0.2-0.4,0.3-0.7,0.3
				c-0.5-0.1-1.6-0.7-1.8-1.2l0.1-0.2L19.4,16z"/>
			<path class="st2" d="M20.2,11.9c0.1,0.3-0.2,0.7-0.4,1.3c-0.2,0.6-0.4,1.1-0.6,1.2c-0.4,0.3-0.5,0.2-0.6-0.2
				c-0.1-0.7,0.3-2.3,1.1-2.5C20,11.7,20.1,11.7,20.2,11.9z"/>
			<path class="st12" d="M20.2,11.9c0.1,0.3-0.2,0.7-0.4,1.3c-0.2,0.6-0.4,1.1-0.6,1.2c-0.4,0.3-0.5,0.2-0.6-0.2
				c-0.1-0.7,0.3-2.3,1.1-2.5C20,11.7,20.1,11.7,20.2,11.9z"/>
			<g>
				<path class="st10" d="M21.6,11.6c-0.1,0.2-0.3,0.8-0.1,1c0.2,0.2-0.4,0.1-0.6,0c-0.2-0.1-1-0.5-0.8-0.7c0.2-0.1,0.1-0.2,0.2-0.2
					c0.1,0,0.4-0.1,0.6-0.8C21.2,10.3,21.8,11.4,21.6,11.6z"/>
				<path class="st10" d="M22,10.1c0.3,0.1,0.3,0.1,0.4,0.3c0,0.1,0,0.3-0.1,0.4c-0.1,0.2-0.1,0.4-0.1,0.5c-0.1,0.3-0.4,0.9-1.1,0.1
					c-0.3-0.4,0.3-0.3,0.6-0.6C21.9,10.7,21.8,10.1,22,10.1z"/>
				<path class="st14" d="M21.9,11.2c0,0.1,0,0.6,0.2,0.3c0.2-0.2,0.2-0.1,0.1-0.1c0,0.1,0,0-0.1,0.1c0,0.1,0,0.1-0.1,0.1
					c0,0.1,0,0.4-0.1,0.4c-0.1,0-0.4-0.1-0.3-0.3C21.6,11.7,21.7,11.4,21.9,11.2c-0.1-0.2,0-0.3,0-0.2C21.9,11,21.9,11.1,21.9,11.2z
					"/>
				<path class="st7" d="M20.9,12.6C20.9,12.6,20.9,12.6,20.9,12.6C20.9,12.6,20.8,12.6,20.9,12.6C20.8,12.6,20.8,12.6,20.9,12.6
					C20.8,12.6,20.8,12.6,20.9,12.6C20.8,12.6,20.8,12.6,20.9,12.6c-0.1-0.1-0.1-0.1-0.1-0.1c0,0,0,0,0,0c0,0,0,0-0.1,0c0,0,0,0,0,0
					c0,0,0,0-0.1,0c0,0,0,0,0,0c0,0,0,0-0.1,0c0.4-0.2,0.6-0.7,0.7-1.1c0-0.1,0.1-0.3,0.1-0.4c0,0,0,0,0.1,0.1c0,0,0,0,0,0
					c0,0,0,0.1,0.1,0.1c0,0,0,0,0,0l0,0l0,0c0,0,0,0,0.1,0c0,0,0.1,0,0.1-0.1c0.3-0.3,0.2-0.9,0.3-0.8c0.3,0.1,0.3,0.1,0.4,0.3
					c0,0.1,0,0.3-0.1,0.4c-0.1,0.2-0.1,0.3-0.1,0.5c0,0,0,0,0,0.1c0,0.1,0,0-0.1,0.1c0,0,0,0,0,0c0,0.1,0,0.1-0.1,0.1
					c0,0.1,0,0.4-0.1,0.4c-0.1,0-0.3-0.1-0.4-0.2c0,0,0,0,0,0c0,0,0,0,0,0l0,0c-0.1,0.2-0.1,0.4-0.1,0.5c0,0,0,0,0,0c0,0,0,0,0,0
					c0,0.1,0,0.1,0.1,0.2C21.8,12.8,21.2,12.7,20.9,12.6C20.9,12.6,20.9,12.6,20.9,12.6C20.9,12.6,20.9,12.6,20.9,12.6
					C20.9,12.6,20.9,12.6,20.9,12.6z"/>
				<path class="st7" d="M21.4,11.7c0.1-0.2,0.3,0.1,0.5-0.2c0.2-0.3,0.1-0.5,0.2-0.7c0.1-0.2,0.1-0.3,0-0.6c0,0,0-0.1-0.1-0.2
					c0,0,0,0,0,0c0,0,0,0,0,0c0,0,0,0,0,0c0,0,0,0,0,0c0,0,0,0,0,0c0,0,0,0,0,0c0,0,0,0,0,0c0,0,0,0,0,0c0,0,0,0,0,0c0,0,0,0,0,0
					c0,0,0,0,0,0c0,0,0,0,0,0c0,0,0,0,0,0.1c0,0,0,0,0,0c0,0,0,0,0,0.1c0,0.1,0,0.3-0.1,0.4c0,0,0,0,0,0c-0.1,0.2,0,0.3-0.1,0.5
					c0,0,0,0,0,0.1c0,0.1,0,0-0.1,0.1c0,0,0,0,0,0c0,0.1,0,0.1-0.1,0.1c0,0.1,0,0.4-0.1,0.4c-0.1,0-0.3-0.1-0.4-0.2c0,0,0,0,0,0
					c0,0,0,0,0,0l0,0c-0.1,0.2-0.1,0.4-0.1,0.5c0,0,0,0,0,0c0,0,0,0,0,0c0,0.1,0,0.1,0.1,0.2c0,0,0,0,0,0c0,0,0,0,0,0c0,0,0,0,0,0
					c0,0,0,0,0,0c0,0,0,0,0,0c0,0,0,0,0,0c0,0,0,0,0,0c0,0,0,0,0,0c0,0,0,0,0,0c0,0,0,0,0,0c0,0,0,0,0,0c0,0,0,0,0,0c0,0,0,0,0,0
					c0,0,0,0,0,0c0,0,0,0,0,0c0,0,0,0,0,0c0,0,0,0,0,0c0,0,0,0,0,0c0,0,0,0,0,0c0,0,0,0-0.1,0c0,0,0,0,0,0c0,0,0,0,0,0c0,0,0,0,0,0
					c0,0,0,0,0,0C21.2,12.3,21.4,11.9,21.4,11.7z"/>
				<path class="st14" d="M21.9,9.9c-0.5-0.2-1-0.2-1.2,0.5c-0.2,0.6,0.1,0.8,0.1,0.9c-0.1,0.3,0.4,0.4,0.6,0.2
					c0.1-0.2,0.2-0.4,0.3-0.4c0.3,0,0.1,0.2,0.1,0.2c0.1,0,0-0.2,0.2-0.3c0.2-0.1,0.2-0.4,0.2-0.4c0,0,0.1-0.1,0.1-0.1
					C22.5,10.4,22.4,10,21.9,9.9z"/>
				<path class="st7" d="M22.3,10.5c-0.1,0-0.1,0-0.1,0.1c0,0.1,0,0.3-0.2,0.4c-0.2,0.1-0.1,0.3-0.2,0.3c-0.1,0,0.1-0.2-0.1-0.2
					c-0.1,0-0.2,0.3-0.3,0.4c-0.1,0.2-0.6,0.1-0.6-0.2c0-0.1-0.1-0.2-0.1-0.5c0,0.4,0.5,0.6,0.7,0.3c0.4-0.6,0.1-0.6,0.7-0.9
					c0.2-0.1-0.1-0.3-0.4-0.5c0.1,0,0.2,0,0.3,0.1C22.4,10,22.5,10.4,22.3,10.5z"/>
			</g>
			<path class="st2" d="M19.2,12.4c0.1-0.4,0.3-0.6,0.5-0.6c0.5-0.2,1.4,0.4,1.7,0.8c0.3,0.3,0.6,0.6,0.7,0.8l-0.8,2.1L21,16.5
				c-0.1,0.3-0.4,0.4-0.7,0.4c-0.6-0.1-2-0.9-1.8-1.5c0.2-0.4,0.6-0.9,0.6-1.7C19,13.1,19.1,12.6,19.2,12.4z"/>
			<path class="st2" d="M19.2,12.4c0.1-0.4,0.3-0.6,0.5-0.6c0.5-0.2,1.4,0.4,1.7,0.8c0.1,0.1,0.2,0.2,0.4,0.3c0,0,0,0,0,0
				c0.2,0.2,0.4,0.4,0.7,0.6c0.7,0.4,0.3,1.3-0.1,1.1c-0.4-0.2-0.7,0.2-0.9,0.6c-0.1,0.3-0.3,0.6-0.4,0.9c-0.1,0.2-0.2,0.6-0.3,0.7
				c-0.1,0.2-0.4,0.3-0.7,0.3c-0.6-0.1-2-0.9-1.8-1.5c0.2-0.4,0.6-0.9,0.6-1.7C19,13.1,19.1,12.6,19.2,12.4z"/>
			<path class="st12" d="M19.7,11.7c0.5-0.2,1.4,0.4,1.7,0.8c0.1,0.1,0.2,0.2,0.4,0.3c0,0,0,0,0,0c0.2,0.2,0.4,0.4,0.7,0.6
				c0.7,0.4,0.3,1.3-0.1,1.1c-0.4-0.2-0.7,0.2-0.9,0.6c-0.1,0.3-0.3,0.6-0.4,0.9c-0.1,0.2-0.2,0.6-0.3,0.7c-0.1,0.2-0.4,0.3-0.7,0.3
				c0,0-0.1,0-0.1,0l0,0c0,0,0,0,0,0c0.2-0.4,0.6-0.9,0.6-1.7c0-0.4,0.3-1.2,0.6-1.6v0c0,0,0,0,0,0c0-0.1,0.1-0.1,0.1-0.1
				c0.2-0.2,0.3-0.3,0.2-0.5c-0.1-0.1-0.3-0.2-0.4-0.4c-0.4-0.3-1.2-0.9-1.7-0.8C19.6,11.8,19.6,11.8,19.7,11.7z"/>
			<path class="st1" d="M20.6,11.6c-0.1,0.1-0.2,0.2-0.3,0.2c-0.1,0.3,0.7,0.8,1.2,0.8c-0.1-0.1-0.1-0.3-0.1-0.5
				C21,12.1,20.6,11.7,20.6,11.6z"/>
			<g>
				<g>
					<path class="st10" d="M24.3,13.5c0.2-0.1,0.4-0.2,0.5-0.3c0.1-0.2,0-0.1,0.1-0.2c0-0.1,0.1-0.2,0.2-0.2
						c0.1-0.1,0.2-0.2,0.2-0.2c0.1,0,0,0.1,0,0.1c0,0-0.1,0.2-0.1,0.2c0,0,0.1,0,0.2,0c0.1,0,0.1,0,0.2-0.1c0.1,0,0.3-0.1,0.4-0.1
						c0,0,0,0.1,0,0.1s0.1,0,0,0.1c-0.1,0.1-0.1,0.2-0.1,0.2s0,0,0,0.1c-0.1,0.1-0.1,0.1-0.1,0.1s0,0-0.1,0.2
						c-0.2,0.1-0.5,0.2-0.6,0.3c-0.1,0.1-0.2,0.2-0.3,0.2C24.5,14,24.1,13.6,24.3,13.5z"/>
					<path class="st3" d="M24.6,14c0.1,0,0.2-0.1,0.3-0.2c0.1-0.1,0.5-0.2,0.6-0.3c0.2-0.1,0.1-0.2,0.1-0.2s0,0,0.1-0.1
						c0.1-0.1,0-0.1,0-0.1s0.1-0.1,0.1-0.2c0.1-0.1,0-0.1,0-0.1s0,0,0,0c-0.1,0.1-0.4,0.3-0.4,0.4c-0.1,0.1-0.4,0.2-0.6,0.3
						c-0.1,0.1-0.3,0.1-0.5,0.2C24.4,13.9,24.5,14,24.6,14z"/>
				</g>
				<path class="st2" d="M21.4,13.3L21.4,13.3c-0.1,0.2,0,0.5,0.2,0.6l1.3,0.7c0.3,0.2,0.6,0.1,0.8,0l1-0.7c0.2-0.1,0.2-0.4,0.1-0.6
					c-0.1-0.1-0.2-0.1-0.3-0.1l-0.9,0.5c-0.1,0-0.1,0-0.2,0L22,13.1C21.8,13,21.5,13.1,21.4,13.3z"/>
				<path class="st12" d="M21.4,13.4c0.1-0.1,0.2-0.2,0.2-0.3c0,0,0,0,0,0c0,0,0,0,0,0c0,0,0,0,0,0c0,0,0,0,0,0c0,0,0,0,0,0
					c0,0,0,0,0,0c0,0,0,0,0,0c0,0,0,0,0,0c0,0,0,0,0,0c0,0,0,0,0,0c0,0,0,0,0,0c0,0,0,0,0.1,0l1.3,0.7c0.2,0.1,0.5,0.3,0.8,0.1
					c0.3-0.2,0.4-0.3,0.7-0.4c0,0.2,0,0.3-0.2,0.4l-1,0.7c-0.2,0.2-0.6,0.2-0.8,0L21.5,14c-0.1-0.1-0.2-0.2-0.2-0.4
					C21.4,13.5,21.4,13.5,21.4,13.4z"/>
			</g>
		</g>
	</g>
	<g>
		<path class="st0" d="M13.6,21.3c0.4-0.2,1.1-0.2,1.5,0c0.4,0.2,0.4,0.6,0,0.9c-0.4,0.2-1.1,0.2-1.5,0
			C13.1,21.9,13.1,21.5,13.6,21.3z"/>
		<path class="st2" d="M14,20.8c0.2-0.1,0.4-0.1,0.6,0c0.2,0.1,0.2,0.2,0,0.3c-0.2,0.1-0.4,0.1-0.6,0C13.9,21.1,13.9,20.9,14,20.8z"
			/>
		<path class="st7" d="M14,20.8c0.2-0.1,0.4-0.1,0.6,0c0.2,0.1,0.2,0.2,0,0.3c-0.2,0.1-0.4,0.1-0.6,0C13.9,21.1,13.9,20.9,14,20.8z"
			/>
		<path class="st7" d="M14,21.1c0.2,0.1,0.4,0.1,0.6,0c0.1,0,0.1-0.1,0.1-0.1c0,0.1,0,0.2-0.1,0.2C14.5,21.3,14.2,21.3,14,21.1
			c-0.1,0-0.1,0-0.1-0.1C13.9,21,14,21,14,21.1z"/>
		<path class="st2" d="M13.9,20.5c0.2-0.1,0.6-0.1,0.8,0c0.2,0.1,0.2,0.3,0,0.5c-0.2,0.1-0.6,0.1-0.8,0
			C13.7,20.9,13.7,20.7,13.9,20.5z"/>
		<path class="st7" d="M13.9,20.5c0.2-0.1,0.6-0.1,0.8,0c0.2,0.1,0.2,0.3,0,0.5c-0.2,0.1-0.6,0.1-0.8,0
			C13.7,20.9,13.7,20.7,13.9,20.5z"/>
		<path class="st2" d="M13.9,20.3c0.2-0.1,0.6-0.1,0.8,0c0.2,0.1,0.2,0.3,0,0.5c-0.2,0.1-0.6,0.1-0.8,0
			C13.7,20.6,13.7,20.4,13.9,20.3z"/>
		<path class="st7" d="M13.9,20.3c0.2-0.1,0.6-0.1,0.8,0c0.2,0.1,0.2,0.3,0,0.5c-0.2,0.1-0.6,0.1-0.8,0
			C13.7,20.6,13.7,20.4,13.9,20.3z"/>
		<path class="st7" d="M13.9,20.7c0.2,0.1,0.6,0.1,0.8,0c0.1-0.1,0.1-0.1,0.2-0.2c0,0.1,0,0.2-0.2,0.3
			C14.5,20.9,14.2,20.9,13.9,20.7c-0.1,0-0.2-0.1-0.2-0.2C13.8,20.6,13.8,20.6,13.9,20.7z"/>
		<path class="st7" d="M13.9,20.9c0.2,0.1,0.6,0.1,0.8,0c0.1-0.1,0.1-0.1,0.2-0.2c0,0.1,0,0.2-0.2,0.3
			C14.5,21.1,14.2,21.1,13.9,20.9c-0.1,0-0.2-0.1-0.2-0.2C13.8,20.8,13.8,20.9,13.9,20.9z"/>
		<path class="st9" d="M14.3,17.7c0.6,0,1.1,0.5,1.1,1.1c0,0.2-0.1,0.5-0.2,0.7C15,19.8,15,19.8,15,20.2v0v0c0,0.1-0.1,0.2-0.2,0.3
			c-0.1,0.1-0.3,0.1-0.5,0.1c-0.2,0-0.3,0-0.5-0.1c-0.1-0.1-0.2-0.2-0.2-0.3v0v0c0-0.4-0.1-0.5-0.3-0.8c-0.1-0.2-0.2-0.4-0.2-0.7
			C13.2,18.2,13.7,17.7,14.3,17.7z"/>
		<path class="st3" d="M13.2,19.1c0.2,0.3,0.5,0.5,0.9,0.5c0.6,0,1-0.5,1-1c0-0.4-0.2-0.7-0.5-0.9c0.5,0.1,0.8,0.6,0.8,1.1
			c0,0.2-0.1,0.5-0.2,0.6c0,0,0,0,0,0c0,0,0,0,0,0C15,19.8,15,19.8,15,20.2v0v0c0,0,0,0,0,0l0,0l0,0c0,0,0,0,0,0.1c0,0,0,0,0,0
			c0,0,0,0,0,0c0,0,0,0,0,0c0,0,0,0,0,0c0,0,0,0,0,0c0,0,0,0,0,0c0,0,0,0,0,0c0,0,0,0,0,0c0,0,0,0,0,0c0,0,0,0,0,0c0,0,0,0,0,0
			c-0.1,0.1-0.3,0.1-0.5,0.1c-0.2,0-0.3,0-0.5-0.1c-0.1-0.1-0.2-0.2-0.2-0.3c0,0.1,0.1,0.1,0.2,0.2c0.1,0.1,0.3,0.1,0.4,0.1
			c-0.1-0.9-0.4-0.5-0.8-0.9c0-0.1-0.1-0.1-0.1-0.2c0,0,0,0,0,0c0,0,0,0,0,0C13.3,19.4,13.3,19.3,13.2,19.1z"/>
	</g>
	<g>
		<path class="st0" d="M33.4,18.2c-0.4-0.2-1.1-0.2-1.5,0c-0.4,0.2-0.4,0.6,0,0.9c0.4,0.2,1.1,0.2,1.5,0
			C33.8,18.8,33.8,18.4,33.4,18.2z"/>
		<path class="st2" d="M33.7,16.9L33.7,16.9c0-0.2-0.1-0.3-0.3-0.4c-0.4-0.2-1.1-0.2-1.5,0c-0.2,0.1-0.3,0.3-0.3,0.4v0.3
			c0,0.2,0.1,0.3,0.3,0.4c0.4,0.2,1.1,0.2,1.5,0c0.2-0.1,0.3-0.3,0.3-0.4h0V16.9z"/>
		<path class="st7" d="M33.7,16.9c0,0.2-0.1,0.3-0.3,0.4c-0.4,0.2-1.1,0.2-1.5,0c-0.2-0.1-0.3-0.3-0.3-0.4l0,0v0.3
			c0,0.2,0.1,0.3,0.3,0.4c0.4,0.2,1.1,0.2,1.5,0c0.2-0.1,0.3-0.3,0.3-0.4h0L33.7,16.9L33.7,16.9z"/>
		<path class="st1" d="M33.6,16.5c0-0.7-0.4-0.8-0.4-1.1c0-0.3,0.4-0.4,0.4-1.1V14c0-0.1-0.1-0.3-0.3-0.4c-0.4-0.2-1-0.2-1.3,0
			c-0.2,0.1-0.3,0.3-0.3,0.4v0.4c0,0.7,0.4,0.8,0.4,1.1c0,0.3-0.4,0.4-0.4,1.1v0.4c0,0.1,0.1,0.3,0.3,0.4c0.4,0.2,1,0.2,1.3,0
			c0.2-0.1,0.3-0.3,0.3-0.4V16.5z"/>
		<path d="M33.3,15.2c0.1-0.2,0.3-0.4,0.3-0.8V14c0-0.1-0.1-0.3-0.3-0.4c-0.2-0.1-0.6-0.2-0.9-0.1v0c0,0,0,0,0,0c0,0,0,0,0,0
			c-0.1,0-0.3,0.1-0.4,0.1c-0.2,0.1-0.3,0.3-0.3,0.4v0.4c0,0.7,0.4,0.8,0.4,1.1c0,0.3-0.4,0.4-0.4,1.1v0.2v0.2
			c0,0.1,0.1,0.3,0.3,0.4c0,0,0.1,0,0.1,0.1c0,0,0,0,0.1,0c0,0,0,0,0.1,0c0.1,0,0.1,0,0.2,0c0,0,0,0,0,0c0.3,0,0.6,0,0.9-0.1
			c0.2-0.1,0.3-0.3,0.3-0.4v-0.4c0-0.1,0-0.2,0-0.3c0.2,1-1.1,1.2-1.1,0C32.5,15.2,32.8,15.7,33.3,15.2z"/>
		<path class="st2" d="M33.7,13.7L33.7,13.7c0-0.2-0.1-0.3-0.3-0.4c-0.4-0.2-1.1-0.2-1.5,0c-0.2,0.1-0.3,0.3-0.3,0.4V14
			c0,0.2,0.1,0.3,0.3,0.4c0.4,0.2,1.1,0.2,1.5,0c0.2-0.1,0.3-0.3,0.3-0.4h0V13.7z"/>
		<path class="st7" d="M33.7,13.7c0,0.2-0.1,0.3-0.3,0.4c-0.4,0.2-1.1,0.2-1.5,0c-0.2-0.1-0.3-0.3-0.3-0.4l0,0V14
			c0,0.2,0.1,0.3,0.3,0.4c0.4,0.2,1.1,0.2,1.5,0c0.2-0.1,0.3-0.3,0.3-0.4h0L33.7,13.7L33.7,13.7z"/>
		<path class="st6" d="M33.2,16.6c-0.2-0.1-0.4-0.5-0.6-0.5c-0.2,0-0.4,0.4-0.6,0.5c-0.3,0.2-0.3,0.5,0,0.7c0.3,0.2,0.8,0.2,1.2,0
			C33.6,17.1,33.6,16.8,33.2,16.6z"/>
		<path class="st7" d="M32.1,16.6c-0.3,0.2-0.3,0.5,0,0.7c0.3,0.2,0.8,0.2,1.2,0c0.2-0.1,0.3-0.3,0.2-0.5c-0.3,0.4-1,0.3-1-0.6
			C32.3,16.3,32.2,16.5,32.1,16.6z"/>
		<path class="st6" d="M33.1,14.8c-0.2-0.1-0.6-0.1-0.8,0c-0.1,0.1-0.2,0.2-0.2,0.3c0,0,0,0.1,0.1,0.1c0,0,0,0,0,0
			c0.2,0.2,0.3,0.2,0.4,0.3c0,0,0.1,0.1,0.1,0.1l0,0l0,0c0.1,0,0.1,0,0.1-0.1c0-0.1,0.2-0.1,0.4-0.3h0c0.1,0,0.1-0.1,0.1-0.1
			C33.3,14.9,33.2,14.8,33.1,14.8z"/>
		<path class="st7" d="M33.1,14.8c-0.2-0.1-0.6-0.1-0.8,0c-0.1,0.1-0.2,0.2-0.2,0.3c0,0,0,0.1,0.1,0.1c0,0,0,0,0,0
			c0.2,0.2,0.3,0.2,0.4,0.3c0,0,0.1,0.1,0.1,0.1l0,0l0,0c0.1,0,0.1,0,0.1-0.1c0-0.1,0.2-0.1,0.4-0.3h0c0.1,0,0.1-0.1,0.1-0.1
			C33.3,14.9,33.2,14.8,33.1,14.8z"/>
		<path class="st7" d="M33,14.8c-0.2-0.1-0.5-0.1-0.6,0c-0.2,0.1-0.2,0.3,0,0.4c0.2,0.1,0.5,0.1,0.6,0C33.2,15.1,33.2,14.9,33,14.8z
			"/>
	</g>
</g>
</svg>
